<?xml version="1.0" encoding="utf-8"?>
<!-- Generator: Adobe Illustrator 23.0.0, SVG Export Plug-In . SVG Version: 6.00 Build 0)  -->
<svg version="1.1" id="Layer_1" xmlns="http://www.w3.org/2000/svg" xmlns:xlink="http://www.w3.org/1999/xlink" x="0px" y="0px"
	 viewBox="0 0 1366 768" style="enable-background:new 0 0 1366 768;" xml:space="preserve">
<style type="text/css">
	.st0{fill:#2E2B7B;}
	.st1{fill:#1F1A58;}
	.st2{fill:#D0DFFC;}
	.st3{fill:#FECD75;}
	.st4{fill:#E1A372;}
	.st5{fill:#DEDEDE;}
	.st6{fill:#5F52D8;}
	.st7{fill:#D2E0FC;}
	.st8{fill:#D1DFFC;}
	.st9{fill:#A5B4F4;}
	.st10{fill:#FE9189;}
	.st11{fill:#FE595C;}
	.st12{fill:#2A2678;}
	.st13{fill:#6053D8;}
	.st14{fill:#201B59;}
	.st15{fill:#FE3C5E;}
	.st16{fill:#FECE77;}
	.st17{fill:#6154D9;}
	.st18{fill:#211C59;}
	.st19{fill:#FE3C5F;}
	.st20{fill:#6155D9;}
	.st21{fill:#FECE78;}
	.st22{fill:#252068;}
	.st23{fill:#FCFCFD;}
	.st24{fill:#D1E0FC;}
	.st25{fill:#FEFDFC;}
	.st26{fill:#2B2779;}
	.st27{fill:#302C7D;}
	.st28{fill:#CCBFDA;}
	.st29{fill:#F94264;}
	.st30{fill:#FEB0BE;}
	.st31{fill:#BFBAEF;}
	.st32{fill:#FEB8C5;}
	.st33{fill:#A9A2BB;}
	.st34{fill:#FD4263;}
	.st35{fill:#C2BDF0;}
	.st36{fill:#A4B3F3;}
	.st37{fill:#7880BF;}
	.st38{fill:#D0DEFC;}
	.st39{fill:#F9B0C1;}
	.st40{fill:#C9C9C9;}
	.st41{fill:#FEFEFE;}
	.st42{fill:#FEFCFD;}
	.st43{fill:#FEF9F8;}
	.st44{fill:#F34870;}
	.st45{fill:#C7C2F0;}
	.st46{fill:#FD3E61;}
	.st47{fill:#FAF5F9;}
	.st48{fill:#F6E9F2;}
	.st49{fill:#F24B72;}
	.st50{fill:#FAF7F9;}
	.st51{fill:#A9A8BF;}
	.st52{fill:#F8F7F9;}
	.st53{fill:#F94163;}
	.st54{fill:#F54768;}
	.st55{fill:#CFCBF2;}
	.st56{fill:#FCFCFC;}
	.st57{fill:#FBF9F8;}
	.st58{fill:#F8CB82;}
	.st59{fill:#FBCD7D;}
	.st60{fill:#FACB7B;}
	.st61{fill:#FEFDFD;}
	.st62{fill:#F0AAC0;}
	.st63{fill:#FCFCFE;}
	.st64{fill:#C0BBEF;}
	.st65{fill:#BAB9CC;}
	.st66{fill:#FEFCFC;}
	.st67{fill:#FDB1BF;}
	.st68{fill:#FDFDFE;}
	.st69{fill:#A19FB9;}
	.st70{fill:#272462;}
	.st71{fill:#272361;}
	.st72{fill:#262260;}
	.st73{fill:#262360;}
	.st74{fill:#5E52D8;}
	.st75{fill:#C1C1C1;}
	.st76{fill:#C4C4C4;}
	.st77{fill:#D3E1FC;}
	.st78{fill:#ABABAB;}
	.st79{fill:#959596;}
	.st80{fill:#868688;}
	.st81{fill:#E1A472;}
</style>
<g>
	<path class="st0" d="M517.82,195.3c-0.37,4.82-0.77,9.63-1.07,14.46c-0.07,1.13-0.39,1.43-1.52,1.43
		c-40.65-0.03-81.3-0.03-121.95-0.03c-3.09,0-4.64,1.05-5.77,3.89c-0.26,0.45-0.13,0.94-0.13,1.41
		c-0.01,20.13-0.01,40.26-0.01,60.39c0,0.6,0.05,1.2-0.2,1.77c-0.05,3.8-0.02,7.59-0.02,11.39c-0.08,37.93-0.05,75.86-0.06,113.79
		c0,2.04,0.14,4.07,0.03,6.11c-0.06,6.99-0.01,13.99-0.02,20.99c-0.01,4.92-0.16,9.84,0.03,14.75c0.52,13.86,0.1,27.72,0.26,41.58
		c0,0.3-0.13,0.65,0.18,0.9c0.06,0.01,0.11,0.03,0.17,0.05c0.58-0.64,0.4-1.44,0.4-2.18c0.01-13.76,0.01-27.51,0.01-41.27
		c0-2.58-0.22-2.47,2.48-2.47c57.39,0,114.77,0,172.16-0.01c0.86,0,1.77,0.21,2.57-0.34c0.21-0.5,0.1-1.03,0.1-1.54
		c0.01-55.4,0.01-110.79,0.01-166.19c0-0.51-0.15-1.04,0.14-1.52l-0.01,0.02c0.26-0.46,0.37-0.95,0.33-1.47
		c-0.02-0.3,0-0.6-0.01-0.9c-0.48-2.5,0.16-5.03-0.09-7.5c-0.8-7.76-0.23-15.52-0.35-23.28c-0.12-7.75-0.03-15.5-0.03-23.25
		c0-0.24,0.03-0.48-0.08-0.71c-0.53-2.83-2.47-4.4-5.53-4.4c-10.62-0.01-21.25,0-31.87,0c-1.5,0-1.49,0-1.38-1.5
		c0.29-4.06,0.58-8.12,0.87-12.18c0.22-3.37,0.28-2.85-2.44-3.02c-1.87-0.12-3.74-0.23-5.61-0.42
		C518.48,193.94,517.83,194.24,517.82,195.3z"/>
	<path class="st1" d="M565.28,441.85c-23.44,0-46.87-0.01-70.31-0.01c-35.2,0-70.39,0-105.59,0c-1.66,0-1.66,0-1.66,1.69
		c0,14.88,0,29.76,0,44.63c0.52,2.18,2.26,3.65,4.5,3.79c0.4,0.02,0.8,0.01,1.2,0.01c45.83,0,91.65,0,137.48,0.01
		c0.52,0,1.04,0.03,1.56,0.05c0.46,0.41,1.03,0.38,1.59,0.38c6.45,0.01,12.9,0.01,19.35,0c0.55,0,1.13,0.06,1.58-0.38
		c1.07,0,2.14-0.01,3.21-0.01c2.96,1.4,7.25-0.97,7.44-4.29c0.22-3.81,0.08-7.64,0.05-11.46c0-0.32-0.14-0.62-0.23-0.92
		c-0.01-5.48-0.03-10.95,0.01-16.43c0.01-1.67-0.14-3.34,0.03-5.01c2.11-0.05,4.23-0.12,6.34-0.14c10.63-0.07,21.27-0.14,31.9-0.17
		c1.03,0,1.3-0.18,1.01-1.25c-0.69-2.59-1.3-5.2-1.85-7.82c-0.19-0.91-0.52-1.01-1.37-0.81c-11.61,2.77-23.24,5.51-34.86,8.26
		c-0.38,0.09-0.75,0.29-1.16,0.14c-0.14-2.99-0.02-5.99-0.07-8.98C565.43,442.69,565.6,442.24,565.28,441.85z"/>
	<path class="st2" d="M387.45,278.68c0-20.45,0-40.9,0.01-61.36c0-0.76,0.03-1.52,0.04-2.27c-0.48,0.42-0.26,0.98-0.26,1.47
		c-0.01,19.98-0.01,39.97-0.01,59.95c0,0.48,0,0.96,0,1.48c-0.52,0.01-0.69-0.38-0.91-0.68c-1.1-1.46-2.22-2.91-3.28-4.41
		c-0.44-0.62-0.79-0.72-1.42-0.24c-5.17,3.91-10.36,7.81-15.54,11.7c-0.18,0.14-0.41,0.22-0.62,0.32c0.1,0.92,1.06,0.85,1.56,1.32
		c0.35,0.33,0.99,0.44,0.73,1.14c-0.12,0.25-0.34,0.45-0.29,0.76c0.88,1.1,2.24,1.47,3.36,2.2c0.66,0.44,1.38,0.8,2.05,1.22
		c1.77,1.11,2.29,2.86,1.34,4.48c-1.04,1.78-2.74,2.24-4.61,1.22c-2.42-1.31-4.78-2.72-7.15-4.12c-1.27-0.75-2.56-1.46-3.84-2.2
		c-0.33-0.2-0.68-0.44-1.11-0.25c-1.02,1.41-2.58,2.19-3.92,3.21c-5.71,4.35-11.47,8.63-17.22,12.93c-0.06,0.04-0.14,0.05-0.24,0.08
		c-0.46-0.23-0.02-0.88-0.49-1.1c-0.46,1.64-0.78,3.3-1.35,4.92c-2.9,8.3-5.75,16.63-8.67,24.93c-0.9,2.57-3.11,3.53-5.81,2.56
		c-2.37-0.85-3.4-3.1-2.54-5.53c0.33-0.94,0.86-1.81,0.91-2.84c0.01-0.75-0.41-1.16-1.08-1.39c-0.68-0.24-1.35-0.5-2.04-0.68
		c-0.95-0.24-1.09-0.76-0.72-1.59c0.34-0.76,0.63-1.55,0.86-2.35c0.12-0.4,0.38-0.82,0.02-1.24c-4.4,3.29-8.8,6.58-13.2,9.86
		c-1.31,0.98-1.32,1.08-0.33,2.4c7,9.34,13.99,18.68,20.97,28.02c7.01,9.38,14.02,18.75,21.02,28.13
		c5.02,6.73,10.02,13.49,15.05,20.22c6.08,8.13,12.19,16.24,18.27,24.37c3.29,4.4,6.56,8.82,9.87,13.2
		c0.39,0.52,0.35,1.04,0.35,1.58c0.01,12.2,0,24.39,0.02,36.59c0,0.48-0.26,1.05,0.31,1.42c-0.04-0.4-0.11-0.79-0.11-1.19
		c0-25.68,0-51.36,0-77.04c-0.18-0.55-0.13-1.12-0.07-1.66c0.13-1.07-0.32-1.58-1.32-1.9c-3.39-1.09-6.67-2.48-9.8-4.19
		c-3.31-1.82-6.4-3.94-8.75-6.98c-2.92-3.79-3.5-7.93-2.03-12.45c0.71-2.17,1.69-4.23,2.47-6.37c2.07-5.72-0.02-10.08-4-13.45
		c-4.46-3.78-9.38-6.95-14.03-10.47c-3.54-2.68-6.96-5.5-9.82-8.93c-3.07-3.67-4.75-7.73-3.87-12.61c0.8-4.45,5.27-8.14,9.79-8.26
		c5.59-0.15,10.25,2.03,14.48,5.42c0.12,0.1,0.24,0.21,0.36,0.31c2.46,1.96,2.91,1.99,5.66,0.49c0.83-0.45,1.27-1.09,1.33-1.99
		c0.08-1.24,0.06-2.48-0.01-3.71c-0.2-3.71,0.33-7.28,2.39-10.44c2.42-3.69,6.06-4.88,10.28-4.61c1.97,0.13,3.84,0.72,5.64,1.53
		c1.09,0.49,1.21,0.4,1.21-0.8c0-3.4,0-6.8,0-10.2c0-1.21-0.14-1.27-1.31-0.86c-0.85,0.3-1.44,1-2.24,1.38
		c-1.45,0.67-2.45,0.49-2.86-1.06c-0.65-2.4-1.91-4.7-1.63-7.31c0.15-1.4,0.66-2.64,2-3.33c1.28-0.65,2.38-0.03,2.57,1.38
		c0.1,0.71,0.1,1.43,0.46,2.08c0.72,0.19,1.36-0.06,1.99-0.34c0.81-0.34,1.04-0.96,1.03-1.81c-0.03-2.97-0.02-5.95-0.01-8.92
		C387.37,279.46,387.29,279.06,387.45,278.68z"/>
	<path class="st3" d="M554.97,492.01c-7.5,0-15.01,0-22.51,0c-0.46,5.21-0.93,10.41-1.38,15.62c-0.35,3.98-0.67,7.95-1.02,11.93
		c-0.21,2.42-0.42,4.85-0.68,7.27c-0.1,0.95,0.01,1.38,1.17,1.47c6.36,0.48,12.72,1.08,19.07,1.64c1.96,0.17,2.02,0.19,2.2-1.79
		c0.45-4.93,0.84-9.86,1.27-14.79c0.53-6,1.07-12,1.61-18C554.8,494.24,554.88,493.13,554.97,492.01z"/>
	<path class="st4" d="M565.43,475.35c0,3.55,0,7.1-0.01,10.65c-0.01,4-1.96,5.96-5.93,5.96c-0.44,0-0.87,0.03-1.31,0.04
		c-0.21,2.75-0.4,5.5-0.63,8.24c-0.04,0.5-0.05,0.93,0.28,1.35c5.53,6.93,11.07,13.85,16.58,20.8c0.53,0.67,0.84,0.55,1.42,0.09
		c5.24-4.19,10.49-8.37,15.79-12.5c1-0.78,0.58-1.24,0.01-1.96c-8.56-10.75-17.1-21.51-25.65-32.27c-0.12-0.16-0.26-0.3-0.4-0.45
		C565.53,475.32,565.48,475.34,565.43,475.35z"/>
	<path class="st5" d="M578.04,357.2c0.17,3.97,0.32,7.99,1.8,11.72c0.84,2.12,1.86,4.21,2.9,6.27c1.91,3.76,4.95,6.51,7.95,9.26
		c1.86,1.7,4.28,2.68,6.5,3.91c3.72,2.08,7.88,2.72,11.91,3.77c2.17,0.56,4.01,1.55,5.62,3.17c1.87,1.89,3.88,3.67,6.62,4.32
		c5.71,1.34,10.47-1.42,11.38-7.51c0.71-4.76,2.89-8.64,6.06-12.14c2.61-2.89,4.72-6.14,5.88-9.92c0.88-2.84,2.06-5.61,2.37-8.6
		c0.26-2.54,0.19-5.1,0.03-7.65c-0.16-2.52-0.79-4.97-1.68-7.28c-1.45-3.78-2.81-7.65-5.69-10.69c-0.6-0.63-1.03-1.42-1.62-2.06
		c-3.85-4.29-8.46-7.38-14-9.12c-2.31-0.73-4.63-1.45-7-1.86c-3.5-0.6-7.02-0.56-10.52,0.26c-3.57,0.84-7.08,1.81-10.37,3.52
		c-3.44,1.79-6.34,4.25-9.05,6.97c-3.56,3.57-5.73,8.02-7.5,12.63c-0.89,2.32-1.29,4.82-1.38,7.35
		C578.21,354.73,577.97,355.96,578.04,357.2z"/>
	<path class="st6" d="M309.72,274.3c0.43,0.4,0.83,0.06,1.22-0.08c15.9-5.9,31.8-11.8,47.7-17.69c0.5-0.19,0.94-0.42,1.23-0.88
		c-1.17-2.68-2.04-5.47-3.15-8.18c-0.49-0.18-0.93-0.03-1.39,0.14c-15.92,5.92-31.84,11.82-47.77,17.74
		c-0.4,0.15-0.87,0.23-0.98,0.77C307.44,268.91,308.41,271.67,309.72,274.3z"/>
	<path class="st6" d="M315.22,322.31c-0.45,1.36-0.88,2.73-1.37,4.07c-0.25,0.67-0.16,1.01,0.57,1.21c0.96,0.26,1.88,0.66,2.83,0.94
		c0.52,0.15,0.72,0.44,0.66,0.94c1.66-0.1,3.05,0.81,4.57,1.25c1.8,0.52,1.92,0.5,2.51-1.23c2.87-8.29,5.75-16.59,8.61-24.88
		c0.17-0.49,0.41-0.96,0.35-1.5c0.01-0.89,0.47-1.65,0.71-2.47c0.13-0.45,0.38-0.89,0-1.33c-2.32-0.97-4.72-1.73-7.1-2.53
		c-0.91-0.3-1.81-0.62-2.52-1.32c-1.44,1.61-1.71,3.72-2.39,5.65c-2.43,6.83-4.76,13.7-7.14,20.55
		C315.44,321.89,315.32,322.1,315.22,322.31z"/>
	<path class="st7" d="M689.9,407.16c-0.07-3.06-1.37-5.7-2.95-8.21c-3.65-5.79-8.65-10.25-14.13-14.25
		c-3.53-2.58-7.3-4.7-11.32-6.38c-3.99-1.67-8-1.56-11.94,0.07c-5.25,2.18-9.18,5.86-11.66,10.98c-0.87,1.79-1.51,3.69-1.23,5.76
		c0.31,2.28,1.83,3.74,3.44,5.14c2.91,2.53,5.87,5.02,8.71,7.64c1.22,1.12,2.26,2.47,3.28,3.79c1.73,2.23,1.65,4.09-0.14,6.93
		c-2.05,3.24-5.09,5.44-8.3,7.43c-1.4,0.86-2.86,1.58-4.41,2.13c-0.44,0.16-0.94,0.29-0.96,0.92c-0.01,0.56,0.44,0.71,0.82,0.91
		c4.92,2.56,9.55,1.73,13.98-1.22c2.56-1.7,4.52-3.99,6.17-6.57c1.34-2.09,2.5-2.45,4.87-1.67c1.33,0.44,2.57,1.06,3.8,1.74
		c2.96,1.63,6.05,2.69,9.49,1.54c2.57-0.86,4.42-2.68,6.11-4.65c2.03-2.36,3.61-5.05,5.28-7.67
		C689.64,410.21,689.98,408.73,689.9,407.16z"/>
	<path class="st8" d="M290,398.55c0.56,3.96,1.88,7.96,5.45,10.87c0.55,0.44,1.25,0.7,1.89,1.02c0.96,0.49,1.76,1.18,2.08,2.21
		c0.46,1.5,1.51,2.38,2.79,3.11c1.22,0.69,1.26,1.44,0.13,2.19c-0.44,0.3-0.7,0.69-0.44,1.22c0.3,0.61,0.85,0.71,1.43,0.51
		c1.58-0.56,3.14-1.14,4.71-1.74c2.53-0.97,5.05-1.96,7.59-2.92c0.61-0.23,1.18-0.49,0.99-1.24c-0.2-0.79-0.85-0.86-1.54-0.66
		c-0.46,0.13-0.92,0.35-1.29-0.17c-0.36-0.5-0.19-0.97,0.06-1.46c0.78-1.5,0.92-3.01,0.16-4.59c-0.38-0.78-0.34-1.64,0.01-2.44
		c2.51-5.81,0.57-10.74-3.23-15.14c-1.71-1.98-4.18-2.75-6.84-2.97c-2.96-0.25-5.7,0.24-8.18,1.87
		C292.22,390.57,290.15,393.79,290,398.55z"/>
	<path class="st6" d="M565.43,475.35l0.08,0.01c0,0,0.06-0.05,0.06-0.06c0.01-4.51,0.01-9.02,0.02-13.53
		c0.07-0.06,0.09-0.12,0.07-0.18c-0.02-0.06-0.04-0.1-0.06-0.1c-0.37-3.59-0.37-3.6,3.03-2.83c12.27,2.75,24.55,5.49,36.82,8.27
		c1.06,0.24,1.41,0.05,1.37-1.09c-0.08-2.6-0.05-5.2-0.01-7.8c0.01-0.85-0.19-1.19-1.13-1.19c-10.6,0.07-21.19,0.06-31.79,0.17
		c-2.48,0.03-4.95,0.02-7.43,0.1c-0.74,0.02-0.99-0.23-0.95-0.96c0.04-0.76-0.01-1.52-0.03-2.28c-0.42,1.44-0.12,2.92-0.14,4.37
		c-0.06,5.5-0.03,11-0.02,16.5C565.33,474.96,565.39,475.16,565.43,475.35z"/>
	<path class="st9" d="M565.61,461.5c-0.01,0.09-0.01,0.19-0.02,0.28c11.45,5.49,22.89,10.97,34.34,16.46
		c1.51,0.73,3.02,1.46,4.51,2.23c0.73,0.38,1.17,0.34,1.36-0.58c0.58-2.77,1.18-5.53,1.82-8.29c0.15-0.63-0.01-0.84-0.62-0.98
		c-13.48-3.01-26.96-6.03-40.44-9.05C566.25,461.5,565.93,461.52,565.61,461.5z"/>
	<path class="st10" d="M566.11,470.61c1.12,1.43,2.24,2.86,3.36,4.27c7.97,10.03,15.96,20.05,23.91,30.09c0.55,0.7,0.85,0.6,1.33,0
		c1.69-2.17,3.37-4.35,5.13-6.47c0.56-0.67,0.49-1.01-0.15-1.51c-3.95-3.11-7.87-6.26-11.81-9.39
		c-6.99-5.57-13.99-11.14-20.98-16.71c-0.2-0.16-0.42-0.29-0.64-0.44C566.21,470.51,566.16,470.56,566.11,470.61z"/>
	<path class="st11" d="M566.06,465.98c2.15,1.72,4.25,3.42,6.36,5.1c9.28,7.39,18.57,14.77,27.83,22.2c0.84,0.67,1.1,0.5,1.49-0.37
		c1.11-2.44,2.26-4.86,3.48-7.24c0.42-0.83,0.26-1.14-0.53-1.51c-7.65-3.63-15.29-7.29-22.93-10.95c-4.94-2.36-9.87-4.73-14.81-7.08
		C566.71,466.02,566.49,465.78,566.06,465.98z"/>
	<path class="st12" d="M333.95,303.11c-1.03,1.9-1.53,4.01-2.24,6.02c-2.45,6.91-4.82,13.85-7.18,20.79
		c-0.3,0.88-0.67,0.97-1.45,0.66c-1.29-0.51-2.64-0.91-3.94-1.4c-0.52-0.2-0.91-0.18-1.23,0.3c-0.08,0.96-0.54,1.8-0.88,2.66
		c-1.01,2.58-0.07,5.03,2.4,6c2.98,1.17,5.49,0.22,6.46-2.54c2.31-6.59,4.58-13.19,6.86-19.79c0.76-2.19,1.47-4.39,2.28-6.56
		c0.45-1.22,0.72-2.44,0.6-3.74C335.41,304.49,334.76,303.75,333.95,303.11z"/>
	<path class="st13" d="M604.44,288.95c0.4,0,0.83,0.05,0.95-0.48c0.11-0.49-0.25-0.71-0.6-0.91c-2.52-1.5-5.04-2.99-7.56-4.48
		c-0.27-0.75-1.11-0.74-1.58-1.22c-0.61-0.31-1.23-0.62-1.78-1.03c-1.22-0.65-2.37-1.48-3.84-1.53c-1.1,0.01-2.07,0.42-2.95,1.06
		c-0.97,0.95-1.51,2.13-1.77,3.45c0,0.44,0.12,0.87,0.04,1.31c0,0.28,0.09,0.54,0.21,0.79c0.24,0.43,0.45,0.89,0.94,1.11
		c3.73,2.55,7.75,4.6,11.61,6.91c2.77,1.66,5.58,3.25,8.38,4.87c2.02,1.17,4.1,0.69,5.17-1.17c1.08-1.89,0.47-3.88-1.55-5.09
		c-1.88-1.12-3.76-2.24-5.64-3.37c-2.66-1.69-5.45-3.16-7.91-4.65C599.06,285.84,601.63,287.61,604.44,288.95z"/>
	<path class="st12" d="M356.73,247.47c-0.05,0.22-0.18,0.42-0.08,0.68c0.87,2.28,1.73,4.57,2.59,6.86c0.12,0.31,0.28,0.57,0.63,0.63
		c2.79-1.02,5.58-2.04,8.36-3.07c1.56-0.58,3.11-1.19,4.67-1.79c0.22-0.92,0.05-1.79-0.31-2.66c-0.54-1.32-1.03-2.67-1.51-4.01
		c-0.14-0.38-0.31-0.73-0.64-0.98c-0.24-0.6-0.62-0.55-1.15-0.35C365.11,244.37,360.92,245.91,356.73,247.47z"/>
	<path class="st14" d="M602.48,281.14c2.15,2.2,3.73,2.41,6.36,0.83c5.98-3.6,11.96-7.2,17.93-10.81c1.65-1,2.26-2.23,1.98-3.87
		c-0.25-1.44-1.36-2.59-2.81-2.94c-1-0.24-1.89,0.03-2.74,0.54c-1.78,1.06-3.56,2.13-5.34,3.19c-1.67,0.65-3.09,1.74-4.63,2.64
		c-1.87,1.09-3.7,2.25-5.58,3.33c3.03-1.75,5.98-3.63,8.99-5.41c0.51-0.3,1.16-0.66,0.69-1.48c-0.59-0.45-1.05-0.03-1.52,0.24
		c-3.27,1.95-6.54,3.91-9.8,5.87c-0.78,0.09-1.37,0.59-2.03,0.93c-2.48,1.55-3.1,2.93-2.49,5.52
		C601.71,280.28,601.91,280.83,602.48,281.14z"/>
	<path class="st13" d="M585.63,273.54c1.53,1.03,3.09,1,4.78,0.31c6.54-2.68,13.11-5.29,19.65-7.96c2.15-0.88,2.98-2.77,2.19-4.73
		c-0.77-1.91-2.62-2.76-4.62-2.03c-1.95,0.71-3.87,1.51-5.8,2.28c-2.11,0.57-4.09,1.53-6.11,2.34c-2.03,0.81-4.05,1.64-6.07,2.46
		c-0.94,0.38-1.67,0.91-1.97,1.91c-0.14,0.49-0.14,0.99-0.03,1.49c0.06,0.24,0.17,0.47,0.28,0.69c0.27,0.5,0.61,0.94,1.11,1.22
		c0.89,0.54,1.78,0.53,2.75,0.15c3.75-1.48,7.47-3.06,11.22-4.54c0.68-0.27,1.14-0.59,0.86-1.41c-0.55-0.77-1.21-0.38-1.82-0.13
		c-3.35,1.36-6.7,2.74-10.07,4.06c-0.55,0.22-1.09,0.5-1.72,0.3c-0.91-0.86-0.86-1.51,0.19-2.1c0.69-0.39,1.42-0.69,2.18-0.91
		c4.79-1.97,9.61-3.89,14.43-5.81c0.41-0.16,0.81-0.35,1.23-0.47c0.91-0.26,1.95,0.17,2.35,0.96c0.42,0.83,0.15,1.81-0.67,2.44
		c-0.52,0.4-1.13,0.58-1.72,0.82c-1.29,0.53-2.6,1.02-3.89,1.56c-2.41,1.34-5.06,2.12-7.57,3.22c-2.48,1.09-5.01,2.03-7.57,2.91
		c-0.54,0.18-1.07,0.31-1.63,0.13c-0.47-0.16-0.88-0.41-1.19-0.8c-0.53-0.7-0.94-1.44-0.85-2.36c0.01-0.51,0.22-0.95,0.5-1.37
		c1.28-1.23,2.96-1.69,4.52-2.35c3.23-1.37,6.48-2.65,9.73-3.97c0.4-0.16,0.88-0.22,0.99-0.75c0.06-0.87-0.35-1.07-1.11-0.78
		c-1.3,0.49-2.6,0.99-3.9,1.48c-1.12-0.02-2.03,0.62-3.03,0.98c-0.79,0.28-1.55,0.64-2.33,0.94c-1.74,0.77-3.56,1.33-5.25,2.22
		c-0.8,0.41-1.37,1.03-1.72,1.85c-0.61,1.33-0.42,2.66,0.04,3.99C584.38,272.52,584.86,273.17,585.63,273.54z"/>
	<path class="st15" d="M368.03,287.26c0.43-0.56,0.2-0.94-0.33-1.26c-0.75-0.44-1.49-0.91-2.23-1.37
		c-3.42-1.96-6.85-3.91-10.27-5.88c-1.55-0.9-3.1-1.05-4.62-0.04c-1.51,1-2.23,2.47-2.15,4.28c0.07,1.53,0.9,2.59,2.19,3.35
		c2.3,1.35,4.59,2.71,6.89,4.07c3.98,2.28,7.95,4.57,11.93,6.84c2.32,1.32,4.83,0.26,5.45-2.27c0.38-1.55-0.2-2.96-1.68-3.87
		c-1.87-1.14-3.77-2.23-5.66-3.34c-2.43-1.67-5.04-3.02-7.57-4.51c-1.2-0.71-2.39-1.42-3.62-2.08c-0.67-0.36-1.32-0.51-2.06-0.37
		c-2.5,0.53-3.11,3.93-1.29,5.08c2.8,1.89,5.84,3.4,8.71,5.16c0.84,0.52,1.72,0.99,2.58,1.48c0.29,0.17,0.56,0.29,0.89,0.22
		c0.85-0.72,0.86-1.12-0.03-1.71c-1.49-0.99-3.09-1.81-4.63-2.75c-1.84-1.02-3.66-2.09-5.48-3.16c-0.24-0.14-0.5-0.26-0.69-0.47
		c-0.43-0.47-0.51-0.99-0.17-1.53c0.34-0.53,0.84-0.55,1.37-0.31c0.97,0.46,1.89,1.03,2.81,1.57c1.41,0.83,2.82,1.65,4.24,2.44
		c3.1,1.87,6.29,3.6,9.39,5.49c0.45,0.27,0.9,0.54,1.09,1.06c0.29,0.81,0.22,1.58-0.39,2.22c-0.59,0.61-1.32,0.71-2.09,0.38
		c-0.95-0.41-1.82-0.99-2.72-1.5c-0.97-0.55-1.9-1.17-2.92-1.63c-2.23-1.06-4.3-2.4-6.43-3.64c-1.86-1.08-3.78-2.05-5.54-3.3
		c-0.57-0.51-1.29-0.79-1.88-1.28c-1.12-0.95-1.35-2.42-0.57-3.66c0.77-1.21,2.11-1.59,3.45-0.99c0.51,0.23,0.96,0.58,1.49,0.78
		c3.22,1.59,6.24,3.53,9.35,5.31c0.62,0.36,1.27,0.67,1.86,1.09C367.1,287.46,367.56,287.59,368.03,287.26z"/>
	<path class="st16" d="M574.91,298.11c-0.32-0.43-0.19-0.92-0.19-1.39c-0.01-4.43,0-8.86,0-13.29c0-0.32,0-0.64-0.01-0.96
		c-0.01-0.42-0.1-0.85-0.62-0.87c-0.52-0.02-0.64,0.38-0.64,0.82c0.01,5.23-0.05,10.46,0.06,15.69c0.04,2.01,2.1,3.4,4.52,3.35
		c2.23-0.05,4.02-1.55,4.11-3.55c0.07-1.51,0.03-3.03,0.03-4.55c0.01-1.87-0.06-3.75,0.18-5.62c0.22-0.54,0.08-1.11,0.18-1.66
		c-0.08-1.77-0.12-3.54,0.04-5.32c-0.06-0.56,0.01-1.13-0.21-1.66c-0.17-1.39-0.17-2.78-0.2-4.18c-0.04-1.97-1.48-3.27-3.53-3.26
		c-2.05,0.01-3.5,1.32-3.5,3.29c-0.01,6.91,0.01,13.82,0.03,20.73c0.35,1.29,1.36,2.02,2.72,1.99c1.31-0.03,2.59-1.01,2.79-2.19
		c0.27-1.63,0.09-3.27,0.13-4.9c0.02-0.76,0-1.52,0-2.28c-0.01-0.16,0.2,0.03,0.04-0.02c-0.02-0.01-0.03,0.03-0.04,0.1
		c-0.03,2.79,0.08,5.58-0.2,8.37c-0.14,1.35-0.52,2.41-1.88,2.9c-1.19,0.43-2.25,0.07-3.27-1.09
		C575.29,298.4,575.15,298.2,574.91,298.11z"/>
	<path class="st17" d="M364.43,223.89c0.47-0.55,0.18-0.95-0.26-1.31c-3.83-3.14-7.62-6.32-11.49-9.4c-1.89-1.5-4.39-1.04-5.94,0.91
		c-1.55,1.95-1.4,4.44,0.47,5.99c5.65,4.69,11.32,9.36,17.01,14.01c1.68,1.37,3.77,1.14,5.11-0.47c1.31-1.58,1.1-3.73-0.54-5.11
		c-1.52-1.29-3.07-2.55-4.61-3.82c-2.02-2.03-4.35-3.7-6.55-5.52c-1.5-1.24-2.88-2.63-4.57-3.62c-1.25-0.54-2.28-0.07-3.15,0.8
		c-0.9,0.9-1.11,2-0.59,3.19c0.24,0.46,0.57,0.84,0.98,1.18c3.16,2.6,6.32,5.22,9.5,7.8c0.32,0.26,0.6,0.53,1.06,0.4
		c0.69-0.83,0.67-1.2-0.2-1.95c-1.75-1.52-3.58-2.94-5.35-4.44c-0.97-0.83-1.96-1.64-2.97-2.42c-0.35-0.27-0.67-0.57-0.93-0.93
		c-0.38-0.51-0.41-1.05,0.05-1.52c0.43-0.45,0.94-0.39,1.42-0.07c0.6,0.4,1.12,0.9,1.67,1.36c4.34,3.53,8.64,7.1,12.95,10.66
		c1.08,0.89,1.26,1.95,0.51,2.91c-0.74,0.95-1.59,1.1-2.61,0.39c-1.48-1.03-2.77-2.29-4.19-3.39c-0.22-0.17-0.42-0.37-0.67-0.49
		c-1.69-1.07-3.14-2.44-4.67-3.71c-2.15-1.78-4.4-3.44-6.4-5.39c-0.3-0.32-0.66-0.57-1-0.86c-1.36-1.16-1.51-2.67-0.41-4.02
		c1.07-1.31,2.65-1.44,4.02-0.29c0.4,0.33,0.78,0.68,1.25,0.91c3.29,2.54,6.42,5.26,9.66,7.87
		C363.41,223.87,363.8,224.31,364.43,223.89z"/>
	<path class="st18" d="M590.76,240.98c4.19,0,8.38,0,12.57,0c0.28,0,0.56,0,0.84,0c0.42,0,0.72-0.18,0.75-0.61
		c0.04-0.52-0.34-0.66-0.78-0.69c-0.12-0.01-0.24-0.01-0.36-0.01c-4.79-0.03-9.58-0.09-14.36-0.08c-2.99,0.01-4.84,2.34-4.31,5.3
		c0.39,2.19,1.94,3.48,4.16,3.52c0.56,0.01,1.11,0.07,1.67,0.1c1.76,0.02,3.51,0.03,5.27,0c1.28-0.02,2.52,0.53,3.79,0.22
		c1.11-0.27,2.21-0.23,3.32-0.16c2.55-0.01,5.11-0.01,7.66-0.02c2.39-0.01,3.9-1.42,3.89-3.6c-0.02-2.2-1.48-3.58-3.89-3.6
		c-6.18-0.04-12.36-0.06-18.55-0.1c-0.65,0-1.27,0.12-1.89,0.24c-1.19,0.44-1.85,1.53-1.7,2.79c0.19,1.56,1.18,2.54,2.71,2.67
		c4.12,0,8.23,0,12.35,0c0.75,0,1.52,0.03,1.43-1.08c-0.4-0.82-1.18-0.71-1.88-0.71c-3.35-0.02-6.71-0.01-10.06-0.01
		c-0.48,0-0.96,0.02-1.43-0.1c-0.54-0.14-0.97-0.43-0.94-1.06c0.03-0.64,0.47-0.88,1.04-0.95c0.32-0.04,0.64-0.03,0.96-0.03
		c5.71,0,11.42,0,17.13,0c0.32,0,0.64,0,0.96,0.04c0.93,0.12,1.73,0.47,1.95,1.49c0.21,0.99-0.2,1.71-1.12,2.13
		c-0.37,0.18-0.77,0.2-1.17,0.2c-6.39,0.06-12.78,0.14-19.17,0.09c-0.88-0.01-1.75-0.06-2.62-0.19c-2.21-0.41-2.45-2.36-2.05-3.85
		c0.27-1.02,1.11-1.5,2.14-1.6C589.63,241.25,590.24,241.34,590.76,240.98z"/>
	<path class="st19" d="M585.04,317.75c-0.51-0.47-0.92-0.24-1.34,0.16c-3.6,3.4-7.25,6.76-10.81,10.2c-1.66,1.6-1.53,4.19,0.15,5.93
		c1.78,1.84,4.23,2.05,5.99,0.4c5.35-4.99,10.67-10,15.98-15.03c1.7-1.61,1.78-3.67,0.32-5.19c-1.54-1.61-3.51-1.63-5.3,0
		c-1.54,1.4-3.05,2.83-4.57,4.24c-1.32,0.91-2.43,2.07-3.57,3.18c-1.89,1.84-3.9,3.55-5.73,5.44c-0.39,0.4-0.78,0.81-1.02,1.32
		c-0.51,1.2-0.09,2.23,0.74,3.05c0.83,0.82,1.85,1.25,3.05,0.72c0.97-0.43,1.68-1.21,2.41-1.92c2.54-2.46,5.16-4.83,7.7-7.29
		c0.34-0.33,0.58-0.64,0.46-1.14c-0.73-0.93-1.43-0.46-2.01,0.13c-1.47,1.47-3.04,2.83-4.53,4.28c-1.26,1.23-2.55,2.42-3.86,3.59
		c-0.55,0.49-1.15,0.85-1.78,0.22c-0.61-0.61-0.38-1.27,0.16-1.8c1.72-1.72,3.53-3.36,5.3-5.03c2.5-2.36,5.03-4.67,7.49-7.07
		c0.43-0.42,0.84-0.86,1.39-1.13c1-0.51,1.95-0.35,2.6,0.44c0.67,0.82,0.64,1.66-0.24,2.57c-1.05,1.09-2.07,2.23-3.27,3.16
		c-0.35,0.27-0.67,0.57-0.92,0.94c-1.02,1.34-2.37,2.35-3.58,3.49c-2.28,2.16-4.47,4.42-6.92,6.4c-0.53,0.42-1.04,0.86-1.57,1.29
		c-1.07,0.87-2.15,0.79-3.23-0.17c-1.27-1.14-1.52-2.27-0.76-3.47c0.41-0.64,1.02-1.12,1.53-1.67c2.7-2.86,5.68-5.44,8.52-8.15
		C584.41,319.28,585.41,318.89,585.04,317.75z"/>
	<path class="st18" d="M332.29,447.12c1.18,2.55,3.21,3.57,5.69,2.88c1.9-0.53,3.06-1.96,3.06-3.94c0.02-7.39,0.02-14.78,0-22.17
		c0-1.73-0.96-2.99-2.48-3.41c-1.71-0.47-3.37,0.18-4.25,1.65c-0.1,0.17-0.21,0.34-0.31,0.5c-0.15,0.16-0.14,0.36-0.14,0.56
		c0,6.79-0.21,13.58-0.12,20.37c0.02,1.56,0.98,2.62,2.52,2.83c1.45,0.2,2.87-0.77,3.23-2.2c0.02-4.32,0-8.63,0.01-12.95
		c0-0.36,0.04-0.72-0.1-1.07c-0.91-0.44-1.36-0.29-1.6,0.56c-0.13,0.47-0.1,0.95-0.1,1.43c0,3.39,0.01,6.78-0.01,10.18
		c-0.01,0.78,0.09,1.7-1.02,1.87c-0.72,0.11-1.11-0.56-1.11-1.91c-0.01-5.83-0.01-11.65,0-17.48c0-0.2,0.01-0.4,0.02-0.6
		c0.08-0.93,0.38-1.75,1.38-2.03c0.97-0.28,1.71,0.12,2.22,0.97c0.21,0.36,0.23,0.76,0.23,1.16c0.09,6.59,0.14,13.17,0.08,19.76
		c-0.01,0.94,0.08,1.92-0.31,2.83c-0.81,1.27-1.88,1.74-3.23,1.42c-1.17-0.27-1.94-1.3-2.04-2.77c-0.32-4.42-0.07-8.85-0.15-13.28
		c-0.01-0.4,0.01-0.8-0.02-1.2c-0.03-0.51-0.28-0.85-0.8-0.86c-0.56-0.01-0.74,0.37-0.74,0.88c0,0.12,0,0.24,0,0.36
		c0,4.99,0,9.97,0,14.96C332.17,446.66,332.13,446.91,332.29,447.12z"/>
	<path class="st20" d="M565.59,271.14c0,0.51-0.01,1.02-0.01,1.53c3.16-2.3,6.07-4.93,9.13-7.35c0.59-0.47,1.19-0.95,1.74-1.47
		c1.76-1.65,1.85-4.15,0.25-6.02c-1.6-1.86-4.1-2.17-6.01-0.69c-1.54,1.2-3.03,2.48-4.54,3.72c-0.15,0.12-0.3,0.22-0.48,0.35
		c-0.28-0.53-0.16-1.01-0.16-1.47c-0.01-14.22-0.01-28.44-0.01-42.66c0-0.51,0.13-1.04-0.15-1.52c-0.01,0.84-0.04,1.68-0.04,2.52
		c0,13.64,0,27.28,0,40.91c0,2.53,0.32,5.06,0.01,7.59c-0.16,1.32,0.17,2.62,0.25,3.93c0.57,0.1,0.85-0.36,1.2-0.64
		c2.37-1.91,4.7-3.89,7.08-5.78c0.93-1.08,1.06-2,0.44-3.05c-0.86-1.45-2.09-2.01-3.74-1.72c0.47-0.24,0.82-0.64,1.24-0.93
		c1.23-0.85,2.59-0.69,3.56,0.4c1.16,1.3,1.18,2.51,0.03,3.71c-0.5,0.52-0.97,1.06-1.49,1.56c-2.55,2.02-5.01,4.14-7.55,6.16
		C566.03,270.48,565.8,270.8,565.59,271.14z"/>
	<path class="st21" d="M603.31,248.57c-2.58-0.32-5.16-0.07-7.74-0.13c-1.55-0.04-3.1,0.04-4.64,0.07c2.1,0,4.2,0,6.54,0
		c-2.18,2.18-3.65,4.58-5.38,6.77c-0.19,0.24-0.47,0.42-0.7,0.63c-0.34-0.04-0.51,0.2-0.67,0.42c-2.18,2.89-4.39,5.75-6.49,8.69
		c-0.12,0.16-0.2,0.34-0.27,0.53c-0.16,0.8-0.62,1.63,0.23,2.32c0.4-0.66,0.95-1.19,1.51-1.71c0.53-0.37,0.92-0.88,1.3-1.39
		c3.25-4.34,6.51-8.68,9.77-13.02c0.29-0.38,0.56-0.78,0.93-1.09c0.82-0.68,1.87-0.68,2.62-0.01c0.75,0.66,0.87,1.53,0.26,2.47
		c-0.82,1.27-1.8,2.44-2.7,3.66c-0.33,0.45-0.7,0.87-0.95,1.38c-0.18-0.76-0.62-1.02-1.33-0.65c-0.43,0.22-0.75,0.6-1.04,0.98
		c-1.11,1.46-2.22,2.92-3.3,4.4c-0.22,0.31-0.57,0.6-0.32,1.06c1.83-0.59,3.6-1.32,5.33-2.15c1.68-2.27,3.34-4.55,5.03-6.81
		c2.01-2.67,1.9-4.01-0.61-6.28C601.61,248.44,602.48,248.73,603.31,248.57z"/>
	<path class="st22" d="M527.88,190.79c0.08-0.79,0.15-1.59,0.23-2.38c0.07-0.63,0.14-1.23-0.81-1.18c-0.45,0.02-0.47-0.31-0.44-0.67
		c0.05-0.52,0.08-1.04,0.11-1.55c0.12-2.09-0.98-3.4-3-3.57c-2.29-0.19-3.53,0.78-3.8,2.97c-0.25,0.72,0.12,1.51-0.21,2.22
		c-1.22-0.15-1.66,0.42-1.48,1.58c0.04,0.26,0.04,0.55-0.2,0.76c-0.17,1.19-0.04,1.45,1.1,1.61c1.42,0.2,2.86,0.19,4.29,0.33
		c0.91,0.09,1.83,0.07,2.74,0.21C526.94,191.19,527.46,191.18,527.88,190.79z"/>
	<path class="st6" d="M370.44,243.13c0.66,1.86,1.3,3.74,2.01,5.58c0.26,0.68,0.42,1.35,0.45,2.07c0.08-0.88,0.77-1.26,1.38-1.71
		c1.58-1.15,3.12-2.35,4.75-3.43c0.72-0.47,1.11-1.2,1.73-1.74c0.5-0.43,0.07-1.12-0.64-1.25c-1.41-0.25-2.81-0.06-4.21,0.03
		C374.09,242.82,372.27,242.99,370.44,243.13z"/>
	<path class="st20" d="M565.28,441.85c0.02,3,0.02,6,0.06,9c0,0.42-0.18,0.88,0.17,1.26c0-4.12,0.01-8.24,0.01-12.35
		c0-55.02,0-110.05,0-165.07c0-0.68,0.05-1.36,0.07-2.03c-0.51,0.45-0.26,1.06-0.26,1.58c-0.01,55.19-0.01,110.39-0.01,165.58
		C565.32,440.49,565.29,441.17,565.28,441.85z"/>
	<path class="st6" d="M527.88,190.79c-2.76-0.17-5.52-0.34-8.28-0.52c-0.79-0.05-1.49-0.24-1.32-1.3c-0.36,2.1-0.39,4.22-0.47,6.34
		c0.2-0.77,0.65-1,1.45-0.93c2.46,0.22,4.93,0.37,7.4,0.51c0.56,0.03,0.78,0.24,0.76,0.8c-0.03,0.6,0.01,1.19,0.02,1.79
		C527.73,195.26,527.87,193.03,527.88,190.79z"/>
	<path class="st2" d="M381.49,193.12c0.02,0.6,0.36,1.01,1.09,1.04c0.2,0.01,0.4,0.03,0.6,0c1.22-0.19,1.85,0.13,1.71,1.55
		c-0.08,0.78,0.32,1.57,1.28,1.54c0.97-0.03,1.36-0.7,1.31-1.63c-0.01-0.16,0.02-0.32-0.01-0.48c-0.12-0.89,0.16-1.38,1.16-1.23
		c0.45,0.07,0.86-0.12,1.23-0.37c0.55-0.37,0.59-0.93,0.45-1.49c-0.13-0.52-0.53-0.77-1.07-0.77c-0.32,0-0.64-0.03-0.96,0
		c-1.01,0.12-1.38-0.33-1.29-1.31c0.1-0.99-0.22-1.62-1.37-1.59c-0.96,0.02-1.27,0.59-1.22,1.39c0.12,1.74,0.15,1.77-1.7,1.96
		C381.88,191.83,381.47,192.18,381.49,193.12z"/>
	<path class="st2" d="M397.33,179.23c0.24,0.99-0.24,1.36-1.35,1.27c-0.87-0.07-1.57,0.22-1.55,1.34c0.02,1.1,0.67,1.42,1.58,1.26
		c1.27-0.21,1.72,0.42,1.76,1.52c0.04,0.91,0.39,1.45,1.38,1.37c1.08-0.08,1.07-0.86,1.07-1.66c0-1.58,0.01-1.58,1.67-1.7
		c0.88-0.06,1.52-0.49,1.38-1.41c-0.14-0.91-0.82-1.41-1.76-1.13c-1.14,0.35-1.53,0.07-1.6-1.17c-0.09-1.63-0.91-2.19-1.98-1.63
		C397.34,177.62,397.33,177.65,397.33,179.23z"/>
	<path class="st2" d="M407.04,200.16c0.89-0.08,1.04-0.72,1.08-1.44c0.1-1.72,0.1-1.73,1.81-1.92c0.8-0.09,1.1-0.54,1.07-1.3
		c-0.04-0.84-0.57-1.19-1.32-1.25c-0.27-0.02-0.54,0.1-0.82,0.13c-0.85,0.11-1.3-0.21-1.22-1.13c0.03-0.28,0.04-0.57-0.02-0.84
		c-0.19-0.74-0.65-1.23-1.45-1.12c-0.8,0.11-1.1,0.72-1.1,1.47c0,0.31,0.12,0.62,0.16,0.94c0.08,0.64-0.14,0.99-0.85,0.94
		c-0.39-0.03-0.81-0.02-1.18,0.09c-0.65,0.2-1.19,0.59-1.05,1.38c0.12,0.7,0.58,1.11,1.32,1.16c0.2,0.01,0.4,0.03,0.6,0
		c1.03-0.14,1.54,0.15,1.45,1.33C405.44,199.65,406.11,200.23,407.04,200.16z"/>
	<path class="st2" d="M316.61,419.42c-1.45,0.54-2.91,1.07-4.36,1.61c-1.87,0.7-3.73,1.4-5.59,2.11c-0.41,0.15-0.88,0.26-1.13,0.64
		c-0.23,0.34-0.22,0.8,0,1.14c0.34,0.55,0.97,0.48,1.4,0.26c0.67-0.34,1.14-0.17,1.75,0.14c2.08,1.05,4.75,0.1,6.21-2.31
		c0.5-0.81,1.01-1.37,1.94-1.59c0.64-0.15,0.9-0.63,0.81-1.27C317.55,419.57,317.12,419.5,316.61,419.42z"/>
	<path class="st19" d="M604.2,274.32c0.69-0.22,1.26-0.65,1.84-1.06c-1.02-0.56-2.05-0.43-3.09-0.05c-1.89,0.7-3.79,1.39-5.68,2.08
		c-0.35,0.08-0.7,0.01-1.05,0.14c-3.77,1.43-7.54,2.84-11.32,4.25c-0.3,0.11-0.57,0.28-0.84,0.47c-1.36,1.23-1.42,3.42-0.11,4.64
		c0.45,0.41,0.95,0.74,1.61,0.44c0.14-0.46,0.1-0.91-0.03-1.36c-0.95-1.72-0.92-1.84,0.83-2.78c0.31-0.17,0.57-0.44,0.92-0.53
		c0.84-0.55,1.75-0.94,2.76-1.01c3-0.65,5.78-1.96,8.66-2.98C600.57,275.9,602.43,275.22,604.2,274.32z"/>
	<path class="st16" d="M584.3,265.36c2.36-3.15,4.73-6.3,7.09-9.46c0.08-0.18,0.16-0.36,0.24-0.55c0.18-0.4,0.23-0.81-0.22-1.04
		c-0.39-0.2-0.68,0.08-0.91,0.37c-1.09,1.43-2.17,2.86-3.24,4.3c-1.82,2.43-3.6,4.88-5.46,7.27c-1.14,1.48-1.47,3.02-0.54,4.66
		c0.94,1.68,2.37,2.66,4.37,2.62c-0.44-0.54-0.87-1.09-1.31-1.63c-0.34-0.23-0.56-0.56-0.83-0.85c-1.36-1.44-1.43-2.42-0.28-3.99
		C583.61,266.51,583.93,265.92,584.3,265.36z"/>
	<path class="st23" d="M339.28,444.27c-0.68,1.34-1.85,1.99-3.16,1.75c-1.32-0.25-2.22-1.16-2.23-2.57
		c-0.04-6.62-0.01-13.23,0-19.85c0-0.32,0.07-0.63,0.11-0.95c-0.4,0.29-0.26,0.73-0.26,1.1c-0.01,1.83-0.02,3.67,0,5.5
		c0,0.56,0.06,1.03-0.79,0.85c-0.57-0.12-0.9,0.21-0.9,0.82c0,5.26,0.01,10.53,0.02,15.79c0,0.14,0.14,0.27,0.22,0.4
		c-0.02-5.26-0.04-10.53-0.06-15.79c0-0.5,0.01-1.05,0.69-1.01c0.67,0.04,0.62,0.61,0.62,1.09c0,4.71,0,9.41,0,14.12
		c0,1.75,0.71,2.82,2.11,3.21c1.61,0.45,2.95-0.12,3.83-1.62C339.55,446.16,339.92,445.18,339.28,444.27z"/>
	<path class="st24" d="M316.11,416.18c-1.37,0.5-2.75,0.99-4.13,1.51c-2.42,0.92-4.82,1.88-7.24,2.79
		c-0.73,0.27-1.25,0.64-0.95,1.48c0.3,0.84,0.95,0.65,1.59,0.41c3.42-1.31,6.85-2.6,10.26-3.92c0.44-0.17,0.85-0.43,1.23-0.71
		c0.32-0.24,0.37-0.62,0.2-0.98C316.89,416.39,316.58,416.15,316.11,416.18z"/>
	<path class="st25" d="M574.91,298.11c0.54,1.48,1.86,2.31,3.34,2.07c1.54-0.24,2.63-1.31,2.65-2.79c0.05-3.35,0.01-6.71-0.22-10.06
		c0,1.87,0.01,3.73,0,5.6c0,0.68,0.03,1.35-0.1,2.03c-0.23,1.18-0.9,1.99-2.01,2.31c-1.17,0.33-2.21-0.01-2.98-1.01
		c-0.15-0.19-0.29-0.38-0.43-0.57C574.68,296.45,575.04,297.31,574.91,298.11z"/>
	<path class="st19" d="M582.36,279.11c-0.21,0.48-0.25,0.95,0,1.43c0.61,0.43,1.04-0.12,1.55-0.27c3.22-1.46,6.6-2.5,9.88-3.8
		c0.77-0.31,1.56-0.57,2.33-0.89c0.67-0.28,1.05-0.7,0.58-1.45c-0.54-0.2-1.01,0.04-1.49,0.22
		C590.92,275.94,586.64,277.52,582.36,279.11z"/>
	<path class="st24" d="M513.8,164.94c0.97-0.18,2.16-0.04,2.23-1.13c0.06-0.96-1.04-1.15-1.86-1.33c-1.78-0.38-3.57-0.74-5.35-1.12
		c-0.65-0.14-1.26,0-1.51,0.63c-0.26,0.66,0.27,1,0.79,1.28C509.92,164.25,511.93,164.54,513.8,164.94z"/>
	<path class="st24" d="M516.5,178.59c0.68-0.09,1.31,0.16,1.5-0.55c0.18-0.68-0.32-1.14-0.81-1.31c-2.2-0.77-4.24-2.02-6.62-2.24
		c-0.5-0.05-1.02-0.01-1.24,0.51c-0.23,0.54,0.18,0.91,0.54,1.21c0.46,0.39,0.99,0.68,1.57,0.85
		C513.18,177.57,514.87,178.31,516.5,178.59z"/>
	<path class="st8" d="M508.8,167.02c-0.53-0.02-0.98,0.1-1.21,0.6c-0.25,0.53,0.17,0.84,0.5,1.09c1.73,1.27,3.68,2,5.81,2.15
		c0.55,0.04,1.12-0.18,1.25-0.86c0.12-0.62-0.28-0.88-0.75-1.2C512.7,167.65,510.73,167.4,508.8,167.02z"/>
	<path class="st8" d="M504.83,173.73c0.49-0.04,0.93-0.17,1.13-0.61c0.21-0.47,0.16-0.99-0.31-1.28c-1.98-1.21-4.11-2.03-6.4-2.39
		c-0.38-0.06-0.84-0.08-1.03,0.39c-0.19,0.47,0.18,0.75,0.47,1C500.48,172.37,502.61,173.17,504.83,173.73z"/>
	<path class="st23" d="M590.76,240.98c-0.47-0.02-0.95-0.06-1.42-0.05c-1.67,0.03-2.77,1.01-2.98,2.63
		c-0.21,1.64,0.61,2.93,2.2,3.44c0.9-0.01,1.83,0.42,2.67-0.25c-2.5-1.03-2.82-3.38-0.69-5.25
		C590.61,241.32,590.69,241.15,590.76,240.98z"/>
	<path class="st24" d="M495.31,166.82c0.67,0.01,1.36,0.03,1.57-0.77c0.19-0.73-0.38-1.13-0.91-1.38c-1.66-0.76-3.35-1.48-5.14-1.9
		c-0.49-0.12-1.21-0.31-1.49,0.37c-0.25,0.61,0.35,0.99,0.74,1.22C491.74,165.36,493.27,166.64,495.31,166.82z"/>
	<path class="st26" d="M325.04,295.46c0.06,0.34,0,0.74,0.45,0.89c2.94,1.01,5.88,2.02,8.82,3.03c0.1,0.03,0.23-0.05,0.35-0.07
		c0.59-0.9,0.46-1.41-0.68-1.77c-2.62-0.82-5.2-1.74-7.78-2.68C325.5,294.61,325.16,294.72,325.04,295.46z"/>
	<path class="st24" d="M501.02,161.51c-0.74,0.01-1.19-0.06-1.37,0.41c-0.18,0.48,0.18,0.79,0.5,0.98c1.92,1.14,3.99,1.98,6.04,2.85
		c0.34,0.15,0.6-0.07,0.83-0.32c0.29-0.32,0.11-0.62-0.06-0.87c-0.26-0.35-0.54-0.71-0.88-0.97
		C504.48,162.4,502.54,162.06,501.02,161.51z"/>
	<path class="st8" d="M315.73,226.56c-1.46,0-2.43,0.93-2.41,2.31c0.01,0.89,1.02,1.96,1.87,1.99c1.15,0.05,2.43-1.26,2.44-2.49
		C317.65,227.07,317.12,226.56,315.73,226.56z"/>
	<path class="st24" d="M628.21,322.07c0.01,0.91,1.34,2.2,2.23,2.15c0.86-0.05,1.85-1.13,1.85-2.03c0-1.27-1.2-2.53-2.41-2.5
		C628.91,319.71,628.19,320.73,628.21,322.07z"/>
	<path class="st8" d="M361.53,488.64c-1.15,0.05-2.15,1-2.13,2c0.03,1.09,1.05,2.08,2.1,2.04c1.21-0.04,2.52-1.3,2.45-2.33
		C363.89,489.52,362.58,488.59,361.53,488.64z"/>
	<path class="st24" d="M520.35,169.88c-0.74,0.08-1.32-0.13-1.52,0.49c-0.17,0.53,0.3,0.81,0.62,1.06c1.45,1.11,3.16,1.66,4.91,2.07
		c0.55,0.13,1.07-0.06,1.28-0.63c0.21-0.58-0.34-0.74-0.68-0.97C523.47,170.89,521.77,170.41,520.35,169.88z"/>
	<path class="st24" d="M505.1,179.77c0.59-0.03,1.12,0.11,1.33-0.4c0.24-0.58-0.28-0.87-0.64-1.15c-1.09-0.86-2.16-1.76-3.61-1.95
		c-0.27-0.04-0.57-0.14-0.82-0.07c-0.47,0.14-1.13,0.07-1.25,0.72c-0.1,0.56,0.41,0.83,0.79,1.09
		C502.22,178.92,503.65,179.58,505.1,179.77z"/>
	<path class="st8" d="M330.36,239.84c0.03-0.9-0.57-1.52-1.45-1.52c-1.26,0-2.55,0.91-2.61,1.84c-0.07,1.03,0.88,2.14,1.84,2.16
		C329.07,242.34,330.33,240.92,330.36,239.84z"/>
	<path class="st24" d="M643.57,313.83c0,1.37,0.67,2.22,1.77,2.24c0.97,0.02,1.82-0.82,1.82-1.79c0-1.16-1.06-2.3-2.1-2.28
		C644.01,312.02,643.57,312.56,643.57,313.83z"/>
	<path class="st24" d="M316.92,239.48c-0.03,0.95,1.12,2.34,1.98,2.4c0.9,0.06,1.82-1.13,1.85-2.4c0.02-0.84-0.85-1.61-1.85-1.64
		C317.87,237.81,316.95,238.58,316.92,239.48z"/>
	<path class="st24" d="M335.89,228.16c0.02-1.13-0.51-1.5-2.26-1.59c-0.88-0.05-1.7,0.71-1.82,1.67c-0.12,1.01,0.36,1.52,1.62,1.69
		C335.09,230.15,335.87,229.59,335.89,228.16z"/>
	<path class="st8" d="M338.6,237.12c-1.11,0.01-1.99,0.7-1.99,1.58c0,0.87,1.2,2.22,1.99,2.25c0.83,0.03,2.09-1.39,2.05-2.3
		C340.61,237.79,339.7,237.11,338.6,237.12z"/>
	<path class="st24" d="M374.29,500.53c0,0.68,1.57,2.27,2.22,2.26c0.87-0.01,2.09-1,2.08-1.68c-0.01-0.69-1.49-2.13-2.18-2.13
		C375.36,498.98,374.29,499.77,374.29,500.53z"/>
	<path class="st24" d="M363.24,507.24c0,0.98,0.73,1.78,1.66,1.8c1.16,0.02,2.39-0.91,2.42-1.85c0.04-1-0.91-1.68-2.41-1.74
		C364.04,505.41,363.25,506.26,363.24,507.24z"/>
	<path class="st24" d="M639.73,322.62c0.03,1.15,0.71,1.95,1.72,1.83c1.44-0.17,2.2-0.62,2.12-1.88c-0.05-0.75-1.33-1.9-2.15-1.91
		C640.52,320.64,639.7,321.58,639.73,322.62z"/>
	<path class="st8" d="M356.28,501.39c0,1.13,0.69,2.13,1.47,2.11c0.79-0.01,2.13-1.35,2.13-2.14c0-0.93-1.04-1.89-2.09-1.92
		C356.74,499.42,356.28,500.01,356.28,501.39z"/>
	<path class="st8" d="M372.37,512.06c0.01,0.99,0.76,1.77,1.69,1.77c1.05,0,2.16-0.97,2.14-1.86c-0.03-0.96-1.23-2.02-2.23-1.96
		C373.05,510.07,372.36,510.95,372.37,512.06z"/>
	<path class="st24" d="M636.1,302.88c-0.82,0.01-1.7,1.27-1.66,2.37c0.03,0.78,1.03,1.89,1.7,1.87c0.68-0.01,1.92-1.62,1.9-2.48
		C638.02,303.89,636.9,302.86,636.1,302.88z"/>
	<path class="st24" d="M645.72,304.26c-0.05,0.96,0.31,1.74,1.34,1.7c1.33-0.05,2.3-0.52,2.28-1.7c-0.02-0.98-0.94-2.07-1.86-2.1
		C646.46,302.12,645.73,302.99,645.72,304.26z"/>
	<path class="st27" d="M309.72,274.3c-0.85-2.8-1.78-5.58-3.13-8.19c-0.75,0.11-0.99,0.41-0.68,1.2c0.85,2.14,1.62,4.3,2.41,6.46
		C308.59,274.49,308.97,274.87,309.72,274.3z"/>
	<path class="st24" d="M324.42,224.88c1.09,0.02,2.05-1.01,2.07-2.31c0.01-0.82-0.37-1.33-1.31-1.3c-1.08,0.04-2.45,1.12-2.48,2.01
		C322.67,224.08,323.52,224.86,324.42,224.88z"/>
	<path class="st24" d="M325.33,230.9c0.07-0.89-0.24-1.49-1.32-1.47c-1.26,0.02-2.28,0.95-2.29,2.1c-0.01,0.97,0.58,1.42,1.4,1.46
		C324.53,233.04,325.34,232.24,325.33,230.9z"/>
	<path class="st24" d="M629.89,311.95c-0.01-1.3-0.8-2.09-2.04-2.13c-0.96-0.03-1.27,0.53-1.3,1.33c-0.04,1.14,0.96,2.49,1.8,2.49
		C629.31,313.65,629.89,313.01,629.89,311.95z"/>
	<path class="st24" d="M370.2,491.43c0,0.91,0.86,1.78,1.72,1.75c0.78-0.02,2.13-1.23,2.12-1.91c-0.01-1.04-0.73-1.37-1.57-1.4
		C370.86,489.8,370.2,490.3,370.2,491.43z"/>
	<path class="st24" d="M366.58,495.62c-1.01,0.02-1.92,0.8-1.89,1.62c0.04,1.01,1,1.77,2.2,1.72c0.77-0.03,1.62-0.95,1.63-1.78
		C368.54,496.38,367.57,495.6,366.58,495.62z"/>
	<path class="st24" d="M636.85,315.39c0-1.23-0.63-1.96-1.84-1.91c-0.98,0.04-1.31,0.72-1.29,1.64c0.02,1.28,0.7,2.17,1.7,2.17
		C636.39,317.28,636.85,316.68,636.85,315.39z"/>
	<path class="st28" d="M601.31,261.11c-2.35,1.28-4.91,2.06-7.36,3.12c-2.08,0.9-4.22,1.68-6.32,2.55c-0.72,0.3-1.54,0.49-1.9,1.33
		c0.86,0.91,1.24,0.9,2.21-0.01c0.48-0.99,1.29-1.54,2.3-1.94c3.6-1.41,7.17-2.86,10.75-4.31c0.29-0.12,0.56-0.29,0.84-0.43
		C601.63,261.36,601.42,261.33,601.31,261.11z"/>
	<path class="st29" d="M602.48,281.14c-0.23-0.41-0.45-0.82-0.68-1.23c-0.59-0.34-1.04,0.12-1.52,0.29
		c-0.78,0.28-1.55,0.55-2.33,0.81c-0.11,0.03-0.21,0.08-0.31,0.12c-0.56,0.32-1.19,0.46-1.79,0.67c-0.1,0.05-0.18,0.12-0.24,0.21
		c0.35,0.64,1.04,0.77,1.61,1.06C598.98,282.43,600.73,281.78,602.48,281.14z"/>
	<path class="st30" d="M575.41,328.32c2.2-2.65,4.95-4.74,7.34-7.19c0.89-0.91,1.99-1.6,2.72-2.67c-0.14-0.24-0.29-0.47-0.43-0.71
		c0.05,0.6-0.34,0.94-0.72,1.3c-2.88,2.71-5.76,5.42-8.63,8.14c-0.2,0.19-0.36,0.42-0.54,0.62
		C575.16,328.02,575.2,328.21,575.41,328.32z"/>
	<path class="st31" d="M353.14,215.8c3.32,2.71,6.65,5.43,9.98,8.14c0.33,0.27,0.6,0.65,1.06,0.75c-0.24-0.37,0.09-0.55,0.26-0.79
		c-0.62,0.08-1.04-0.29-1.48-0.65c-2.94-2.44-5.88-4.88-8.82-7.3c-0.21-0.17-0.47-0.29-0.71-0.43
		C353.26,215.54,353.16,215.63,353.14,215.8z"/>
	<path class="st32" d="M596.7,274.13c0.31,0.85-0.22,1.11-0.88,1.36c-3.84,1.42-7.68,2.86-11.52,4.3c-0.18,0.07-0.35,0.18-0.52,0.28
		c0.1,0.22,0.3,0.25,0.51,0.27c3.78-1.44,7.57-2.88,11.35-4.32c0.55-0.21,1.08-0.47,1.62-0.7
		C596.78,275.05,597.3,274.32,596.7,274.13z"/>
	<path class="st33" d="M617.36,267.16c0.19,0.78-0.4,1.05-0.91,1.35c-2.81,1.69-5.62,3.38-8.42,5.07c-0.37,0.22-0.79,0.39-0.95,0.91
		c3.67-2.02,7.3-4.11,10.8-6.43C617.48,267.9,617.84,267.29,617.36,267.16z"/>
	<path class="st34" d="M582.36,286.3c-0.34,0.48-0.19,0.97,0,1.45c1.5,0.41,2.83-0.15,4.15-0.74c-0.23-0.38-0.46-0.76-0.69-1.15
		C584.65,285.89,583.52,286.26,582.36,286.3z"/>
	<path class="st35" d="M604.44,288.95c-2.8-1.9-5.82-3.43-8.72-5.16c-0.07-0.04-0.21,0.01-0.33,0.03c0.05,0.43,0.42,0.48,0.67,0.63
		c2.61,1.53,5.22,3.05,7.84,4.56c0.16,0.09,0.37,0.1,0.55,0.15C604.47,289.09,604.46,289.02,604.44,288.95z"/>
	<path class="st6" d="M519.96,186.63c0.4-0.71,0.24-1.47,0.21-2.23C519.93,185.13,520.02,185.89,519.96,186.63z"/>
	<path class="st9" d="M525.25,228.47c-0.3,1.69-0.07,3.42-0.46,5.1c-0.66,1.03-0.51,2.23-0.6,3.36c-0.32,4.22-0.59,8.44-0.93,12.66
		c-0.3,3.7-0.49,7.41-0.79,11.11c-0.41,5.17-0.72,10.35-1.13,15.53c-0.11,1.35-0.23,2.71-0.31,4.06c-0.22,3.65-1.36,6.87-4.27,9.29
		c-0.48,0.4-0.47,0.42-1.09,1.82c0.07-1.51-1.19-2.22-1.83-3.3c-1.36-2.34-2.06-4.88-1.9-7.57c0.23-3.78,0.58-7.56,0.83-11.35
		c0.25-3.78,0.52-7.57,0.82-11.35c0.31-3.9,0.53-7.81,0.85-11.71c0.23-2.74,0.45-5.49,0.57-8.24c0.06-1.4,0.33-2.78,0.29-4.18
		c-0.01-0.39,0.15-0.8-0.19-1.14c0.02-0.57,0.04-1.14,0.06-1.71c0.33-2.7,0.28-2.77-2.32-2.77c-33.44,0-66.88,0-100.32,0
		c-0.16,0,0.04,0-0.12,0c-2.39,0.01-2.54,0.15-2.54,2.49c0,64,0,127.99,0,191.99c0,0.32-0.01,0.64,0.02,0.96
		c0.1,1.19,0.46,1.56,1.62,1.66c0.44,0.04,0.88,0.02,1.32,0.02c42.36,0,84.72,0,127.08,0c2.85,0,3-0.14,3-2.96
		c0-63.76,0-127.52,0-191.27c0-2.83-0.05-2.88-2.88-2.88c-4.32,0-8.64-0.01-12.96,0C526.45,228.09,525.79,228,525.25,228.47z"/>
	<path class="st6" d="M384.43,290.88c0.11-1.04-0.18-2.04-0.39-3.02c-0.26-1.18-1.38-1.02-2.22-0.96c-1.09,0.07-2.93,2.35-2.91,3.44
		c0.04,1.81,0.14,3.61,1.03,5.27c0.2,0.37,0.3,0.85,0.28,1.28c-0.07,1.44,1.15,2.17,1.75,3.22c0.16,0.29,0.49,0.11,0.74-0.06
		c0.88-0.6,1.95-0.86,2.77-1.61c0.41-0.38,1.06-0.5,1.73-0.79c0,4.06,0,8.02,0,12.1c-1.21-0.51-2.35-1.08-3.58-1.41
		c-4.71-1.25-9.07-0.82-12.65,2.82c-2.33,2.37-2.98,5.48-3.43,8.65c-0.31,2.16,0.07,4.31,0,6.46c-0.04,1.22-0.55,1.84-1.57,2.52
		c-1.94,1.28-3.38,0.69-4.87-0.64c-2.97-2.67-6.44-4.47-10.29-5.42c-5.9-1.46-10.82,0.02-13.74,5.03c-2.41,4.15-1.78,8.42,0.4,12.48
		c2.04,3.8,5.2,6.66,8.44,9.41c4.8,4.06,10.13,7.41,15.08,11.26c1.89,1.47,3.8,2.93,5.26,4.87c2.19,2.9,2.67,6.07,1.68,9.52
		c-0.6,2.08-1.53,4.04-2.34,6.03c-2.93,7.16-0.52,12.79,4.74,17.2c4.42,3.71,9.62,5.97,14.99,7.88c1.92,0.68,1.92,0.66,1.98,2.65
		c0.01,0.27,0.09,0.54,0.13,0.81c0.02-3.16,0.07-6.31,0.07-9.47c0-28.19,0-56.38,0-84.57c0-11.91,0-23.83,0-35.74
		c0-0.48-0.04-0.96-0.06-1.43c-0.31,1.89-0.08,3.8-0.14,5.7c-0.04,1.31-0.07,2.63,0.01,3.94c0.07,1.03-0.3,1.68-1.22,2.07
		c-0.24,0.33-0.74,0.7-0.15,1.07c0.42,0.26,0.89,0.18,1.08-0.42c-0.21,1.11-0.11,2.24-0.1,3.36c0,0.7-0.24,1.17-0.77,1.64
		c-0.94,0.84-2.05,1.37-3.14,1.94c-0.47,0.25-0.76,0.14-0.89-0.37c-0.6-2.42-1.46-4.8-1.21-7.38c0.07-0.66,0.22-1.23,0.85-1.43
		c0.7-0.22,0.89,0.5,1.26,0.88C383.47,290.11,383.3,291.25,384.43,290.88z"/>
	<path class="st6" d="M525.25,228.47c5.44-0.01,10.88-0.01,16.32-0.04c0.73,0,1.04,0.24,0.96,0.97c-0.03,0.28,0,0.56,0,0.84
		c0,64.2,0,128.39,0,192.59c0,0.4,0,0.8-0.01,1.2c0,0.5-0.27,0.73-0.75,0.73c-0.36,0-0.72,0.01-1.08,0.01c-42.88,0-85.75,0-128.63,0
		c-1.77,0-1.77,0-1.77-1.76c0-64.32,0-128.63,0-192.95c0-1.62,0-1.62,1.62-1.62c33.8,0,67.6,0,101.39,0c2.18,0,1.9-0.24,1.86,1.93
		c0,0.16,0.02,0.32,0.04,0.48c0.06-0.14,0.17-0.28,0.18-0.43c0.09-1.75-0.04-3.52,0.26-5.26c0.12-0.7-0.14-1.08-0.91-0.98
		c-0.24,0.03-0.48,0-0.72,0c-35.24,0-70.47,0-105.71,0c-1.82,0-1.82,0-1.82,1.83c0,67.19,0,134.39,0,201.58c0,1.75,0,1.75,1.77,1.75
		c45.52,0,91.03,0,136.55,0c1.57,0,1.57,0,1.57-1.53c0-67.31,0-134.63,0-201.94c0-1.68,0-1.69-1.73-1.69
		c-5.88,0-11.76,0.02-17.64-0.02c-1.1-0.01-1.62,0.24-1.56,1.45C525.49,226.56,525.32,227.52,525.25,228.47z"/>
	<path class="st1" d="M515.13,232.56c-0.39,5.06-0.79,10.12-1.16,15.18c-0.78,10.6-1.53,21.21-2.33,31.81
		c-0.22,2.87,0.28,5.58,1.56,8.14c0.28,0.57,0.6,1.19,1.08,1.56c0.77,0.58,1.03,1.23,0.87,2.15c-0.07,0.41,0,0.87,0.56,0.86
		c0.5-0.01,0.65-0.44,0.61-0.87c-0.1-0.93,0.47-1.34,1.11-1.9c2.42-2.09,3.61-4.92,3.9-8c0.57-6.08,0.91-12.19,1.36-18.28
		c0.68-9.24,1.38-18.48,2.06-27.72c0.05-0.64,0.04-1.28,0.05-1.92c0.12-1.21-0.17-1.75-1.65-1.8c-2.37-0.09-4.75-0.3-7.13-0.49
		c-0.42-0.04-0.59,0-0.61,0.43C515.39,232,515.48,232.35,515.13,232.56z"/>
	<path class="st31" d="M565.59,271.14c2.79-2.3,5.58-4.6,8.37-6.9c-0.03-0.15-0.12-0.25-0.28-0.27c-2.7,2.18-5.41,4.36-8.11,6.54
		C565.58,270.72,565.59,270.93,565.59,271.14z"/>
	<path class="st9" d="M476.25,483.65c9.57,0.01,17.12-7.54,17.13-17.12c0.01-9.47-7.6-17.05-17.1-17.04
		c-9.48,0.01-17.08,7.61-17.08,17.07C459.19,476.05,466.77,483.64,476.25,483.65z"/>
	<path class="st36" d="M413.02,466.66c0,1.12,0.02,2.24-0.01,3.36c-0.02,0.61,0.19,0.85,0.83,0.84c2.28-0.03,4.56-0.03,6.83,0
		c0.62,0.01,0.85-0.2,0.85-0.83c-0.02-2.32-0.02-4.64,0-6.95c0-0.56-0.21-0.79-0.77-0.79c-2.32,0.01-4.64,0.02-6.95,0
		c-0.69-0.01-0.78,0.35-0.78,0.9C413.03,464.34,413.02,465.5,413.02,466.66z"/>
	<path class="st36" d="M535.21,462.29c-1.08,0-2.16,0.02-3.23-0.01c-0.65-0.02-0.94,0.19-0.93,0.88c0.03,2.27,0.03,4.55,0,6.82
		c-0.01,0.7,0.28,0.88,0.93,0.87c2.23-0.03,4.47-0.04,6.7,0c0.78,0.02,0.94-0.31,0.93-0.99c-0.03-2.19-0.04-4.39,0-6.58
		c0.02-0.81-0.3-1.04-1.05-1.01C537.44,462.32,536.32,462.29,535.21,462.29z"/>
	<path class="st36" d="M438.7,466.55c0,1.16,0.02,2.32-0.01,3.48c-0.02,0.62,0.22,0.83,0.84,0.82c2.28-0.03,4.56-0.03,6.83,0
		c0.64,0.01,0.84-0.24,0.83-0.84c-0.02-2.28-0.02-4.56,0-6.83c0.01-0.68-0.25-0.91-0.92-0.9c-2.24,0.03-4.48,0.03-6.71,0
		c-0.7-0.01-0.9,0.27-0.88,0.92C438.73,464.32,438.7,465.44,438.7,466.55z"/>
	<path class="st36" d="M505.37,466.49c0,1.16,0.03,2.32-0.01,3.48c-0.02,0.68,0.23,0.9,0.91,0.89c2.24-0.03,4.48-0.04,6.71,0
		c0.69,0.01,0.9-0.24,0.89-0.9c-0.03-2.28-0.02-4.56,0-6.83c0.01-0.61-0.21-0.85-0.84-0.85c-2.28,0.02-4.56,0.02-6.83,0
		c-0.62-0.01-0.86,0.23-0.84,0.85C505.39,464.25,505.37,465.37,505.37,466.49z"/>
	<path class="st36" d="M518.23,466.58c0,1.08,0.04,2.16-0.01,3.23c-0.03,0.75,0.15,1.07,0.98,1.05c2.19-0.05,4.39-0.04,6.58-0.01
		c0.65,0.01,0.93-0.17,0.92-0.87c-0.03-2.27-0.03-4.55,0-6.82c0.01-0.7-0.29-0.89-0.93-0.88c-2.23,0.02-4.47,0.02-6.7,0
		c-0.61-0.01-0.86,0.2-0.84,0.83C518.26,464.27,518.23,465.42,518.23,466.58z"/>
	<path class="st37" d="M434.31,462.46c-0.69-0.47-1.47-0.2-2.21-0.22c-1.72-0.05-3.44,0.01-5.16-0.03
		c-0.79-0.02-1.16,0.17-1.14,1.06c0.05,2.2,0.01,4.4,0.02,6.6c0,0.46-0.12,1.02,0.65,1.02c2.56-0.02,5.12-0.04,7.67-0.06
		c0.06,0,0.12-0.1,0.18-0.15c-0.05-0.05-0.1-0.11-0.14-0.17c-0.63-0.35-1.32-0.24-1.99-0.24c-1.51-0.02-3.03-0.01-4.54,0
		c-0.79,0.01-1.17-0.29-1.16-1.12c0.02-1.71,0.02-3.42,0-5.14c-0.01-0.8,0.33-1.16,1.13-1.15c1.63,0.01,3.26,0.01,4.9,0
		c0.55,0,1.12,0.06,1.63-0.23C434.21,462.56,434.26,462.51,434.31,462.46z"/>
	<path class="st37" d="M434.33,470.68c0.22-2.74,0.26-5.48-0.02-8.22c-0.04,0.03-0.07,0.07-0.11,0.1c-0.22,0.26-0.28,0.58-0.28,0.9
		c-0.04,2.08-0.04,4.15,0,6.23c0.01,0.32,0.06,0.64,0.29,0.89C434.25,470.61,434.29,470.64,434.33,470.68z"/>
	<path class="st38" d="M384.43,290.88c-0.41,0-0.73-0.17-0.76-0.6c-0.04-0.61-0.5-0.97-0.81-1.42c-0.3-0.45-0.8-0.93-1.25-0.51
		c-0.44,0.4-1.16,0.66-1.1,1.55c0.12,1.74,0.1,3.49,0.63,5.19c0.31,1.01,0.52,2.06,0.8,3.08c0.14,0.53,0.49,0.56,0.91,0.32
		c1.41-0.79,2.86-1.49,4.07-2.6c0.28-0.26,0.38-0.49,0.38-0.8c0.01-1.47,0-2.93-0.07-4.43c-0.31,0.49-0.67,0.94-1.22,0.65
		c-0.48-0.25,0.15-0.6,0.11-0.93C385.55,290.55,384.99,290.71,384.43,290.88z"/>
	<path class="st39" d="M368.03,287.26c-0.61,0.13-1.07-0.19-1.55-0.48c-3.62-2.09-7.26-4.17-10.88-6.25
		c-0.37,0.26-1.1-0.37-1.22,0.49c1.09-0.09,2,0.36,2.91,0.9c3.23,1.9,6.47,3.77,9.71,5.64c0.17,0.1,0.37,0.14,0.55,0.2
		C367.7,287.61,367.86,287.43,368.03,287.26z"/>
	<path class="st40" d="M612.58,325.68c-1.08,0-2.16,0.03-3.24-0.01c-1.29-0.04-2.49,0.2-3.74,0.57c-1.64,0.49-3.43,0.62-4.96,1.41
		c-1.06,0.55-2.26,0.75-3.21,1.6c-0.74,0.66-1.77,0.95-2.59,1.59c-1.4,1.09-2.97,1.97-4.21,3.26c-1.51,1.57-2.8,3.33-4.14,5.05
		c-2.68,3.44-4.13,7.4-4.82,11.62c-0.66,4.01-0.7,8.05-0.08,12.12c0.6,3.98,1.67,7.77,3.86,11.12c1.66,2.54,3.34,5.18,5.84,7
		c2.11,1.54,3.9,3.62,6.43,4.48c2.24,0.75,4.34,1.83,6.74,2.3c1.7,0.33,3.68,0.38,5.24,1.58c0.94,0.73,2.25,0.49,3.35,1.1
		c1.82,0.99,3.51,2.14,5.14,3.38c0.66,0.51,1.4,0.88,2.04,1.45c1.02,0.92,4.98,1.19,5.98,0.32c1.7-1.48,3.36-3,3.7-5.49
		c0.42-3.12,1.44-6.14,3.55-8.47c1.74-1.92,3.32-3.94,4.88-5.98c1.99-2.62,3.37-5.52,4.34-8.68c1.15-3.76,1.48-7.57,1.35-11.44
		c-0.14-4.01-0.89-7.89-2.7-11.52c-1.45-2.92-3.25-5.58-5.32-8.13c-2-2.45-4.47-4.25-7.05-5.88c-2.23-1.4-4.64-2.62-7.22-3.31
		C618.75,325.91,615.72,325.22,612.58,325.68z"/>
	<path class="st9" d="M309.75,267.83c0.37,0.98,0.8,2.14,1.27,3.27c0.16,0.39,0.51,0.25,0.83,0.13c4.22-1.57,8.44-3.13,12.67-4.69
		c0.51-0.19,0.68-0.49,0.49-1.01c-0.35-0.93-0.69-1.87-1.04-2.81c-0.18-0.5-0.43-0.66-1-0.45c-4.18,1.57-8.37,3.1-12.56,4.65
		C310.09,267.05,309.69,267.14,309.75,267.83z"/>
	<path class="st41" d="M641.04,429.25c3.02,0.87,5.68,0.87,8.34-0.26c3.62-1.55,6.27-4.18,8.39-7.4c1.21-1.83,2.67-3.25,5.06-2.98
		c1.14,0.13,2.22,0.58,3.3,1.02c1.88,0.77,3.54,1.98,5.51,2.59c4.5,1.38,7.23-0.34,9.73-3.03c2.26-2.43,3.99-5.26,5.8-8.03
		c1.3-1.99,1.34-4.1,0.81-6.21c-0.86-3.44-2.91-6.26-5.16-8.93c-3.49-4.14-7.53-7.68-11.98-10.75c-3.38-2.34-6.93-4.41-10.82-5.81
		c-4.26-1.53-8.3-0.63-12.04,1.55c-4.44,2.57-7.85,6.14-9.4,11.18c-0.63,2.05-0.4,3.86,1.27,5.58c3.28,3.4,7.25,6.02,10.48,9.45
		c1.15,1.22,2.22,2.51,3.26,3.81c1.95,2.43,1.53,5.47,0.17,7.75c-2.36,3.94-5.85,6.69-9.78,8.94
		C643.11,428.2,642.22,428.63,641.04,429.25z"/>
	<path class="st41" d="M291.44,398.83c0.37,3.16,1.59,6.65,4.62,9.29c0.5,0.44,1.14,0.73,1.76,1.01c1.51,0.67,2.53,1.77,3.03,3.34
		c0.32,0.99,1.02,1.59,1.92,2.02c0.32,0.15,0.69,0.4,0.97,0.02c0.24-0.31-0.07-0.59-0.25-0.84c-1.42-1.97-2.9-3.9-4.1-6.02
		c-1.26-2.22-2.65-4.36-3.45-6.81c-0.17-0.51-0.32-1.05,0.06-1.48c0.37-0.42,0.88-0.24,1.34-0.07c0.92,0.34,1.84,0.42,2.81,0.13
		c0.44-0.13,0.98-0.12,1.42,0c0.85,0.23,1.08-0.2,1.18-0.88c0.06-0.39,0.12-0.79,0.22-1.17c0.35-1.4,1.06-1.63,2.21-0.74
		c0.21,0.16,0.34,0.52,0.67,0.38c0.3-0.13,0.24-0.47,0.26-0.75c0.01-0.32-0.04-0.66,0.06-0.95c0.15-0.46,0.47-0.88,0.99-0.94
		c0.53-0.07,0.58,0.42,0.72,0.79c1.74,4.58,3.08,9.29,4.19,14.06c0.1,0.42,0.04,0.88,0.06,1.31c0.01,0.2,0,0.44,0.26,0.46
		c0.23,0.02,0.35-0.17,0.41-0.36c0.33-0.93,0.46-1.86,0.06-2.8c-0.53-1.26-0.75-2.54-0.09-3.81c1.73-3.34,0.85-6.56-0.35-9.81
		c-2.76-7.52-12.24-8.32-17.17-3.86C292.92,392.48,291.45,394.88,291.44,398.83z"/>
	<path class="st41" d="M297.74,400.53c1.48,3.21,3.3,5.91,5.25,8.54c0.95,1.28,1.81,2.62,2.64,3.97c0.35,0.57,0.72,0.63,1.28,0.44
		c2.16-0.73,2.37-0.88,2.06-3.52c-0.37-3.11-0.37-6.28-1.39-9.29c-0.14-0.41-0.25-0.84-0.36-1.26c-0.15-0.58-0.17-1.21-1.12-0.83
		c-0.52,0.21-0.78-0.44-1.14-0.73c-0.27-0.21-0.44-0.66-0.86-0.54c-0.42,0.13-0.34,0.57-0.39,0.92c-0.07,0.47-0.12,0.96-0.3,1.4
		c-0.17,0.42-0.39,0.99-0.97,0.92C300.94,400.35,299.47,401.05,297.74,400.53z"/>
	<path class="st41" d="M590.84,285.42c-0.06,0.84,0.56,1.16,1.15,1.51c3.37,1.96,6.74,3.91,10.11,5.87c0.69,0.4,1.3,0.81,0.19,1.45
		c-0.14,0.16-0.14,0.31,0.01,0.47c1.67,1,3.33,2.03,5.02,3c1.33,0.75,2.46,0.44,3.19-0.76c0.7-1.17,0.39-2.37-0.92-3.15
		c-2.98-1.77-5.99-3.5-8.99-5.23c-2.38-1.37-4.77-2.73-7.16-4.1C592.43,284.43,591.55,284.69,590.84,285.42z"/>
	<path class="st42" d="M597.72,281.29c1.44-0.22,2.72-0.94,4.09-1.39c-0.7-2.5,0.23-4.31,2.39-5.58c-2.1,0.46-4.05,1.38-6.05,2.12
		c-2.71,1-5.47,1.9-8.1,3.1c1.46,0.1,2.57,1.05,3.85,1.59c0.84,0.16,1.52-0.3,2.26-0.54c0.81-0.27,1.58-0.67,2.46-0.7
		C598.76,280.73,597.58,280.56,597.72,281.29z"/>
	<path class="st43" d="M582.36,286.3c1.24,0.56,2.34,0.04,3.46-0.43c-0.08-0.21-0.17-0.42-0.25-0.63c-1.25-0.21-1.97-0.99-2.24-2.18
		c-0.24-1.08,0.03-2.04,0.97-2.73c-0.17-0.09-0.34-0.18-0.51-0.27c-0.52,0.03-0.88,0.53-1.42,0.48
		C582.06,282.46,582.05,284.38,582.36,286.3z"/>
	<path class="st44" d="M589.5,285.98c0.05-2.67,0.86-3.36,4.01-3.28c-0.47-0.51-0.97-0.76-1.51-0.96c-1.77,0.27-3.4,0.9-4.9,1.87
		c-0.45,1.24,0.05,2.15,1.01,2.9C588.65,286.56,589.2,286.59,589.5,285.98z"/>
	<path class="st45" d="M589.5,285.98c-0.47,0.18-0.93,0.36-1.4,0.54c3.04,2.03,6.27,3.72,9.42,5.56c1.56,0.91,3.05,1.99,4.77,2.62
		c0-0.16-0.01-0.31-0.01-0.47c-2.3-1.02-4.36-2.46-6.56-3.66c-1.4-0.77-2.74-1.63-4.14-2.39
		C590.64,287.67,589.91,286.99,589.5,285.98z"/>
	<path class="st46" d="M597.72,281.29c0.24-0.37,0.69-0.35,1.03-0.53c0.4-0.21,0.64-0.52,0.44-0.97c-0.18-0.41-0.56-0.41-0.92-0.27
		c-1.46,0.54-2.91,1.08-4.37,1.62c0.5,0.44,1.05,0.79,1.73,0.88c0,0,0.05-0.01,0.05-0.01c0.69-0.25,1.4-0.43,2.07-0.73
		L597.72,281.29z"/>
	<path class="st47" d="M587.1,283.62c1.63-0.62,3.26-1.25,4.9-1.87C589.8,280.25,587.58,281.1,587.1,283.62z"/>
	<path class="st48" d="M587.28,280.56c-0.49,0.15-0.98,0.29-1.46,0.45c-0.62,0.21-1.19,0.53-1.25,1.26c-0.05,0.73,0.24,1.3,0.96,1.6
		C585.86,282.63,586.38,281.5,587.28,280.56z"/>
	<path class="st49" d="M590.84,285.42c0.86-0.32,1.72-0.63,2.59-0.95C591.96,283.52,591.12,283.83,590.84,285.42z"/>
	<path class="st41" d="M621.26,272.9c1.67-1,3.36-1.98,5.02-3.02c1.27-0.8,1.58-2.04,0.86-3.17c-0.74-1.16-1.94-1.46-3.22-0.69
		c-5.33,3.2-10.63,6.44-15.95,9.66c-0.29,0.88-0.41,1.78-0.39,2.71c0.7,0.55,1.27,0.08,1.84-0.26c3.25-1.95,6.5-3.91,9.75-5.87
		c0.51-0.31,1.02-0.74,1.59-0.1C621.07,272.31,620.61,272.98,621.26,272.9z"/>
	<path class="st50" d="M605.65,278.42c-0.35-1.2-0.4-2.35,0.68-3.28c-2.28-0.02-3.9,2.21-3.13,4.23
		C604.22,279.6,605,279.19,605.65,278.42z"/>
	<path class="st51" d="M621.26,272.9c-0.37-0.11-0.15-0.61-0.5-0.73c-0.01,0.61-0.43,0.89-0.89,1.16c-3.35,2.01-6.7,4-10.02,6.04
		c-0.81,0.5-1.65,0.51-2.53,0.47c0.34,0.94,1.11,0.38,1.69,0.5C613.13,277.91,617.27,275.52,621.26,272.9z"/>
	<path class="st52" d="M609.02,280.34c-0.45-0.55-1.25,0.08-1.69-0.5c-0.25-0.12-0.51-0.23-0.76-0.35c-1,0.07-1.95,0.27-2.65,1.08
		c1.08,1.19,2.14,1.41,3.48,0.7C607.95,280.98,608.48,280.65,609.02,280.34z"/>
	<path class="st53" d="M603.92,280.57c0.88-0.36,1.77-0.72,2.65-1.08c-0.31-0.36-0.61-0.71-0.92-1.07
		c-0.82,0.32-1.63,0.64-2.45,0.95C603.27,279.88,603.49,280.29,603.92,280.57z"/>
	<path class="st54" d="M607.58,278.39c0.51-0.85,0.56-1.76,0.39-2.71C606.46,276.59,606.34,277.38,607.58,278.39z"/>
	<path class="st41" d="M604.48,266.67c1.74-0.69,3.5-1.34,5.22-2.08c1.31-0.56,1.8-1.73,1.33-2.92c-0.48-1.23-1.74-1.79-3.05-1.26
		c-5.18,2.08-10.35,4.2-15.52,6.3c-0.97,0.74-1.54,1.81-2.32,2.71c-0.18,0.21-0.32,0.47-0.14,0.76c0.63,0.52,1.22,0.1,1.79-0.13
		c3.48-1.39,6.94-2.8,10.42-4.19c0.47-0.19,0.93-0.52,1.46-0.16C604.11,265.89,603.46,266.97,604.48,266.67z"/>
	<path class="st41" d="M590.97,263.96c1.33-2.04,2.84-3.94,4.34-5.85c0.26-0.34,0.55-0.74,1.09-0.48c0.56,0.27,0.17,0.77,0.26,1.33
		c1.48-1.98,2.91-3.83,4.27-5.73c0.72-1.02,0.51-2.09-0.42-2.88c-0.92-0.78-2.21-0.81-3.02,0.12c-1.1,1.26-2.07,2.63-3.08,3.97
		c-2.74,3.63-5.47,7.27-8.2,10.9c-0.19,0.25-0.33,0.54-0.5,0.82C587.47,265.43,589.22,264.69,590.97,263.96z"/>
	<path class="st55" d="M604.48,266.67c-0.69,0.02-0.32-0.82-0.8-0.97c0.16,0.59-0.02,0.97-0.63,1.21c-3.78,1.5-7.55,3.03-11.32,4.56
		c-0.92,0.37-1.8,0.19-2.66-0.19c-0.7,0.39-1.14,1.03-1.62,1.64c0.56,0.38,1.15,0.25,1.71,0.03c5.05-2.03,10.1-4.07,15.15-6.11
		C604.37,266.8,604.42,266.72,604.48,266.67z"/>
	<path class="st56" d="M584.3,265.36c-0.64,0.44-1.01,1.11-1.45,1.71c-1.41,1.89-0.77,3.95,1.47,4.84
		c-0.44-1.34-0.59-2.68-0.12-4.04C583.74,267.01,584.16,266.19,584.3,265.36z"/>
	<path class="st57" d="M585.28,269.46c-0.17,1.07,0.22,1.93,0.97,2.66c1.15-0.06,1.65-0.8,1.91-1.81c-0.09-0.21-0.18-0.43-0.27-0.64
		C587.05,269.33,586.17,269.27,585.28,269.46z"/>
	<path class="st58" d="M590.01,270.18c0.82-1.16,1.64-2.31,2.45-3.47c-0.73,0.28-1.48,0.52-2.18,0.86
		C588.94,268.21,588.86,269.18,590.01,270.18z"/>
	<path class="st59" d="M588.16,270.31c-0.52,0.72-1.08,1.41-1.91,1.81c0.28,0.44,0.69,0.68,1.19,0.79c0.79-0.3,1.23-0.95,1.62-1.64
		C588.77,270.96,588.46,270.63,588.16,270.31z"/>
	<path class="st60" d="M585.28,269.46c0.84,0.39,1.72,0.37,2.61,0.21c0.02-0.53,0.03-1.06,0.05-1.59c-0.73,0.45-1.47,0.56-2.21,0.01
		C585.43,268.51,585.2,268.93,585.28,269.46z"/>
	<path class="st2" d="M364.91,293.06c1.72,1.01,3.44,2.04,5.18,3.02c1.36,0.77,2.61,0.43,3.27-0.8c0.63-1.18,0.25-2.39-1.04-3.14
		c-3.18-1.85-6.37-3.67-9.56-5.5c-0.93,0.44-1.76,0.99-2.37,1.84c1.53,0.92,3.06,1.84,4.59,2.75c0.63,0.37,0.92,0.79,0.2,1.36
		C365,292.7,364.77,292.77,364.91,293.06z"/>
	<path class="st61" d="M360.38,288.48c0.87-0.51,1.72-1.05,2.37-1.84c-2.3-1.35-4.6-2.71-6.91-4.05c-0.84-0.49-1.57-0.32-2.04,0.51
		c-0.44,0.78-0.21,1.51,0.55,1.96C356.35,286.23,358.37,287.35,360.38,288.48z"/>
	<path class="st42" d="M354.36,281.03c0.3-0.43,0.96,0.03,1.22-0.49c-0.41-0.24-0.82-0.5-1.24-0.72c-1.64-0.86-3.18-0.44-4.1,1.11
		c-0.96,1.61-0.58,3.21,1.02,4.22c0.53,0.34,1.1,0.63,1.65,0.94c0.25,0.07,0.32-0.04,0.26-0.26
		C351.61,283.91,352.06,282.09,354.36,281.03z"/>
	<path class="st62" d="M353.17,285.84c-0.09,0.09-0.17,0.18-0.26,0.26c2.83,1.94,5.92,3.46,8.85,5.24c1.02,0.62,2.09,1.15,3.14,1.72
		c0.09-0.15,0.18-0.31,0.27-0.46c-1.91-0.61-3.49-1.85-5.21-2.8C357.67,288.52,355.43,287.16,353.17,285.84z"/>
	<path class="st41" d="M576.37,284.81c0,3.11,0.01,6.23-0.01,9.34c-0.01,1.01,0.27,1.75,1.42,1.8c0.97,0.04,1.48-0.54,1.48-1.74
		c0-3.47,0.01-6.95-0.06-10.42c-0.03-1.42,0.13-2.7,1.28-3.67c0.09-0.08,0.18-0.16,0.25-0.26c0.44-0.67,0.24-5.5-0.29-6.07
		c-0.67-0.72-1.51-1.01-2.49-0.69c-1.03,0.34-1.58,1.02-1.58,2.13C576.37,278.42,576.37,281.61,576.37,284.81
		C576.37,284.81,576.37,284.81,576.37,284.81z"/>
	<path class="st41" d="M360.41,229.15c1.5,1.26,2.98,2.54,4.5,3.77c1.29,1.06,2.4,0.98,3.35-0.16c0.9-1.07,0.73-2.34-0.48-3.34
		c-3.6-2.98-7.22-5.94-10.83-8.92c-1.14-0.94-2.28-1.88-3.42-2.82c-1.12-0.92-1.82-0.97-2.47-0.17c-0.64,0.78-0.48,1.5,0.63,2.42
		c2.92,2.42,5.86,4.83,8.8,7.24c0.52,0.42,1.08,0.82,0.36,1.53C360.79,228.94,360.24,228.71,360.41,229.15z"/>
	<path class="st63" d="M353.14,215.8c0.09-0.1,0.19-0.19,0.28-0.29c-0.43-0.36-0.84-0.74-1.28-1.08c-1.48-1.18-3.14-1.01-4.33,0.43
		c-1.21,1.46-1.07,3.07,0.39,4.34c0.36,0.31,0.75,0.59,1.13,0.89c0.41,0,0.41-0.21,0.25-0.5
		C348.82,216.97,350.47,215.21,353.14,215.8z"/>
	<path class="st64" d="M349.57,219.59c-0.03,0.19-0.05,0.39-0.25,0.5c2.36,2.21,4.94,4.16,7.43,6.21c1.19,0.99,2.29,2.1,3.66,2.85
		c0.14-0.15,0.28-0.3,0.43-0.45c-0.84,0.03-1.24-0.66-1.78-1.1c-2.79-2.26-5.57-4.53-8.34-6.81
		C350.29,220.45,349.95,220,349.57,219.59z"/>
	<path class="st41" d="M612.18,247.01c1.14-0.66,1.57-1.54,1.28-2.64c-0.29-1.12-1.12-1.71-2.55-1.72
		c-5.19-0.03-10.38-0.03-15.57-0.05c-1.08,0-2.16,0.01-3.23,0c-0.95-0.01-1.57,0.37-1.58,1.37c-0.01,1.04,0.6,1.51,1.6,1.51
		c3.87,0.02,7.74,0.03,11.62,0.04c0.47,0,0.97-0.09,1.37,0.27c-0.09,1.34,0.74,1.36,1.75,1.3
		C608.63,247,610.41,247.16,612.18,247.01z"/>
	<path class="st65" d="M612.18,247.01c-1.63-0.01-3.25-0.01-4.88-0.03c-0.93-0.01-2.09,0.37-2.19-1.19c0.18,1-0.48,0.99-1.17,0.99
		c-4.24-0.02-8.47-0.03-12.71-0.04c-0.84,0.55-1.79,0-2.67,0.25c0.51,0.33,1.09,0.2,1.63,0.2c6.87,0.03,13.74,0.04,20.62,0.05
		C611.27,247.25,611.78,247.39,612.18,247.01z"/>
	<path class="st41" d="M589.99,322.28c1.37-1.29,2.75-2.56,4.1-3.86c1.13-1.09,1.23-2.26,0.32-3.27c-0.93-1.03-2.27-1.1-3.4-0.04
		c-4.61,4.31-9.19,8.66-13.79,12.99c-0.72,0.68-0.93,1.42-0.17,2.18c0.75,0.76,1.49,0.55,2.2-0.13c2.85-2.69,5.71-5.36,8.56-8.05
		c0.45-0.43,0.88-0.89,1.51-0.26C589.55,321.99,589.4,322.7,589.99,322.28z"/>
	<path class="st66" d="M575.41,328.32c-0.03-0.2-0.03-0.41-0.27-0.51c-0.32,0.29-0.65,0.58-0.96,0.89
		c-1.45,1.42-1.51,2.99-0.19,4.39c1.41,1.49,2.91,1.51,4.47,0.06c0.35-0.33,0.69-0.65,1.03-0.98c0-0.4-0.18-0.42-0.47-0.23
		C576.54,332.52,574.85,330.82,575.41,328.32z"/>
	<path class="st67" d="M579.01,331.93c0.18,0.04,0.38,0.03,0.47,0.23c3.62-3.17,7.11-6.48,10.51-9.88
		c-0.38,0.09-0.42-0.33-0.67-0.44c0,0.42-0.16,0.75-0.48,1.05c-2.96,2.78-5.91,5.57-8.87,8.35
		C579.69,331.5,579.34,331.7,579.01,331.93z"/>
	<path class="st68" d="M339.49,422.87c-0.58-1.06-1.52-1.41-2.63-1.12c-1.16,0.3-1.68,1.17-1.68,2.33c-0.01,6.31-0.01,12.62,0,18.93
		c0,0.96,0.36,1.65,1.44,1.68c0.94,0.03,1.48-0.58,1.48-1.76c0.02-3.91,0.01-7.83,0.01-11.74c0-0.76,0.04-1.45,1.11-1.07
		c0.24,0.02,0.38-0.1,0.37-0.34C339.55,427.47,339.73,425.17,339.49,422.87z"/>
	<path class="st69" d="M339.49,422.87c0.01,2.06,0.03,4.12,0.03,6.18c0,0.37,0.15,0.81-0.3,1.06c0.18,4.72,0.05,9.44,0.06,14.15
		c0.55,0.92,0.1,1.91,0.21,2.86c0.43-0.42,0.31-0.97,0.31-1.47c0.01-7.1,0.01-14.21,0-21.31
		C339.8,423.84,339.93,423.29,339.49,422.87z"/>
	<path class="st68" d="M565.52,268.99c2.44-2.01,4.62-3.79,6.78-5.6c0.68-0.57,0.78-1.28,0.18-1.99c-0.59-0.7-1.31-0.75-2-0.2
		c-1.53,1.21-3.02,2.46-4.53,3.69c-0.26,0.21-0.43,0.45-0.43,0.8C565.53,266.68,565.52,267.67,565.52,268.99z"/>
	<path class="st63" d="M573.68,263.97c0.09,0.09,0.19,0.18,0.28,0.27c0.51-0.44,1.03-0.87,1.52-1.33c1.36-1.3,1.41-2.8,0.18-4.24
		c-1.18-1.37-2.8-1.53-4.24-0.39c-0.59,0.47-1.15,0.97-1.71,1.57c1.87-0.83,3.32-0.32,4.35,1.3
		C574.65,262.13,574.47,263.12,573.68,263.97z"/>
	<path class="st42" d="M597.74,281.27c-0.75,0.06-1.43,0.33-2.07,0.73C596.44,281.98,597.14,281.76,597.74,281.27z"/>
	<path class="st70" d="M412.48,234.91c0,0.56,0.02,1.12,0,1.67c-0.02,0.69-0.02,1.22,0.96,1.22c0.94,0,0.99-0.45,1-1.18
		c0.01-0.86-0.4-1.95,0.21-2.53c0.55-0.52,1.61-0.17,2.43-0.15c0.8,0.02,0.9-0.39,0.9-1.04c0-0.64-0.05-1.08-0.88-1.04
		c-1.23,0.05-2.47,0.05-3.71,0c-0.77-0.03-0.96,0.33-0.93,1.01C412.51,233.55,412.48,234.23,412.48,234.91z"/>
	<path class="st71" d="M540.38,234.81c0-2.93,0-2.93-2.95-2.93c-0.48,0-0.96,0.03-1.44-0.01c-0.75-0.05-1.18,0.1-1.18,1.02
		c0,0.89,0.37,1.05,1.15,1.05c2.41,0,2.44,0.03,2.42,2.57c-0.01,0.83,0.06,1.38,1.13,1.28c0.68-0.06,0.91-0.3,0.88-0.95
		C540.35,236.17,540.37,235.49,540.38,234.81z"/>
	<path class="st72" d="M537.63,421.17c2.75,0,2.75,0,2.75-2.72c0-0.64-0.02-1.28,0.01-1.91c0.03-0.69,0.02-1.2-0.96-1.22
		c-1.02-0.02-1.05,0.48-1.05,1.25c0.01,2.56-0.01,2.59-2.5,2.61c-0.74,0.01-1.07,0.16-1.07,0.99c0,0.79,0.24,1.09,1.03,1.02
		C536.43,421.13,537.03,421.17,537.63,421.17z"/>
	<path class="st73" d="M412.48,418.29c0,2.88,0,2.88,2.85,2.88c0.48,0,0.96-0.01,1.44,0c0.66,0.02,1.23,0.1,1.24-0.92
		c0.01-0.99-0.44-1.08-1.23-1.07c-2.35,0.02-2.32-0.01-2.38-2.41c-0.01-0.49,0.44-1.28-0.57-1.41c-0.87-0.11-1.51-0.01-1.36,1.14
		C412.55,417.09,412.48,417.7,412.48,418.29z"/>
	<path class="st74" d="M520.45,250.94c0.05-1.55-0.35-2.24-1.48-2.34c-1.2-0.11-1.99,0.53-2.08,1.77c-0.35,4.69-0.67,9.38-1,14.08
		c-0.08,1.07-0.19,2.15-0.22,3.22c-0.03,1.19,0.6,1.85,1.68,1.89c1.05,0.04,1.81-0.63,1.89-1.73
		C519.64,262.27,520.04,256.71,520.45,250.94z"/>
	<path class="st12" d="M476.99,473.35c3.81-0.08,6.78-3.21,6.67-7.02c-0.11-3.77-3.21-6.6-7.15-6.52c-3.68,0.07-6.55,3.21-6.46,7.07
		C470.14,470.53,473.25,473.42,476.99,473.35z"/>
	<path class="st9" d="M434.21,470.57c0-2.67,0-5.35-0.01-8.02c-2.43-0.02-4.86-0.03-7.29-0.08c-0.65-0.01-0.82,0.27-0.81,0.86
		c0.02,2.15,0.02,4.31,0,6.46c-0.01,0.6,0.18,0.87,0.82,0.86C429.35,470.61,431.79,470.6,434.21,470.57z"/>
	<path class="st12" d="M621.48,394.08c0.98,1.7,1.08,1.74,2.98,1.1c0.3-0.1,0.6-0.21,0.9-0.31c2.1-0.7,2.18-0.83,1.8-2.91
		c-0.02-0.11-0.03-0.21-0.05-0.32c-0.08-0.48-0.08-0.99-0.38-1.41c-0.56-0.84-0.47-1.88-0.89-2.76c-0.68-1.2-0.86-2.57-1.25-3.86
		c-0.18-0.61,0.1-1,0.63-1.26c3.09-1.53,5.68-3.71,8.04-6.19c4.6-5.09,7.05-11.02,7.29-17.91c0.24-6.85-1.73-12.99-5.92-18.32
		c-4.78-6.08-11.11-9.62-18.85-10.52c-7.14-0.83-13.66,0.81-19.52,4.94c-6.25,4.41-10.11,10.43-11.42,17.93
		c-1.45,8.34,0.39,16.02,5.77,22.62c5,6.13,11.5,9.66,19.45,10.39c2.35-0.06,4.72,0.18,7.06-0.26c0.77-0.15,1.21,0.16,1.42,0.9
		c0.22,0.77,0.54,1.5,0.72,2.28c0.35,1.24,0.97,2.39,1.23,3.65c0.18,0.56,0.33,1.13,0.58,1.66
		C621.21,393.71,621.36,393.88,621.48,394.08z"/>
	<path class="st75" d="M621.3,393.58c-0.06-0.59-0.28-1.13-0.53-1.66c-1.12-0.97-2.42-1.66-3.65-2.46c-0.97-0.63-1.98-1.19-3.02-1.7
		c-0.47-0.23-0.93-0.46-1.46-0.47c-0.12,0-0.28,0.03-0.35-0.03c-1.82-1.48-4.36-0.31-6.2-1.71c-0.22-0.17-0.53-0.17-0.81-0.17
		c-0.93,0.02-1.74-0.2-2.58-0.72c-0.78-0.47-1.76-0.6-2.63-1.03c-3.04-1.48-5.83-3.34-8.26-5.64c-1.9-1.81-3.39-4.02-4.64-6.37
		c-1.11-2.08-2.09-4.21-2.67-6.51c-0.22-0.86-0.39-1.72-0.47-2.58c-0.4-4.11-0.49-8.23,0.22-12.29c0.51-2.91,1.89-5.54,3.4-8.12
		c2.36-4.03,5.55-7.24,9.45-9.67c1.63-1.02,3.36-2.11,5.37-2.4c0.16-0.02,0.36-0.03,0.45-0.15c0.92-1.1,2.17-1.04,3.41-1.03
		c0.24,0,0.51,0,0.7-0.14c1.42-1.03,3.05-0.79,4.63-0.79c1.88-0.01,3.76-0.01,5.64,0.01c0.54-0.03,1.12,0.11,1.56-0.34
		c-0.53-0.67-1.24-0.96-2.08-0.96c-2.83,0-5.68-0.2-8.48,0.07c-1.65,0.16-3.25,0.9-4.97,1.11c-0.66,0.08-1.34,0.87-2.23,0.74
		c-0.54,0.32-0.9,0.87-1.44,1.2c-0.24,0-0.48,0-0.72,0c-0.46,0.35-0.93,0.68-1.44,0.96c-0.16,0-0.32,0-0.48,0
		c-0.41,0.31-0.7,0.76-1.2,0.96c-1.73,1.33-3.65,2.42-5.03,4.18c-0.26,0.33-0.64,0.58-0.97,0.86c-0.65,0.79-1.29,1.59-1.92,2.4
		c-0.08,0.64-0.63,0.96-0.96,1.44c-0.15,0.74-0.82,1.11-1.2,1.68c-0.69,1.85-1.67,3.59-2.16,5.52c-0.22,0.81-0.44,1.61-0.72,2.4
		c-0.07,0.8,0.18,1.63-0.24,2.4c-0.37,2.96-0.46,5.92,0,8.88c0.04,0.96,0.38,1.9,0.24,2.88c0.27,0.71,0.42,1.46,0.72,2.16
		c0.23,0.37,0.27,0.78,0.24,1.2c0.21,0.57,0.47,1.12,0.72,1.68c1.58,3.94,4.14,7.22,6.96,10.32c0.46,0.35,0.91,0.71,1.44,0.96
		c1.38,1.13,2.79,2.21,4.32,3.12c0.46,0.35,0.91,0.71,1.44,0.96c0.24,0,0.48,0,0.72,0c0.52,0.26,0.93,0.68,1.44,0.96
		c0.32,0,0.64,0,0.96,0c0.6,0.25,1.11,0.66,1.68,0.96c0.64,0,1.28,0,1.92,0c0.71,0.34,1.43,0.66,2.16,0.96c0.48,0,0.96,0,1.44,0
		c0.89,0.3,1.78,0.59,2.64,0.96c0.32,0,0.64,0,0.96,0c0.67,0.25,1.04,0.91,1.68,1.2c0.89-0.18,1.13,0.95,1.92,0.96
		c0.59,0.15,0.95,0.66,1.44,0.96c0.55,0.22,0.76,0.95,1.44,0.96C619.78,393.07,620.32,393.83,621.3,393.58z"/>
	<path class="st75" d="M618.85,327.6c-0.56,0-1.12,0-1.69,0c0.04,1.01,0.77,1.23,1.56,1.25c1.05,0.03,2.09-0.03,2.83,0.92
		c0.12,0.15,0.35,0.19,0.54,0.23c4.05,0.97,7.32,3.16,10.39,5.95c3.77,3.43,5.96,7.76,7.73,12.35c1.5,3.9,1.54,8.03,1.29,12.16
		c-0.11,1.85-0.79,3.57-1.07,5.38c-0.17,1.12-0.92,2.02-1.33,3.06c-1.48,3.76-3.8,6.98-6.62,9.86c-1.87,1.9-3.25,4.1-4.24,6.59
		c-0.45,1.14-0.99,2.26-1.5,3.38c-0.24,0.54-0.52,1.09-0.22,1.7c0.41,0.4-0.06,1.08,0.47,1.43c0.92-0.92,1.1-2.22,1.68-3.32v0
		c0.28-0.97,0.59-1.94,0.96-2.88l0,0c0.17-0.71,0.63-1.29,0.96-1.92c0.09-0.89,0.7-1.5,1.2-2.16c0.98-1.4,2.47-2.36,3.36-3.84
		c0.68-0.63,1.02-1.52,1.68-2.16c0.76-0.96,1.62-1.87,1.92-3.12c0.47-0.56,0.84-1.18,0.96-1.92c0.37-0.74,1.13-1.26,1.2-2.16h0
		c0.23-0.64,0.47-1.29,0.72-1.92c0.55-0.49,0.01-1.14,0.24-1.68c0.31-0.86,0.48-1.76,0.72-2.64c0-0.16,0-0.32,0-0.48
		c0.34-1.02-0.11-2.1,0.24-3.12c0-0.72,0-1.44,0-2.16c-0.35-1.26,0.1-2.58-0.24-3.84c0-0.16,0-0.32,0-0.48
		c-0.25-1.14-0.66-2.23-0.96-3.36c0-0.16,0-0.32,0-0.48c-0.42-0.84-0.72-1.73-0.96-2.64c-0.72-1.28-1.44-2.56-2.16-3.84
		c-0.16-0.72-0.72-1.24-0.96-1.92c-2.12-3.03-4.76-5.55-7.67-7.8c-0.3-0.23-0.59-0.38-0.97-0.36c-0.48-0.33-0.94-0.67-1.44-0.96h0
		c-0.63-0.19-1.11-0.65-1.68-0.96c-0.24,0-0.48,0-0.72,0c-0.6-0.26-0.98-0.78-1.44-1.2c-0.32,0-0.64,0-0.96,0
		c-0.78-0.19-1.46-0.61-2.16-0.96C619.97,327.6,619.41,327.6,618.85,327.6z"/>
	<path class="st76" d="M582.61,361.44c0-2.96,0-5.92,0-8.88C581.89,355.52,581.75,358.48,582.61,361.44z"/>
	<path class="st75" d="M628.69,388.56c-1.06,0.85-1.01,2.27-1.68,3.32c0.03,0.07,0.09,0.09,0.16,0.08
		C628.04,390.99,628.74,389.94,628.69,388.56z"/>
	<path class="st76" d="M611.65,388.56c-0.72-0.75-1.59-1.1-2.64-0.96C609.74,388.33,610.63,388.62,611.65,388.56z"/>
	<path class="st76" d="M607.57,387.6c-0.61-0.57-1.22-1.14-2.16-0.96C605.89,387.5,606.68,387.66,607.57,387.6z"/>
	<path class="st75" d="M641.65,348.72c0.1,1.18,0.36,2.32,0.96,3.36C642.73,350.83,642.16,349.78,641.65,348.72z"/>
	<path class="st75" d="M629.65,385.68c-0.73,0.82-0.88,1.84-0.96,2.88C629.18,387.66,629.66,386.75,629.65,385.68z"/>
	<path class="st75" d="M642.61,362.16c-0.49,0.81-0.76,1.68-0.72,2.64C642.57,364.04,642.63,363.11,642.61,362.16z"/>
	<path class="st76" d="M587.89,339.12c0.85-0.63,1.47-1.45,1.92-2.4C588.93,337.33,588.29,338.13,587.89,339.12z"/>
	<path class="st75" d="M620.53,327.6c0.54,0.73,1.26,1.05,2.16,0.96C622.02,328.11,621.43,327.5,620.53,327.6z"/>
	<path class="st76" d="M621.3,393.58c-0.87,0-1.41-0.78-2.22-0.94c0.47,1.02,1.56,1.02,2.4,1.44
		C621.42,393.91,621.36,393.75,621.3,393.58z"/>
	<path class="st76" d="M614.29,389.76c-0.46-0.54-0.72-1.36-1.68-1.2C613.05,389.12,613.41,389.8,614.29,389.76z"/>
	<path class="st75" d="M642.61,352.56c0.13,1.28-0.27,2.59,0.24,3.84C642.72,355.12,643.11,353.81,642.61,352.56z"/>
	<path class="st75" d="M636.85,375.6c-0.91,0.45-1.18,1.4-1.68,2.16C636.05,377.29,636.48,376.47,636.85,375.6z"/>
	<path class="st75" d="M640.93,368.4c-0.23,0.82-1.24,1.19-1.2,2.16C640.53,370.06,641,369.38,640.93,368.4z"/>
	<path class="st75" d="M640.69,345.6c0.04,0.98,0.21,1.92,0.96,2.64C641.56,347.27,641.16,346.42,640.69,345.6z"/>
	<path class="st75" d="M623.65,328.56c0.19,0.75,0.62,1.21,1.44,1.2C624.65,329.31,624.49,328.53,623.65,328.56z"/>
	<path class="st76" d="M582.85,350.16c0.61-0.69,0.74-1.52,0.72-2.4C583.12,348.5,582.75,349.26,582.85,350.16z"/>
	<path class="st76" d="M599.64,329.76c0.75-0.07,1.19-0.52,1.44-1.2C600.21,328.48,599.95,329.15,599.64,329.76z"/>
	<path class="st75" d="M631.81,381.6c-0.8,0.5-1.28,1.17-1.2,2.16C630.87,382.96,631.65,382.46,631.81,381.6z"/>
	<path class="st76" d="M583.57,366.48c0-0.8-0.17-1.54-0.72-2.16C582.78,365.14,582.98,365.88,583.57,366.48z"/>
	<path class="st75" d="M642.85,358.56c-0.53,1.01-0.1,2.08-0.24,3.12C643.13,360.67,642.71,359.6,642.85,358.56z"/>
	<path class="st76" d="M603.49,386.64c-0.44-0.53-0.88-1.07-1.68-0.96C602.24,386.21,602.74,386.65,603.49,386.64z"/>
	<path class="st75" d="M630.61,383.76c-0.63,0.49-1.03,1.09-0.96,1.92C630.04,385.08,630.6,384.56,630.61,383.76z"/>
	<path class="st75" d="M641.65,366.48c-0.51,0.54-0.77,1.17-0.72,1.92C641.43,367.86,641.7,367.23,641.65,366.48z"/>
	<path class="st76" d="M585.73,342.24c0.63-0.39,1.28-0.78,1.2-1.68C586.58,341.16,585.84,341.48,585.73,342.24z"/>
	<path class="st75" d="M637.57,339.84c0.01,0.8,0.56,1.32,0.96,1.92C638.69,340.88,638,340.42,637.57,339.84z"/>
	<path class="st75" d="M625.81,329.76c0.37,0.65,0.94,0.96,1.68,0.96C626.95,330.35,626.59,329.69,625.81,329.76z"/>
	<path class="st76" d="M600.85,385.68c-0.34-0.52-0.7-1.02-1.44-0.96C599.75,385.24,600.11,385.74,600.85,385.68z"/>
	<path class="st75" d="M627.49,330.72c0.31,0.58,0.81,0.86,1.44,0.96C628.58,331.16,628.22,330.66,627.49,330.72z"/>
	<path class="st75" d="M639.73,370.56c-0.32,0.64-0.64,1.28-0.96,1.92C639.51,372.05,639.77,371.38,639.73,370.56z"/>
	<path class="st76" d="M597.48,330.72c0.74,0.06,1.1-0.43,1.44-0.96C598.3,329.86,597.8,330.14,597.48,330.72z"/>
	<path class="st76" d="M617.65,391.68c-0.34-0.52-0.7-1.02-1.44-0.96C616.63,391.13,616.97,391.65,617.65,391.68z"/>
	<path class="st76" d="M584.53,369.36c0-0.66-0.28-1.2-0.72-1.68C583.7,368.39,584.06,368.9,584.53,369.36z"/>
	<path class="st76" d="M592.93,380.64c-0.35-0.51-0.85-0.81-1.44-0.96C591.83,380.2,592.19,380.7,592.93,380.64z"/>
	<path class="st76" d="M595.81,331.68c0.74,0.11,0.96-0.43,1.2-0.96C596.4,330.78,596.11,331.23,595.81,331.68z"/>
	<path class="st76" d="M598.69,384.72c-0.36-0.51-0.85-0.81-1.44-0.96C597.59,384.28,597.95,384.78,598.69,384.72z"/>
	<path class="st77" d="M681.82,408.2c0.17-0.01,0.3-0.09,0.35-0.27c0.07-0.3,0.01-0.56-0.21-0.77c-0.68-0.68-1.34-1.38-2.04-2.03
		c-1.38-1.26-2.81-2.47-4.19-3.75c-4.65-4.31-9.29-8.64-13.94-12.95c-1.55-1.44-3.14-2.83-4.7-4.25c-0.34-0.3-0.73-0.69-1.13-0.28
		c-0.39,0.4,0.11,0.72,0.38,0.97c3.89,3.6,7.8,7.19,11.7,10.78c1.17,1.08,2.31,2.2,3.5,3.27c3.24,2.89,6.4,5.88,9.6,8.83
		C681.33,407.95,681.51,408.2,681.82,408.2z"/>
	<path class="st77" d="M653.17,392.26c0.03,0.36,0.28,0.57,0.51,0.78c2.64,2.36,5.29,4.72,7.94,7.07c1.55,1.37,3.11,2.73,4.66,4.1
		c3.43,3.03,6.86,6.06,10.3,9.09c0.26,0.23,0.51,0.62,0.88,0.19c0.31-0.36,0.09-0.68-0.19-0.93c-1.71-1.55-3.42-3.11-5.15-4.64
		c-1.67-1.48-3.38-2.9-5.05-4.38c-4.33-3.83-8.64-7.67-12.96-11.5c-0.21-0.18-0.41-0.41-0.73-0.29
		C653.17,391.85,653.17,392.06,653.17,392.26z"/>
	<path class="st77" d="M671.06,417.76c0.27,0,0.42-0.12,0.51-0.31c0.13-0.31-0.01-0.55-0.22-0.75c-1.06-0.96-2.11-1.94-3.19-2.88
		c-2.47-2.12-4.97-4.22-7.45-6.33c-2.93-2.51-5.84-5.04-8.8-7.51c-0.29-0.24-0.72-0.93-1.19-0.37c-0.53,0.64,0.21,0.98,0.59,1.31
		c3.08,2.64,6.18,5.25,9.26,7.89c3.39,2.89,6.76,5.79,10.14,8.69C670.83,417.6,670.97,417.69,671.06,417.76z"/>
	<path class="st1" d="M612.48,334.56c-12.74-0.26-22.83,10.11-22.87,22.67c-0.05,12.74,10.39,23.22,23.44,22.95
		c12.08-0.25,22.5-10.29,22.32-23.22C635.2,344.53,625.15,334.32,612.48,334.56z"/>
	<path class="st78" d="M626.53,390.45c0.39-1.49,0.98-2.9,1.74-4.24c0.47-0.83,0.77-1.74,1.15-2.6c0.84-1.94,2.26-3.37,3.61-4.9
		c2.25-2.56,4.46-5.12,5.77-8.37c0.44-1.1,0.76-2.32,1.58-3.27c0.17-0.2,0.23-0.5,0.31-0.77c1.1-3.86,1.46-7.81,1.18-11.8
		c-0.18-2.57-0.87-5.03-1.84-7.44c-0.91-2.25-1.97-4.4-3.18-6.48c-0.65-1.12-1.43-2.16-2.4-3.05c-1.64-1.52-3.23-3.11-4.87-4.64
		c-0.45-0.42-1.12-0.6-1.67-0.82c-1.01-0.4-2.11-0.93-2.84-1.48c-1.27-0.96-3.12-0.23-4.07-1.79c-0.35-0.56-1.29-0.24-1.94-0.21
		c-0.85,0.03-1.48-0.22-1.89-0.98c-2.2,0-4.4,0-6.6,0c-1.22,0-2.43-0.13-3.52,0.77c-0.58,0.48-1.48,0.18-2.22,0.17
		c-0.7-0.01-1.25,0.15-1.66,0.73c-0.11,0.16-0.27,0.41-0.41,0.41c-1.02-0.01-1.79,0.53-2.67,0.92c-1.64,0.72-3.21,1.5-4.67,2.55
		c-2.4,1.73-4.51,3.77-6.31,6.11c-0.71,0.92-1.36,1.91-1.88,2.95c-1.01,2-2.09,3.92-2.8,6.12c-0.95,2.94-0.81,5.89-1.02,8.83
		c-0.16,2.32-0.03,4.75,0.51,6.99c0.54,2.26,1.16,4.55,2.49,6.62c0.86,1.33,1.49,2.86,2.45,4.16c1.3,1.77,2.66,3.47,4.47,4.81
		c1.12,0.83,2.19,1.77,3.41,2.41c0.98,0.52,1.95,1.1,2.86,1.69c1.13,0.74,2.61,0.51,3.54,1.57c0.08,0.09,0.21,0.2,0.29,0.19
		c2.15-0.42,3.88,1.54,6.05,1.06c0.64-0.14,1.27,0,1.72,0.59c0.11,0.15,0.32,0.3,0.49,0.31c3.15,0.18,5.3,2.35,7.78,3.87
		c0.4,0.24,0.88,0.34,1.32,0.5c-0.2-1.27-0.78-2.41-1.18-3.61c-0.72-1.25-2.06-1.49-3.24-1.93c-0.62-0.23-1.25-0.39-1.86-0.71
		c-1.03-0.54-2.24-0.34-3.36-0.59c-0.38-0.08-0.79,0.08-1.17-0.1c-18.8-1.72-30.56-21.48-22.96-38.75
		c4.05-9.21,11.24-14.7,21.13-16.4c15-2.58,29.55,8.01,31.79,23.04c1.28,8.6-0.94,16.23-6.63,22.83c-0.1,0.12-0.19,0.26-0.28,0.39
		c-1.67,1.85-3.33,3.7-4.86,5.68c-1.14,1.46-1.7,3.22-2.65,4.77c-0.18,0.29-0.14,0.69,0.07,1.01
		C625.95,388.51,625.86,389.61,626.53,390.45z"/>
	<path class="st79" d="M625.57,387.57c-0.19-1.04,0.71-1.62,1.04-2.45c0.83-2.1,2.31-3.78,3.72-5.52c0.92-1.14,2.06-2.12,2.68-3.49
		c-2.07,1.92-4.13,3.84-6.6,5.28c-2.38,1.38-2.36,1.43-1.62,4.09C624.99,386.19,625.11,386.94,625.57,387.57z"/>
	<path class="st80" d="M609.96,384.99c0.63,0.53,1.51,0.4,2.14,0.42c1.59,0.05,2.8,1.05,4.29,1.33c1.09,0.21,2.27,0.76,3.2,1.57
		c-0.02-0.16-0.01-0.33-0.06-0.47c-0.35-1.02-0.44-2.3-1.13-2.99c-0.75-0.75-2,0.06-3.04,0.08
		C613.56,384.96,611.76,384.97,609.96,384.99z"/>
	<path class="st3" d="M612.49,376.13c10.49-0.01,18.85-8.43,18.83-18.97c-0.02-10.32-8.48-18.75-18.84-18.75
		c-10.39,0-18.86,8.48-18.84,18.88C593.66,367.73,602.08,376.14,612.49,376.13z"/>
	<path class="st81" d="M597.77,358.19c0.73-6.93,4.9-10.72,10.79-12.65c5.82-1.91,11.43-1.43,16.17,3.44
		c-2.39-5.08-10.18-9.26-17.95-6.29C600.06,345.25,596.56,352.54,597.77,358.19z"/>
	<path class="st81" d="M627.54,357.9c-1.31,6.59-5.37,10.25-11.17,12.06c-5.81,1.82-11.25,1.2-15.96-3.72
		c2.9,5.43,9.37,8.75,16.22,7.09C624.38,371.44,628.42,363.86,627.54,357.9z"/>
</g>
<g>
	<path class="st1" d="M1255.25,516c-3.46-4.72-7.56-8.93-11.84-12.9c-4.3-3.96-8.88-7.59-13.63-10.98
		c-9.54-6.71-19.78-12.43-30.53-16.92c-21.49-9.04-44.61-13.87-67.83-15.14c-5.8-0.46-11.63-0.42-17.44-0.54l-8.72,0.23l-4.36,0.13
		l-4.35,0.32l-8.7,0.63l-8.67,1l-4.33,0.5c-1.45,0.15-2.88,0.43-4.32,0.65l-8.62,1.36c-2.88,0.4-5.72,1.07-8.58,1.61l-8.56,1.7
		c-5.67,1.32-11.34,2.67-16.99,4.06l-16.84,4.7c-2.83,0.8-5.65,1.64-8.49,2.41l-8.54,2.22c-22.85,5.68-46.16,9.4-69.59,11.44
		c-23.44,2.05-47,2.5-70.5,1.54c-47-1.98-93.74-9.59-139-22.44c-22.61-6.49-44.84-14.36-66.43-23.79
		c-21.56-9.45-42.52-20.41-62.21-33.44c-19.61-13.08-38.13-28.1-53.79-45.93c-7.87-8.86-14.87-18.53-20.87-28.79
		c-2.91-5.01-5.97-9.92-9.24-14.67c-3.31-4.73-6.83-9.29-10.66-13.55c-3.83-4.25-7.98-8.21-12.53-11.57
		c-2.3-1.63-4.65-3.2-7.15-4.44c-1.22-0.68-2.52-1.18-3.79-1.75c-1.3-0.46-2.6-0.97-3.93-1.29c-2.65-0.72-5.38-1.12-8.1-1.13
		c-2.72,0.02-5.43,0.43-8.03,1.24c-5.21,1.61-9.93,4.77-13.81,8.77c-3.91,4-6.99,8.83-9.34,13.98c-2.35,5.15-3.91,10.69-4.64,16.31
		c-0.73,5.62-0.58,11.38,0.79,16.82c1.35,5.43,4.04,10.53,8.13,14.26c2.04,1.87,4.36,3.36,6.97,4.49c2.59,1.2,5.27,2.19,8.01,2.93
		c5.49,1.47,11.27,1.81,16.87,0.87c5.62-0.89,10.98-3.18,15.81-6.27c4.84-3.09,9.18-6.99,13.02-11.32
		c7.67-8.7,13.44-19.03,17.73-29.84c4.29-10.84,7.15-22.3,8.13-33.96c-0.68,11.69-3.25,23.26-7.29,34.29
		c-4.1,10.99-9.72,21.53-17.38,30.56c-3.83,4.5-8.2,8.59-13.16,11.89c-4.95,3.3-10.53,5.82-16.46,6.89
		c-5.92,1.12-12.08,0.87-17.92-0.58c-2.92-0.72-5.77-1.71-8.51-2.92c-2.78-1.15-5.49-2.79-7.8-4.83c-4.68-4.1-7.71-9.77-9.26-15.64
		c-1.57-5.9-1.8-12.05-1.11-18.03c0.69-5.99,2.26-11.87,4.69-17.4c2.43-5.52,5.65-10.75,9.87-15.2c4.19-4.43,9.42-8.11,15.4-10.01
		c2.98-0.96,6.11-1.47,9.24-1.52c3.13-0.03,6.25,0.4,9.25,1.18c1.51,0.36,2.96,0.9,4.42,1.4c1.41,0.61,2.85,1.16,4.19,1.89
		c2.76,1.34,5.31,3.01,7.79,4.73c4.9,3.55,9.31,7.67,13.35,12.07c4.04,4.4,7.72,9.08,11.17,13.91c3.41,4.85,6.59,9.85,9.61,14.93
		c5.9,9.89,12.72,19.25,20.46,27.84c15.37,17.29,33.61,31.92,52.98,44.67c19.43,12.71,40.1,23.53,61.42,32.81
		c21.34,9.28,43.35,17.01,65.73,23.4c44.76,12.83,91.07,20.39,137.6,22.54c46.5,2.15,93.42-1.16,138.75-11.86l8.47-2.11
		c2.82-0.73,5.61-1.53,8.42-2.3l17.02-4.57c5.72-1.35,11.46-2.65,17.2-3.93l8.67-1.62c2.9-0.51,5.77-1.14,8.69-1.51l8.73-1.26
		c1.46-0.19,2.91-0.46,4.37-0.59l4.39-0.45l8.78-0.89l8.81-0.52l4.41-0.26l4.41-0.07l8.83-0.11c5.88,0.21,11.77,0.22,17.64,0.81
		c23.46,1.73,46.75,7.07,68.26,16.6c10.76,4.74,20.97,10.69,30.43,17.64c4.69,3.53,9.2,7.3,13.41,11.38
		C1247.91,506.87,1251.9,511.19,1255.25,516z"/>
</g>
</svg>
