<?xml version="1.0" encoding="utf-8"?>
<!-- Generator: Adobe Illustrator 23.0.0, SVG Export Plug-In . SVG Version: 6.00 Build 0)  -->
<svg version="1.1" id="Layer_1" xmlns="http://www.w3.org/2000/svg" xmlns:xlink="http://www.w3.org/1999/xlink" x="0px" y="0px"
	 viewBox="0 0 1366 768" style="enable-background:new 0 0 1366 768;" xml:space="preserve">
<style type="text/css">
	.st0{fill:#2E2B7B;}
	.st1{fill:#1F1A58;}
	.st2{fill:#D0DFFC;}
	.st3{fill:#FECD75;}
	.st4{fill:#E1A372;}
	.st5{fill:#DEDEDE;}
	.st6{fill:#5F52D8;}
	.st7{fill:#D2E0FC;}
	.st8{fill:#D1DFFC;}
	.st9{fill:#A5B4F4;}
	.st10{fill:#FE9189;}
	.st11{fill:#FE595C;}
	.st12{fill:#2A2678;}
	.st13{fill:#6053D8;}
	.st14{fill:#201B59;}
	.st15{fill:#FE3C5E;}
	.st16{fill:#FECE77;}
	.st17{fill:#6154D9;}
	.st18{fill:#211C59;}
	.st19{fill:#FE3C5F;}
	.st20{fill:#6155D9;}
	.st21{fill:#FECE78;}
	.st22{fill:#252068;}
	.st23{fill:#FCFCFD;}
	.st24{fill:#D1E0FC;}
	.st25{fill:#FEFDFC;}
	.st26{fill:#2B2779;}
	.st27{fill:#302C7D;}
	.st28{fill:#CCBFDA;}
	.st29{fill:#F94264;}
	.st30{fill:#FEB0BE;}
	.st31{fill:#BFBAEF;}
	.st32{fill:#FEB8C5;}
	.st33{fill:#A9A2BB;}
	.st34{fill:#FD4263;}
	.st35{fill:#C2BDF0;}
	.st36{fill:#A4B3F3;}
	.st37{fill:#7880BF;}
	.st38{fill:#D0DEFC;}
	.st39{fill:#F9B0C1;}
	.st40{fill:#C9C9C9;}
	.st41{fill:#FEFEFE;}
	.st42{fill:#FEFCFD;}
	.st43{fill:#FEF9F8;}
	.st44{fill:#F34870;}
	.st45{fill:#C7C2F0;}
	.st46{fill:#FD3E61;}
	.st47{fill:#FAF5F9;}
	.st48{fill:#F6E9F2;}
	.st49{fill:#F24B72;}
	.st50{fill:#FAF7F9;}
	.st51{fill:#A9A8BF;}
	.st52{fill:#F8F7F9;}
	.st53{fill:#F94163;}
	.st54{fill:#F54768;}
	.st55{fill:#CFCBF2;}
	.st56{fill:#FCFCFC;}
	.st57{fill:#FBF9F8;}
	.st58{fill:#F8CB82;}
	.st59{fill:#FBCD7D;}
	.st60{fill:#FACB7B;}
	.st61{fill:#FEFDFD;}
	.st62{fill:#F0AAC0;}
	.st63{fill:#FCFCFE;}
	.st64{fill:#C0BBEF;}
	.st65{fill:#BAB9CC;}
	.st66{fill:#FEFCFC;}
	.st67{fill:#FDB1BF;}
	.st68{fill:#FDFDFE;}
	.st69{fill:#A19FB9;}
	.st70{fill:#272462;}
	.st71{fill:#272361;}
	.st72{fill:#262260;}
	.st73{fill:#262360;}
	.st74{fill:#5E52D8;}
	.st75{fill:#C1C1C1;}
	.st76{fill:#C4C4C4;}
	.st77{fill:#D3E1FC;}
	.st78{fill:#ABABAB;}
	.st79{fill:#959596;}
	.st80{fill:#868688;}
	.st81{fill:#E1A472;}
</style>
<g>
	<path class="st0" d="M1027.43,195.3c0.37,4.82,0.77,9.63,1.07,14.46c0.07,1.13,0.39,1.43,1.52,1.43
		c40.65-0.03,81.3-0.03,121.95-0.03c3.09,0,4.64,1.05,5.77,3.89c0.26,0.45,0.13,0.94,0.13,1.41c0.01,20.13,0.01,40.26,0.01,60.39
		c0,0.6-0.05,1.2,0.2,1.77c0.05,3.8,0.02,7.59,0.02,11.39c0.08,37.93,0.05,75.86,0.06,113.79c0,2.04-0.14,4.07-0.03,6.11
		c0.06,6.99,0.01,13.99,0.02,20.99c0.01,4.92,0.16,9.84-0.03,14.75c-0.52,13.86-0.1,27.72-0.26,41.58c0,0.3,0.13,0.65-0.18,0.9
		c-0.06,0.01-0.11,0.03-0.17,0.05c-0.58-0.64-0.4-1.44-0.4-2.18c-0.01-13.76-0.01-27.51-0.01-41.27c0-2.58,0.22-2.47-2.48-2.47
		c-57.39,0-114.77,0-172.16-0.01c-0.86,0-1.77,0.21-2.57-0.34c-0.21-0.5-0.1-1.03-0.1-1.54c-0.01-55.4-0.01-110.79-0.01-166.19
		c0-0.51,0.15-1.04-0.14-1.52l0.01,0.02c-0.26-0.46-0.37-0.95-0.33-1.47c0.02-0.3,0-0.6,0.01-0.9c0.48-2.5-0.16-5.03,0.09-7.5
		c0.8-7.76,0.23-15.52,0.35-23.28c0.12-7.75,0.03-15.5,0.03-23.25c0-0.24-0.03-0.48,0.08-0.71c0.53-2.83,2.47-4.4,5.53-4.4
		c10.62-0.01,21.25,0,31.87,0c1.5,0,1.49,0,1.38-1.5c-0.29-4.06-0.58-8.12-0.87-12.18c-0.22-3.37-0.28-2.85,2.44-3.02
		c1.87-0.12,3.74-0.23,5.61-0.42C1026.77,193.94,1027.42,194.24,1027.43,195.3z"/>
	<path class="st1" d="M979.97,441.85c23.44,0,46.87-0.01,70.31-0.01c35.2,0,70.39,0,105.59,0c1.66,0,1.66,0,1.66,1.69
		c0,14.88,0,29.76,0,44.63c-0.52,2.18-2.26,3.65-4.5,3.79c-0.4,0.02-0.8,0.01-1.2,0.01c-45.83,0-91.65,0-137.48,0.01
		c-0.52,0-1.04,0.03-1.56,0.05c-0.46,0.41-1.03,0.38-1.59,0.38c-6.45,0.01-12.9,0.01-19.35,0c-0.55,0-1.13,0.06-1.58-0.38
		c-1.07,0-2.14-0.01-3.21-0.01c-2.96,1.4-7.25-0.97-7.44-4.29c-0.22-3.81-0.08-7.64-0.05-11.46c0-0.32,0.14-0.62,0.23-0.92
		c0.01-5.48,0.03-10.95-0.01-16.43c-0.01-1.67,0.14-3.34-0.03-5.01c-2.11-0.05-4.23-0.12-6.34-0.14
		c-10.63-0.07-21.27-0.14-31.9-0.17c-1.03,0-1.3-0.18-1.01-1.25c0.69-2.59,1.3-5.2,1.85-7.82c0.19-0.91,0.52-1.01,1.37-0.81
		c11.61,2.77,23.24,5.51,34.86,8.26c0.38,0.09,0.75,0.29,1.16,0.14c0.14-2.99,0.02-5.99,0.07-8.98
		C979.82,442.69,979.65,442.24,979.97,441.85z"/>
	<path class="st2" d="M1157.8,278.68c0-20.45,0-40.9-0.01-61.36c0-0.76-0.03-1.52-0.04-2.27c0.48,0.42,0.26,0.98,0.26,1.47
		c0.01,19.98,0.01,39.97,0.01,59.95c0,0.48,0,0.96,0,1.48c0.52,0.01,0.69-0.38,0.91-0.68c1.1-1.46,2.22-2.91,3.28-4.41
		c0.44-0.62,0.79-0.72,1.42-0.24c5.17,3.91,10.36,7.81,15.54,11.7c0.18,0.14,0.41,0.22,0.62,0.32c-0.1,0.92-1.06,0.85-1.56,1.32
		c-0.35,0.33-0.99,0.44-0.73,1.14c0.12,0.25,0.34,0.45,0.29,0.76c-0.88,1.1-2.24,1.47-3.36,2.2c-0.66,0.44-1.38,0.8-2.05,1.22
		c-1.77,1.11-2.29,2.86-1.34,4.48c1.04,1.78,2.74,2.24,4.61,1.22c2.42-1.31,4.78-2.72,7.15-4.12c1.27-0.75,2.56-1.46,3.84-2.2
		c0.33-0.2,0.68-0.44,1.11-0.25c1.02,1.41,2.58,2.19,3.92,3.21c5.71,4.35,11.47,8.63,17.22,12.93c0.06,0.04,0.14,0.05,0.24,0.08
		c0.46-0.23,0.02-0.88,0.49-1.1c0.46,1.64,0.78,3.3,1.35,4.92c2.9,8.3,5.75,16.63,8.67,24.93c0.9,2.57,3.11,3.53,5.81,2.56
		c2.37-0.85,3.4-3.1,2.54-5.53c-0.33-0.94-0.86-1.81-0.91-2.84c-0.01-0.75,0.41-1.16,1.08-1.39c0.68-0.24,1.35-0.5,2.04-0.68
		c0.95-0.24,1.09-0.76,0.72-1.59c-0.34-0.76-0.63-1.55-0.86-2.35c-0.12-0.4-0.38-0.82-0.02-1.24c4.4,3.29,8.8,6.58,13.2,9.86
		c1.31,0.98,1.32,1.08,0.33,2.4c-7,9.34-13.98,18.68-20.97,28.02c-7.01,9.38-14.02,18.75-21.02,28.13
		c-5.02,6.73-10.02,13.49-15.05,20.22c-6.08,8.13-12.19,16.24-18.27,24.37c-3.29,4.4-6.56,8.82-9.87,13.2
		c-0.39,0.52-0.35,1.04-0.35,1.58c-0.01,12.2,0,24.39-0.02,36.59c0,0.48,0.26,1.05-0.31,1.42c0.04-0.4,0.11-0.79,0.11-1.19
		c0-25.68,0-51.36,0-77.04c0.18-0.55,0.13-1.12,0.07-1.66c-0.13-1.07,0.32-1.58,1.32-1.9c3.39-1.09,6.67-2.48,9.8-4.19
		c3.31-1.82,6.4-3.94,8.75-6.98c2.92-3.79,3.5-7.93,2.03-12.45c-0.71-2.17-1.69-4.23-2.47-6.37c-2.07-5.72,0.02-10.08,4-13.45
		c4.46-3.78,9.38-6.95,14.03-10.47c3.54-2.68,6.96-5.5,9.82-8.93c3.07-3.67,4.75-7.73,3.87-12.61c-0.8-4.45-5.27-8.14-9.79-8.26
		c-5.59-0.15-10.25,2.03-14.48,5.42c-0.12,0.1-0.24,0.21-0.36,0.31c-2.46,1.96-2.91,1.99-5.66,0.49c-0.83-0.45-1.27-1.09-1.32-1.99
		c-0.08-1.24-0.06-2.48,0.01-3.71c0.2-3.71-0.33-7.28-2.39-10.44c-2.42-3.69-6.06-4.88-10.28-4.61c-1.97,0.13-3.84,0.72-5.64,1.53
		c-1.09,0.49-1.21,0.4-1.21-0.8c0-3.4,0-6.8,0-10.2c0-1.21,0.14-1.27,1.31-0.86c0.85,0.3,1.44,1,2.24,1.38
		c1.45,0.67,2.45,0.49,2.86-1.06c0.65-2.4,1.91-4.7,1.63-7.31c-0.15-1.4-0.66-2.64-2-3.33c-1.28-0.65-2.38-0.03-2.57,1.38
		c-0.1,0.71-0.1,1.43-0.46,2.08c-0.72,0.19-1.36-0.06-1.99-0.34c-0.81-0.34-1.04-0.96-1.03-1.81c0.03-2.97,0.02-5.95,0.01-8.92
		C1157.88,279.46,1157.96,279.06,1157.8,278.68z"/>
	<path class="st3" d="M990.28,492.01c7.5,0,15.01,0,22.51,0c0.46,5.21,0.93,10.41,1.38,15.62c0.35,3.98,0.67,7.95,1.02,11.93
		c0.21,2.42,0.42,4.85,0.68,7.27c0.1,0.95-0.01,1.38-1.17,1.47c-6.36,0.48-12.72,1.08-19.07,1.64c-1.96,0.17-2.02,0.19-2.2-1.79
		c-0.45-4.93-0.84-9.86-1.27-14.79c-0.53-6-1.07-12-1.61-18C990.45,494.24,990.37,493.13,990.28,492.01z"/>
	<path class="st4" d="M979.82,475.35c0,3.55,0,7.1,0.01,10.65c0.01,4,1.96,5.96,5.93,5.96c0.44,0,0.87,0.03,1.31,0.04
		c0.21,2.75,0.4,5.5,0.63,8.24c0.04,0.5,0.05,0.93-0.28,1.35c-5.53,6.93-11.07,13.85-16.58,20.8c-0.53,0.67-0.84,0.55-1.42,0.09
		c-5.24-4.19-10.49-8.37-15.79-12.5c-1-0.78-0.58-1.24-0.01-1.96c8.56-10.75,17.1-21.51,25.65-32.27c0.12-0.16,0.26-0.3,0.4-0.45
		C979.72,475.32,979.77,475.34,979.82,475.35z"/>
	<path class="st5" d="M967.21,357.2c-0.17,3.97-0.32,7.99-1.8,11.72c-0.84,2.12-1.86,4.21-2.9,6.27c-1.91,3.76-4.95,6.51-7.95,9.26
		c-1.86,1.7-4.28,2.68-6.5,3.91c-3.72,2.08-7.88,2.72-11.91,3.77c-2.17,0.56-4.01,1.55-5.62,3.17c-1.87,1.89-3.88,3.67-6.62,4.32
		c-5.71,1.34-10.47-1.42-11.38-7.51c-0.71-4.76-2.89-8.64-6.06-12.14c-2.61-2.89-4.72-6.14-5.88-9.92c-0.88-2.84-2.06-5.61-2.37-8.6
		c-0.26-2.54-0.19-5.1-0.03-7.65c0.16-2.52,0.79-4.97,1.68-7.28c1.45-3.78,2.81-7.65,5.69-10.69c0.6-0.63,1.03-1.42,1.62-2.06
		c3.85-4.29,8.46-7.38,14-9.12c2.31-0.73,4.63-1.45,7-1.86c3.5-0.6,7.02-0.56,10.52,0.26c3.57,0.84,7.08,1.81,10.37,3.52
		c3.44,1.79,6.34,4.25,9.05,6.97c3.56,3.57,5.73,8.02,7.5,12.63c0.89,2.32,1.29,4.82,1.38,7.35
		C967.03,354.73,967.28,355.96,967.21,357.2z"/>
	<path class="st6" d="M1235.52,274.3c-0.43,0.4-0.83,0.06-1.22-0.08c-15.9-5.9-31.8-11.8-47.7-17.69c-0.5-0.19-0.94-0.42-1.23-0.88
		c1.17-2.68,2.04-5.47,3.15-8.18c0.49-0.18,0.93-0.03,1.39,0.14c15.92,5.92,31.84,11.82,47.77,17.74c0.4,0.15,0.87,0.23,0.98,0.77
		C1237.8,268.91,1236.83,271.67,1235.52,274.3z"/>
	<path class="st6" d="M1230.02,322.31c0.45,1.36,0.88,2.73,1.37,4.07c0.25,0.67,0.16,1.01-0.57,1.21c-0.96,0.26-1.88,0.66-2.83,0.94
		c-0.52,0.15-0.72,0.44-0.66,0.94c-1.66-0.1-3.05,0.81-4.57,1.25c-1.8,0.52-1.92,0.5-2.51-1.23c-2.87-8.29-5.75-16.59-8.61-24.88
		c-0.17-0.49-0.41-0.96-0.35-1.5c-0.01-0.89-0.47-1.65-0.71-2.47c-0.13-0.45-0.38-0.89,0-1.33c2.32-0.97,4.72-1.73,7.1-2.53
		c0.91-0.3,1.81-0.62,2.52-1.32c1.44,1.61,1.71,3.72,2.39,5.65c2.43,6.83,4.76,13.7,7.14,20.55
		C1229.81,321.89,1229.92,322.1,1230.02,322.31z"/>
	<path class="st7" d="M855.34,407.16c0.07-3.06,1.37-5.7,2.95-8.21c3.65-5.79,8.65-10.25,14.13-14.25c3.53-2.58,7.3-4.7,11.32-6.38
		c3.99-1.67,8-1.56,11.94,0.07c5.25,2.18,9.18,5.86,11.66,10.98c0.87,1.79,1.51,3.69,1.23,5.76c-0.31,2.28-1.83,3.74-3.44,5.14
		c-2.91,2.53-5.87,5.02-8.71,7.64c-1.22,1.12-2.26,2.47-3.28,3.79c-1.73,2.23-1.65,4.09,0.14,6.93c2.05,3.24,5.09,5.44,8.3,7.43
		c1.4,0.86,2.86,1.58,4.41,2.13c0.44,0.16,0.94,0.29,0.96,0.92c0.01,0.56-0.44,0.71-0.82,0.91c-4.92,2.56-9.55,1.73-13.98-1.22
		c-2.56-1.7-4.52-3.99-6.17-6.57c-1.34-2.09-2.5-2.45-4.87-1.67c-1.33,0.44-2.57,1.06-3.8,1.74c-2.96,1.63-6.05,2.69-9.49,1.54
		c-2.57-0.86-4.42-2.68-6.11-4.65c-2.03-2.36-3.61-5.05-5.28-7.67C855.6,410.21,855.26,408.73,855.34,407.16z"/>
	<path class="st8" d="M1255.25,398.55c-0.56,3.96-1.88,7.96-5.45,10.87c-0.55,0.44-1.25,0.7-1.89,1.02
		c-0.96,0.49-1.76,1.18-2.08,2.21c-0.46,1.5-1.51,2.38-2.79,3.11c-1.22,0.69-1.26,1.44-0.13,2.19c0.44,0.3,0.7,0.69,0.44,1.22
		c-0.3,0.61-0.85,0.71-1.43,0.51c-1.58-0.56-3.14-1.14-4.71-1.74c-2.53-0.97-5.05-1.96-7.59-2.92c-0.61-0.23-1.18-0.49-0.99-1.24
		c0.2-0.79,0.85-0.86,1.54-0.66c0.46,0.13,0.92,0.35,1.29-0.17c0.36-0.5,0.19-0.97-0.06-1.46c-0.78-1.5-0.92-3.01-0.16-4.59
		c0.38-0.78,0.34-1.64-0.01-2.44c-2.51-5.81-0.57-10.74,3.23-15.14c1.71-1.98,4.18-2.75,6.84-2.97c2.96-0.25,5.7,0.24,8.18,1.87
		C1253.03,390.57,1255.09,393.79,1255.25,398.55z"/>
	<path class="st6" d="M979.82,475.35l-0.08,0.01c0,0-0.06-0.05-0.06-0.06c-0.01-4.51-0.01-9.02-0.02-13.53
		c-0.07-0.06-0.09-0.12-0.07-0.18c0.02-0.06,0.04-0.1,0.06-0.1c0.37-3.59,0.37-3.6-3.03-2.83c-12.27,2.75-24.55,5.49-36.82,8.27
		c-1.06,0.24-1.41,0.05-1.37-1.09c0.08-2.6,0.05-5.2,0.01-7.8c-0.01-0.85,0.19-1.19,1.13-1.19c10.6,0.07,21.19,0.06,31.79,0.17
		c2.48,0.03,4.96,0.02,7.43,0.1c0.74,0.02,0.99-0.23,0.95-0.96c-0.04-0.76,0.01-1.52,0.03-2.28c0.42,1.44,0.12,2.92,0.14,4.37
		c0.06,5.5,0.03,11,0.02,16.5C979.91,474.96,979.85,475.16,979.82,475.35z"/>
	<path class="st9" d="M979.64,461.5c0.01,0.09,0.01,0.19,0.02,0.28c-11.45,5.49-22.89,10.97-34.34,16.46
		c-1.51,0.73-3.02,1.46-4.51,2.23c-0.73,0.38-1.17,0.34-1.36-0.58c-0.58-2.77-1.18-5.53-1.82-8.29c-0.15-0.63,0.01-0.84,0.62-0.98
		c13.48-3.01,26.96-6.03,40.44-9.05C978.99,461.5,979.32,461.52,979.64,461.5z"/>
	<path class="st10" d="M979.14,470.61c-1.12,1.43-2.24,2.86-3.36,4.27c-7.97,10.03-15.96,20.05-23.91,30.09
		c-0.55,0.7-0.85,0.6-1.33,0c-1.69-2.17-3.37-4.35-5.13-6.47c-0.56-0.67-0.49-1.01,0.15-1.51c3.95-3.11,7.87-6.26,11.81-9.39
		c6.99-5.57,13.99-11.14,20.98-16.71c0.2-0.16,0.42-0.29,0.64-0.44C979.04,470.51,979.09,470.56,979.14,470.61z"/>
	<path class="st11" d="M979.18,465.98c-2.15,1.72-4.25,3.42-6.36,5.1c-9.28,7.39-18.57,14.77-27.83,22.2
		c-0.84,0.67-1.1,0.5-1.49-0.37c-1.11-2.44-2.26-4.86-3.48-7.24c-0.42-0.83-0.26-1.14,0.53-1.51c7.65-3.63,15.29-7.29,22.93-10.95
		c4.94-2.36,9.87-4.73,14.81-7.08C978.53,466.02,978.76,465.78,979.18,465.98z"/>
	<path class="st12" d="M1211.29,303.11c1.03,1.9,1.53,4.01,2.24,6.02c2.45,6.91,4.82,13.85,7.18,20.79c0.3,0.88,0.67,0.97,1.45,0.66
		c1.29-0.51,2.64-0.91,3.94-1.4c0.52-0.2,0.91-0.18,1.23,0.3c0.08,0.96,0.54,1.8,0.88,2.66c1.01,2.58,0.07,5.03-2.4,6
		c-2.98,1.17-5.49,0.22-6.46-2.54c-2.31-6.59-4.58-13.19-6.86-19.79c-0.76-2.19-1.47-4.39-2.28-6.56c-0.45-1.22-0.72-2.44-0.6-3.74
		C1209.84,304.49,1210.48,303.75,1211.29,303.11z"/>
	<path class="st13" d="M940.8,288.95c-0.4,0-0.83,0.05-0.95-0.48c-0.11-0.49,0.25-0.71,0.6-0.91c2.52-1.5,5.04-2.99,7.56-4.48
		c0.27-0.75,1.11-0.74,1.58-1.22c0.61-0.31,1.23-0.62,1.78-1.03c1.22-0.65,2.37-1.48,3.84-1.53c1.1,0.01,2.07,0.42,2.95,1.06
		c0.97,0.95,1.51,2.13,1.77,3.45c0,0.44-0.12,0.87-0.04,1.31c0,0.28-0.09,0.54-0.21,0.79c-0.24,0.43-0.45,0.89-0.94,1.11
		c-3.73,2.55-7.75,4.6-11.61,6.91c-2.77,1.66-5.58,3.25-8.38,4.87c-2.02,1.17-4.1,0.69-5.17-1.17c-1.08-1.89-0.47-3.88,1.55-5.09
		c1.88-1.12,3.76-2.24,5.64-3.37c2.66-1.69,5.45-3.16,7.91-4.65C946.18,285.84,943.61,287.61,940.8,288.95z"/>
	<path class="st12" d="M1188.52,247.47c0.05,0.22,0.18,0.42,0.08,0.68c-0.87,2.28-1.73,4.57-2.59,6.86
		c-0.12,0.31-0.28,0.57-0.63,0.63c-2.79-1.02-5.58-2.04-8.36-3.07c-1.56-0.58-3.11-1.19-4.67-1.79c-0.22-0.92-0.05-1.79,0.31-2.66
		c0.54-1.32,1.03-2.67,1.51-4.01c0.14-0.38,0.31-0.73,0.64-0.98c0.24-0.6,0.62-0.55,1.15-0.35
		C1180.14,244.37,1184.33,245.91,1188.52,247.47z"/>
	<path class="st14" d="M942.76,281.14c-2.15,2.2-3.73,2.41-6.36,0.83c-5.98-3.6-11.96-7.2-17.93-10.81c-1.65-1-2.26-2.23-1.98-3.87
		c0.25-1.44,1.36-2.59,2.81-2.94c1-0.24,1.89,0.03,2.74,0.54c1.78,1.06,3.56,2.13,5.34,3.19c1.67,0.65,3.09,1.74,4.63,2.64
		c1.87,1.09,3.7,2.25,5.58,3.33c-3.03-1.75-5.98-3.63-8.99-5.41c-0.51-0.3-1.16-0.66-0.69-1.48c0.59-0.45,1.05-0.03,1.52,0.24
		c3.27,1.95,6.54,3.91,9.8,5.87c0.78,0.09,1.37,0.59,2.03,0.93c2.48,1.55,3.1,2.93,2.49,5.52
		C943.54,280.28,943.33,280.83,942.76,281.14z"/>
	<path class="st13" d="M959.62,273.54c-1.53,1.03-3.09,1-4.78,0.31c-6.54-2.68-13.11-5.29-19.65-7.96
		c-2.15-0.88-2.98-2.77-2.19-4.73c0.77-1.91,2.62-2.76,4.62-2.03c1.95,0.71,3.87,1.51,5.8,2.28c2.11,0.57,4.09,1.53,6.11,2.34
		c2.03,0.81,4.05,1.64,6.07,2.46c0.94,0.38,1.67,0.91,1.97,1.91c0.14,0.49,0.14,0.99,0.03,1.49c-0.06,0.24-0.17,0.47-0.28,0.69
		c-0.27,0.5-0.61,0.94-1.11,1.22c-0.89,0.54-1.78,0.53-2.75,0.15c-3.75-1.48-7.47-3.06-11.22-4.54c-0.68-0.27-1.14-0.59-0.86-1.41
		c0.55-0.77,1.21-0.38,1.82-0.13c3.35,1.36,6.7,2.74,10.07,4.06c0.55,0.22,1.09,0.5,1.72,0.3c0.91-0.86,0.86-1.51-0.19-2.1
		c-0.69-0.39-1.42-0.69-2.18-0.91c-4.79-1.97-9.61-3.89-14.43-5.81c-0.41-0.16-0.81-0.35-1.23-0.47c-0.91-0.26-1.95,0.17-2.35,0.96
		c-0.42,0.83-0.15,1.81,0.67,2.44c0.52,0.4,1.13,0.58,1.72,0.82c1.29,0.53,2.6,1.02,3.89,1.56c2.41,1.34,5.06,2.12,7.57,3.22
		c2.48,1.09,5.01,2.03,7.57,2.91c0.54,0.18,1.07,0.31,1.63,0.13c0.47-0.16,0.88-0.41,1.19-0.8c0.53-0.7,0.94-1.44,0.85-2.36
		c-0.01-0.51-0.22-0.95-0.5-1.37c-1.28-1.23-2.96-1.69-4.53-2.35c-3.23-1.37-6.48-2.65-9.73-3.97c-0.4-0.16-0.88-0.22-0.99-0.75
		c-0.06-0.87,0.35-1.07,1.11-0.78c1.3,0.49,2.6,0.99,3.9,1.48c1.12-0.02,2.03,0.62,3.03,0.98c0.79,0.28,1.55,0.64,2.33,0.94
		c1.74,0.77,3.56,1.33,5.25,2.22c0.8,0.41,1.37,1.03,1.72,1.85c0.61,1.33,0.42,2.66-0.04,3.99
		C960.86,272.52,960.38,273.17,959.62,273.54z"/>
	<path class="st15" d="M1177.22,287.26c-0.43-0.56-0.2-0.94,0.33-1.26c0.75-0.44,1.49-0.91,2.23-1.37
		c3.42-1.96,6.85-3.91,10.27-5.88c1.55-0.9,3.1-1.05,4.62-0.04c1.51,1,2.23,2.47,2.15,4.28c-0.07,1.53-0.9,2.59-2.19,3.35
		c-2.3,1.35-4.59,2.71-6.89,4.07c-3.98,2.28-7.95,4.57-11.93,6.84c-2.32,1.32-4.83,0.26-5.45-2.27c-0.38-1.55,0.2-2.96,1.68-3.87
		c1.87-1.14,3.77-2.23,5.66-3.34c2.43-1.67,5.04-3.02,7.57-4.51c1.2-0.71,2.39-1.42,3.62-2.08c0.67-0.36,1.32-0.51,2.06-0.37
		c2.5,0.53,3.11,3.93,1.29,5.08c-2.81,1.89-5.84,3.4-8.71,5.16c-0.84,0.52-1.72,0.99-2.58,1.48c-0.29,0.17-0.56,0.29-0.9,0.22
		c-0.85-0.72-0.86-1.12,0.03-1.71c1.49-0.99,3.09-1.81,4.63-2.75c1.84-1.02,3.66-2.09,5.48-3.16c0.24-0.14,0.5-0.26,0.69-0.47
		c0.43-0.47,0.51-0.99,0.17-1.53c-0.34-0.53-0.84-0.55-1.37-0.31c-0.97,0.46-1.89,1.03-2.81,1.57c-1.41,0.83-2.82,1.65-4.24,2.44
		c-3.1,1.87-6.29,3.6-9.39,5.49c-0.45,0.27-0.9,0.54-1.09,1.06c-0.29,0.81-0.22,1.58,0.39,2.22c0.59,0.61,1.32,0.71,2.09,0.38
		c0.95-0.41,1.82-0.99,2.72-1.5c0.97-0.55,1.9-1.17,2.92-1.63c2.23-1.06,4.3-2.4,6.43-3.64c1.86-1.08,3.78-2.05,5.54-3.3
		c0.57-0.51,1.29-0.79,1.88-1.28c1.12-0.95,1.35-2.42,0.57-3.66c-0.77-1.21-2.11-1.59-3.45-0.99c-0.51,0.23-0.96,0.58-1.49,0.78
		c-3.22,1.59-6.24,3.53-9.35,5.31c-0.62,0.36-1.27,0.67-1.86,1.09C1178.14,287.46,1177.69,287.59,1177.22,287.26z"/>
	<path class="st16" d="M970.33,298.11c0.32-0.43,0.19-0.92,0.19-1.39c0.01-4.43,0-8.86,0-13.29c0-0.32,0-0.64,0.01-0.96
		c0.01-0.42,0.1-0.85,0.62-0.87c0.52-0.02,0.64,0.38,0.64,0.82c-0.01,5.23,0.05,10.46-0.06,15.69c-0.04,2.01-2.1,3.4-4.52,3.35
		c-2.23-0.05-4.02-1.55-4.11-3.55c-0.07-1.51-0.03-3.03-0.03-4.55c-0.01-1.87,0.07-3.75-0.18-5.62c-0.22-0.54-0.08-1.11-0.18-1.66
		c0.08-1.77,0.12-3.54-0.04-5.32c0.06-0.56-0.01-1.13,0.21-1.66c0.17-1.39,0.17-2.78,0.2-4.18c0.04-1.97,1.48-3.27,3.53-3.26
		c2.05,0.01,3.5,1.32,3.5,3.29c0.01,6.91-0.01,13.82-0.03,20.73c-0.35,1.29-1.36,2.02-2.72,1.99c-1.31-0.03-2.59-1.01-2.79-2.19
		c-0.27-1.63-0.09-3.27-0.13-4.9c-0.02-0.76,0-1.52,0-2.28c0.01-0.16-0.2,0.03-0.04-0.02c0.02-0.01,0.03,0.03,0.04,0.1
		c0.03,2.79-0.08,5.58,0.2,8.37c0.14,1.35,0.52,2.41,1.88,2.9c1.19,0.43,2.25,0.07,3.27-1.09
		C969.96,298.4,970.1,298.2,970.33,298.11z"/>
	<path class="st17" d="M1180.82,223.89c-0.47-0.55-0.18-0.95,0.26-1.31c3.83-3.14,7.62-6.32,11.49-9.4c1.89-1.5,4.39-1.04,5.94,0.91
		c1.55,1.95,1.4,4.44-0.47,5.99c-5.65,4.69-11.32,9.36-17.01,14.01c-1.68,1.37-3.77,1.14-5.11-0.47c-1.31-1.58-1.1-3.73,0.54-5.11
		c1.52-1.29,3.07-2.55,4.61-3.82c2.02-2.03,4.35-3.7,6.55-5.52c1.5-1.24,2.88-2.63,4.57-3.62c1.25-0.54,2.28-0.07,3.15,0.8
		c0.9,0.9,1.11,2,0.59,3.19c-0.24,0.46-0.57,0.84-0.98,1.18c-3.17,2.6-6.32,5.22-9.5,7.8c-0.32,0.26-0.6,0.53-1.06,0.4
		c-0.69-0.83-0.67-1.2,0.2-1.95c1.75-1.52,3.58-2.94,5.35-4.44c0.97-0.83,1.96-1.64,2.97-2.42c0.35-0.27,0.67-0.57,0.93-0.93
		c0.38-0.51,0.41-1.05-0.05-1.52c-0.43-0.45-0.94-0.39-1.42-0.07c-0.6,0.4-1.12,0.9-1.67,1.36c-4.34,3.53-8.64,7.1-12.95,10.66
		c-1.08,0.89-1.26,1.95-0.51,2.91c0.74,0.95,1.59,1.1,2.61,0.39c1.48-1.03,2.77-2.29,4.19-3.39c0.22-0.17,0.42-0.37,0.67-0.49
		c1.69-1.07,3.14-2.44,4.67-3.71c2.15-1.78,4.4-3.44,6.4-5.39c0.3-0.32,0.66-0.57,1-0.86c1.36-1.16,1.51-2.67,0.41-4.02
		c-1.07-1.31-2.65-1.44-4.02-0.29c-0.4,0.33-0.78,0.68-1.25,0.91c-3.29,2.54-6.42,5.26-9.66,7.87
		C1181.84,223.87,1181.44,224.31,1180.82,223.89z"/>
	<path class="st18" d="M954.48,240.98c-4.19,0-8.38,0-12.57,0c-0.28,0-0.56,0-0.84,0c-0.42,0-0.72-0.18-0.75-0.61
		c-0.04-0.52,0.34-0.66,0.78-0.69c0.12-0.01,0.24-0.01,0.36-0.01c4.79-0.03,9.58-0.09,14.36-0.08c2.99,0.01,4.84,2.34,4.31,5.3
		c-0.39,2.19-1.94,3.48-4.16,3.52c-0.56,0.01-1.11,0.07-1.67,0.1c-1.76,0.02-3.51,0.03-5.27,0c-1.28-0.02-2.52,0.53-3.79,0.22
		c-1.11-0.27-2.21-0.23-3.32-0.16c-2.55-0.01-5.11-0.01-7.66-0.02c-2.39-0.01-3.9-1.42-3.89-3.6c0.02-2.2,1.48-3.58,3.89-3.6
		c6.18-0.04,12.36-0.06,18.55-0.1c0.65,0,1.27,0.12,1.89,0.24c1.19,0.44,1.85,1.53,1.7,2.79c-0.19,1.56-1.18,2.54-2.71,2.67
		c-4.12,0-8.23,0-12.35,0c-0.75,0-1.52,0.03-1.43-1.08c0.4-0.82,1.18-0.71,1.88-0.71c3.35-0.02,6.71-0.01,10.06-0.01
		c0.48,0,0.96,0.02,1.43-0.1c0.54-0.14,0.97-0.43,0.94-1.06c-0.03-0.64-0.47-0.88-1.04-0.95c-0.32-0.04-0.64-0.03-0.96-0.03
		c-5.71,0-11.42,0-17.13,0c-0.32,0-0.64,0-0.96,0.04c-0.93,0.12-1.73,0.47-1.95,1.49c-0.21,0.99,0.2,1.71,1.12,2.13
		c0.37,0.18,0.77,0.2,1.17,0.2c6.39,0.06,12.78,0.14,19.17,0.09c0.88-0.01,1.75-0.06,2.62-0.19c2.21-0.41,2.45-2.36,2.05-3.85
		c-0.27-1.02-1.11-1.5-2.14-1.6C955.62,241.25,955.01,241.34,954.48,240.98z"/>
	<path class="st19" d="M960.21,317.75c0.51-0.47,0.92-0.24,1.34,0.16c3.6,3.4,7.25,6.76,10.81,10.2c1.66,1.6,1.53,4.19-0.15,5.93
		c-1.78,1.84-4.23,2.05-5.99,0.4c-5.35-4.99-10.67-10-15.98-15.03c-1.7-1.61-1.78-3.67-0.32-5.19c1.54-1.61,3.51-1.63,5.3,0
		c1.54,1.4,3.05,2.83,4.57,4.24c1.32,0.91,2.43,2.07,3.57,3.18c1.89,1.84,3.9,3.55,5.73,5.44c0.39,0.4,0.78,0.81,1.02,1.32
		c0.51,1.2,0.09,2.23-0.74,3.05c-0.83,0.82-1.85,1.25-3.05,0.72c-0.97-0.43-1.68-1.21-2.41-1.92c-2.54-2.46-5.16-4.83-7.7-7.29
		c-0.34-0.33-0.58-0.64-0.46-1.14c0.73-0.93,1.43-0.46,2.01,0.13c1.47,1.47,3.04,2.83,4.53,4.28c1.26,1.23,2.55,2.42,3.86,3.59
		c0.55,0.49,1.15,0.85,1.78,0.22c0.61-0.61,0.38-1.27-0.16-1.8c-1.72-1.72-3.53-3.36-5.3-5.03c-2.5-2.36-5.03-4.67-7.49-7.07
		c-0.43-0.42-0.84-0.86-1.39-1.13c-1-0.51-1.95-0.35-2.6,0.44c-0.67,0.82-0.64,1.66,0.24,2.57c1.05,1.09,2.07,2.23,3.27,3.16
		c0.35,0.27,0.67,0.57,0.92,0.94c1.02,1.34,2.37,2.35,3.58,3.49c2.28,2.16,4.47,4.42,6.92,6.4c0.53,0.42,1.04,0.86,1.57,1.29
		c1.07,0.87,2.15,0.79,3.23-0.17c1.27-1.14,1.52-2.27,0.76-3.47c-0.41-0.64-1.02-1.12-1.53-1.67c-2.7-2.86-5.68-5.44-8.52-8.15
		C960.84,319.28,959.84,318.89,960.21,317.75z"/>
	<path class="st18" d="M1212.96,447.12c-1.18,2.55-3.21,3.57-5.69,2.88c-1.9-0.53-3.06-1.96-3.06-3.94
		c-0.02-7.39-0.02-14.78,0-22.17c0-1.73,0.96-2.99,2.48-3.41c1.71-0.47,3.37,0.18,4.25,1.65c0.1,0.17,0.21,0.34,0.31,0.5
		c0.15,0.16,0.14,0.36,0.14,0.56c0,6.79,0.21,13.58,0.12,20.37c-0.02,1.56-0.98,2.62-2.52,2.83c-1.45,0.2-2.87-0.77-3.23-2.2
		c-0.02-4.32,0-8.63-0.01-12.95c0-0.36-0.04-0.72,0.1-1.07c0.91-0.44,1.36-0.29,1.6,0.56c0.13,0.47,0.1,0.95,0.1,1.43
		c0,3.39-0.01,6.78,0.01,10.18c0.01,0.78-0.09,1.7,1.02,1.87c0.72,0.11,1.11-0.56,1.11-1.91c0.01-5.83,0.01-11.65,0-17.48
		c0-0.2-0.01-0.4-0.02-0.6c-0.08-0.93-0.38-1.75-1.38-2.03c-0.97-0.28-1.71,0.12-2.22,0.97c-0.21,0.36-0.23,0.76-0.23,1.16
		c-0.09,6.59-0.14,13.17-0.08,19.76c0.01,0.94-0.08,1.92,0.31,2.83c0.81,1.27,1.88,1.74,3.23,1.42c1.17-0.27,1.94-1.3,2.04-2.77
		c0.32-4.42,0.07-8.85,0.15-13.28c0.01-0.4-0.01-0.8,0.02-1.2c0.03-0.51,0.28-0.85,0.8-0.86c0.56-0.01,0.74,0.37,0.74,0.88
		c0,0.12,0,0.24,0,0.36c0,4.99,0,9.97,0,14.96C1213.07,446.66,1213.12,446.91,1212.96,447.12z"/>
	<path class="st20" d="M979.65,271.14c0,0.51,0.01,1.02,0.01,1.53c-3.16-2.3-6.07-4.93-9.13-7.35c-0.59-0.47-1.19-0.95-1.74-1.47
		c-1.76-1.65-1.85-4.15-0.25-6.02c1.6-1.86,4.1-2.17,6.01-0.69c1.54,1.2,3.03,2.48,4.54,3.72c0.15,0.12,0.3,0.22,0.48,0.35
		c0.28-0.53,0.16-1.01,0.16-1.47c0.01-14.22,0.01-28.44,0.01-42.66c0-0.51-0.13-1.04,0.15-1.52c0.01,0.84,0.04,1.68,0.04,2.52
		c0,13.64,0,27.28,0,40.91c0,2.53-0.32,5.06-0.01,7.59c0.16,1.32-0.17,2.62-0.25,3.93c-0.57,0.1-0.85-0.36-1.2-0.64
		c-2.37-1.91-4.7-3.89-7.08-5.78c-0.93-1.08-1.06-2-0.44-3.05c0.86-1.45,2.09-2.01,3.74-1.72c-0.47-0.24-0.82-0.64-1.24-0.93
		c-1.23-0.85-2.59-0.69-3.56,0.4c-1.16,1.3-1.18,2.51-0.03,3.71c0.5,0.52,0.97,1.06,1.49,1.56c2.55,2.02,5.01,4.14,7.55,6.16
		C979.22,270.48,979.44,270.8,979.65,271.14z"/>
	<path class="st21" d="M941.93,248.57c2.58-0.32,5.16-0.07,7.74-0.13c1.55-0.04,3.1,0.04,4.64,0.07c-2.1,0-4.2,0-6.54,0
		c2.18,2.18,3.65,4.58,5.38,6.77c0.19,0.24,0.47,0.42,0.7,0.63c0.34-0.04,0.51,0.2,0.67,0.42c2.18,2.89,4.39,5.75,6.49,8.69
		c0.12,0.16,0.2,0.34,0.27,0.53c0.16,0.8,0.62,1.63-0.23,2.32c-0.4-0.66-0.95-1.19-1.51-1.71c-0.53-0.37-0.92-0.88-1.3-1.39
		c-3.25-4.34-6.51-8.68-9.77-13.02c-0.29-0.38-0.56-0.78-0.93-1.09c-0.82-0.68-1.87-0.68-2.62-0.01c-0.75,0.66-0.87,1.53-0.26,2.47
		c0.82,1.27,1.8,2.44,2.7,3.66c0.33,0.45,0.7,0.87,0.95,1.38c0.18-0.76,0.62-1.02,1.33-0.65c0.43,0.22,0.75,0.6,1.04,0.98
		c1.11,1.46,2.22,2.92,3.3,4.4c0.22,0.31,0.57,0.6,0.32,1.06c-1.83-0.59-3.6-1.32-5.33-2.15c-1.68-2.27-3.34-4.55-5.03-6.81
		c-2.01-2.67-1.9-4.01,0.61-6.28C943.63,248.44,942.76,248.73,941.93,248.57z"/>
	<path class="st22" d="M1017.36,190.79c-0.08-0.79-0.15-1.59-0.23-2.38c-0.07-0.63-0.14-1.23,0.81-1.18
		c0.45,0.02,0.47-0.31,0.44-0.67c-0.05-0.52-0.08-1.04-0.11-1.55c-0.12-2.09,0.98-3.4,3-3.57c2.29-0.19,3.53,0.78,3.8,2.97
		c0.25,0.72-0.12,1.51,0.21,2.22c1.22-0.15,1.66,0.42,1.48,1.58c-0.04,0.26-0.04,0.55,0.2,0.76c0.17,1.19,0.04,1.45-1.1,1.61
		c-1.42,0.2-2.86,0.19-4.29,0.33c-0.91,0.09-1.83,0.07-2.74,0.21C1018.31,191.19,1017.79,191.18,1017.36,190.79z"/>
	<path class="st6" d="M1174.8,243.13c-0.66,1.86-1.3,3.74-2.01,5.58c-0.26,0.68-0.42,1.35-0.45,2.07c-0.08-0.88-0.77-1.26-1.38-1.71
		c-1.58-1.15-3.12-2.35-4.75-3.43c-0.72-0.47-1.11-1.2-1.73-1.74c-0.5-0.43-0.07-1.12,0.64-1.25c1.41-0.25,2.81-0.06,4.21,0.03
		C1171.15,242.82,1172.98,242.99,1174.8,243.13z"/>
	<path class="st20" d="M979.97,441.85c-0.02,3-0.02,6-0.06,9c0,0.42,0.18,0.88-0.17,1.26c0-4.12-0.01-8.24-0.01-12.35
		c0-55.02,0-110.05,0-165.07c0-0.68-0.05-1.36-0.07-2.03c0.51,0.45,0.26,1.06,0.26,1.58c0.01,55.19,0.01,110.39,0.01,165.58
		C979.93,440.49,979.95,441.17,979.97,441.85z"/>
	<path class="st6" d="M1017.36,190.79c2.76-0.17,5.52-0.34,8.28-0.52c0.79-0.05,1.49-0.24,1.32-1.3c0.36,2.1,0.39,4.22,0.47,6.34
		c-0.2-0.77-0.65-1-1.45-0.93c-2.46,0.22-4.93,0.37-7.4,0.51c-0.56,0.03-0.78,0.24-0.76,0.8c0.03,0.6-0.01,1.19-0.02,1.79
		C1017.51,195.26,1017.38,193.03,1017.36,190.79z"/>
	<path class="st2" d="M1163.76,193.12c-0.02,0.6-0.36,1.01-1.09,1.04c-0.2,0.01-0.4,0.03-0.6,0c-1.22-0.19-1.85,0.13-1.71,1.55
		c0.08,0.78-0.32,1.57-1.28,1.54c-0.97-0.03-1.36-0.7-1.31-1.63c0.01-0.16-0.02-0.32,0.01-0.48c0.12-0.89-0.16-1.38-1.16-1.23
		c-0.45,0.07-0.86-0.12-1.23-0.37c-0.55-0.37-0.59-0.93-0.45-1.49c0.13-0.52,0.53-0.77,1.07-0.77c0.32,0,0.64-0.03,0.96,0
		c1.01,0.12,1.38-0.33,1.29-1.31c-0.1-0.99,0.22-1.62,1.37-1.59c0.96,0.02,1.27,0.59,1.22,1.39c-0.12,1.74-0.15,1.77,1.7,1.96
		C1163.36,191.83,1163.77,192.18,1163.76,193.12z"/>
	<path class="st2" d="M1147.92,179.23c-0.24,0.99,0.24,1.36,1.35,1.27c0.87-0.07,1.57,0.22,1.55,1.34c-0.02,1.1-0.67,1.42-1.58,1.26
		c-1.27-0.21-1.72,0.42-1.76,1.52c-0.04,0.91-0.39,1.45-1.38,1.37c-1.08-0.08-1.07-0.86-1.07-1.66c0-1.58-0.01-1.58-1.67-1.7
		c-0.88-0.06-1.52-0.49-1.38-1.41c0.14-0.91,0.82-1.41,1.76-1.13c1.14,0.35,1.53,0.07,1.6-1.17c0.09-1.63,0.91-2.19,1.98-1.63
		C1147.91,177.62,1147.92,177.65,1147.92,179.23z"/>
	<path class="st2" d="M1138.21,200.16c-0.89-0.08-1.04-0.72-1.08-1.44c-0.1-1.72-0.1-1.73-1.81-1.92c-0.8-0.09-1.1-0.54-1.07-1.3
		c0.04-0.84,0.57-1.19,1.32-1.25c0.27-0.02,0.54,0.1,0.82,0.13c0.85,0.11,1.3-0.21,1.22-1.13c-0.03-0.28-0.04-0.57,0.02-0.84
		c0.19-0.74,0.65-1.23,1.45-1.12c0.8,0.11,1.1,0.72,1.1,1.47c0,0.31-0.12,0.62-0.16,0.94c-0.08,0.64,0.14,0.99,0.85,0.94
		c0.39-0.03,0.81-0.02,1.18,0.09c0.65,0.2,1.19,0.59,1.05,1.38c-0.12,0.7-0.58,1.11-1.32,1.16c-0.2,0.01-0.4,0.03-0.6,0
		c-1.03-0.14-1.54,0.15-1.45,1.33C1139.81,199.65,1139.14,200.23,1138.21,200.16z"/>
	<path class="st2" d="M1228.64,419.42c1.45,0.54,2.91,1.07,4.36,1.61c1.87,0.7,3.73,1.4,5.59,2.11c0.41,0.15,0.88,0.26,1.13,0.64
		c0.23,0.34,0.22,0.8,0,1.14c-0.34,0.55-0.97,0.48-1.4,0.26c-0.67-0.34-1.14-0.17-1.75,0.14c-2.08,1.05-4.75,0.1-6.21-2.31
		c-0.5-0.81-1.01-1.37-1.94-1.59c-0.64-0.15-0.9-0.63-0.81-1.27C1227.7,419.57,1228.13,419.5,1228.64,419.42z"/>
	<path class="st19" d="M941.05,274.32c-0.69-0.22-1.26-0.65-1.84-1.06c1.02-0.56,2.05-0.43,3.09-0.05c1.89,0.7,3.79,1.39,5.68,2.08
		c0.35,0.08,0.7,0.01,1.05,0.14c3.77,1.43,7.54,2.84,11.32,4.25c0.3,0.11,0.57,0.28,0.84,0.47c1.36,1.23,1.42,3.42,0.11,4.64
		c-0.45,0.41-0.95,0.74-1.61,0.44c-0.14-0.46-0.1-0.91,0.03-1.36c0.95-1.72,0.92-1.84-0.83-2.78c-0.31-0.17-0.57-0.44-0.92-0.53
		c-0.84-0.55-1.75-0.94-2.76-1.01c-3-0.65-5.78-1.96-8.66-2.98C944.68,275.9,942.82,275.22,941.05,274.32z"/>
	<path class="st16" d="M960.95,265.36c-2.36-3.15-4.73-6.3-7.09-9.46c-0.08-0.18-0.16-0.36-0.24-0.55c-0.18-0.4-0.23-0.81,0.22-1.04
		c0.39-0.2,0.68,0.08,0.91,0.37c1.09,1.43,2.17,2.86,3.24,4.3c1.82,2.43,3.6,4.88,5.46,7.27c1.14,1.48,1.47,3.02,0.54,4.66
		c-0.94,1.68-2.37,2.66-4.37,2.62c0.44-0.54,0.87-1.09,1.31-1.63c0.34-0.23,0.56-0.56,0.83-0.85c1.36-1.44,1.43-2.42,0.28-3.99
		C961.64,266.51,961.32,265.92,960.95,265.36z"/>
	<path class="st23" d="M1205.97,444.27c0.68,1.34,1.85,1.99,3.16,1.75c1.32-0.25,2.22-1.16,2.23-2.57c0.04-6.62,0.01-13.23,0-19.85
		c0-0.32-0.07-0.63-0.11-0.95c0.4,0.29,0.26,0.73,0.26,1.1c0.01,1.83,0.02,3.67,0,5.5c0,0.56-0.06,1.03,0.79,0.85
		c0.57-0.12,0.9,0.21,0.9,0.82c0,5.26-0.01,10.53-0.02,15.79c0,0.14-0.14,0.27-0.22,0.4c0.02-5.26,0.04-10.53,0.06-15.79
		c0-0.5-0.01-1.05-0.69-1.01c-0.67,0.04-0.62,0.61-0.62,1.09c0,4.71,0,9.41,0,14.12c0,1.75-0.71,2.82-2.11,3.21
		c-1.61,0.45-2.96-0.12-3.83-1.62C1205.69,446.16,1205.32,445.18,1205.97,444.27z"/>
	<path class="st24" d="M1229.14,416.18c1.37,0.5,2.75,0.99,4.13,1.51c2.42,0.92,4.82,1.88,7.24,2.79c0.73,0.27,1.25,0.64,0.95,1.48
		c-0.3,0.84-0.95,0.65-1.59,0.41c-3.42-1.31-6.85-2.6-10.26-3.92c-0.44-0.17-0.85-0.43-1.23-0.71c-0.32-0.24-0.37-0.62-0.2-0.98
		C1228.35,416.39,1228.66,416.15,1229.14,416.18z"/>
	<path class="st25" d="M970.33,298.11c-0.54,1.48-1.86,2.31-3.34,2.07c-1.54-0.24-2.63-1.31-2.65-2.79
		c-0.05-3.35-0.01-6.71,0.22-10.06c0,1.87-0.01,3.73,0,5.6c0.01,0.68-0.03,1.35,0.1,2.03c0.23,1.18,0.9,1.99,2.01,2.31
		c1.17,0.33,2.21-0.01,2.98-1.01c0.15-0.19,0.29-0.38,0.43-0.57C970.56,296.45,970.2,297.31,970.33,298.11z"/>
	<path class="st19" d="M962.89,279.11c0.21,0.48,0.25,0.95,0,1.43c-0.61,0.43-1.04-0.12-1.55-0.27c-3.22-1.46-6.6-2.5-9.88-3.8
		c-0.77-0.31-1.56-0.57-2.33-0.89c-0.67-0.28-1.05-0.7-0.58-1.45c0.54-0.2,1.01,0.04,1.49,0.22
		C954.32,275.94,958.61,277.52,962.89,279.11z"/>
	<path class="st24" d="M1031.45,164.94c-0.97-0.18-2.16-0.04-2.23-1.13c-0.06-0.96,1.04-1.15,1.86-1.33
		c1.78-0.38,3.57-0.74,5.35-1.12c0.65-0.14,1.26,0,1.51,0.63c0.26,0.66-0.27,1-0.79,1.28
		C1035.33,164.25,1033.32,164.54,1031.45,164.94z"/>
	<path class="st24" d="M1028.75,178.59c-0.68-0.09-1.31,0.16-1.5-0.55c-0.18-0.68,0.32-1.14,0.81-1.31c2.2-0.77,4.24-2.02,6.62-2.24
		c0.5-0.05,1.02-0.01,1.24,0.51c0.23,0.54-0.18,0.91-0.54,1.21c-0.46,0.39-0.99,0.68-1.57,0.85
		C1032.07,177.57,1030.38,178.31,1028.75,178.59z"/>
	<path class="st8" d="M1036.44,167.02c0.53-0.02,0.98,0.1,1.21,0.6c0.25,0.53-0.17,0.84-0.5,1.09c-1.73,1.27-3.68,2-5.81,2.15
		c-0.55,0.04-1.12-0.18-1.25-0.86c-0.12-0.62,0.28-0.88,0.75-1.2C1032.54,167.65,1034.51,167.4,1036.44,167.02z"/>
	<path class="st8" d="M1040.42,173.73c-0.49-0.04-0.93-0.17-1.13-0.61c-0.21-0.47-0.16-0.99,0.31-1.28c1.98-1.21,4.11-2.03,6.4-2.39
		c0.38-0.06,0.84-0.08,1.03,0.39c0.19,0.47-0.18,0.75-0.47,1C1044.77,172.37,1042.63,173.17,1040.42,173.73z"/>
	<path class="st23" d="M954.48,240.98c0.47-0.02,0.95-0.06,1.42-0.05c1.67,0.03,2.77,1.01,2.98,2.63c0.21,1.64-0.61,2.93-2.2,3.44
		c-0.9-0.01-1.83,0.42-2.67-0.25c2.5-1.03,2.82-3.38,0.69-5.25C954.63,241.32,954.56,241.15,954.48,240.98z"/>
	<path class="st24" d="M1049.94,166.82c-0.67,0.01-1.36,0.03-1.57-0.77c-0.19-0.73,0.38-1.13,0.91-1.38
		c1.66-0.76,3.35-1.48,5.14-1.9c0.49-0.12,1.21-0.31,1.49,0.37c0.25,0.61-0.35,0.99-0.74,1.22
		C1053.51,165.36,1051.98,166.64,1049.94,166.82z"/>
	<path class="st26" d="M1220.2,295.46c-0.06,0.34,0,0.74-0.45,0.89c-2.94,1.01-5.88,2.02-8.82,3.03c-0.1,0.03-0.23-0.05-0.35-0.07
		c-0.59-0.9-0.46-1.41,0.67-1.77c2.62-0.82,5.2-1.74,7.78-2.68C1219.74,294.61,1220.09,294.72,1220.2,295.46z"/>
	<path class="st24" d="M1044.23,161.51c0.74,0.01,1.19-0.06,1.37,0.41c0.18,0.48-0.18,0.79-0.5,0.98c-1.92,1.14-3.99,1.98-6.04,2.85
		c-0.34,0.15-0.6-0.07-0.83-0.32c-0.29-0.32-0.11-0.62,0.06-0.87c0.26-0.35,0.54-0.71,0.88-0.97
		C1040.76,162.4,1042.71,162.06,1044.23,161.51z"/>
	<path class="st8" d="M1229.51,226.56c1.46,0,2.43,0.93,2.41,2.31c-0.01,0.89-1.02,1.96-1.87,1.99c-1.15,0.05-2.43-1.26-2.44-2.49
		C1227.6,227.07,1228.13,226.56,1229.51,226.56z"/>
	<path class="st24" d="M917.04,322.07c-0.01,0.91-1.34,2.2-2.23,2.15c-0.86-0.05-1.85-1.13-1.85-2.03c0-1.27,1.2-2.53,2.41-2.5
		C916.34,319.71,917.05,320.73,917.04,322.07z"/>
	<path class="st8" d="M1183.71,488.64c1.15,0.05,2.15,1,2.13,2c-0.03,1.09-1.05,2.08-2.1,2.04c-1.21-0.04-2.52-1.3-2.45-2.33
		C1181.35,489.52,1182.67,488.59,1183.71,488.64z"/>
	<path class="st24" d="M1024.89,169.88c0.74,0.08,1.32-0.13,1.52,0.49c0.17,0.53-0.3,0.81-0.62,1.06c-1.45,1.11-3.16,1.66-4.91,2.07
		c-0.55,0.13-1.07-0.06-1.28-0.63c-0.21-0.58,0.34-0.74,0.68-0.97C1021.77,170.89,1023.48,170.41,1024.89,169.88z"/>
	<path class="st24" d="M1040.14,179.77c-0.59-0.03-1.12,0.11-1.33-0.4c-0.24-0.58,0.28-0.87,0.64-1.15
		c1.09-0.86,2.16-1.76,3.61-1.95c0.27-0.04,0.57-0.14,0.82-0.07c0.47,0.14,1.13,0.07,1.25,0.72c0.1,0.56-0.41,0.83-0.79,1.09
		C1043.02,178.92,1041.59,179.58,1040.14,179.77z"/>
	<path class="st8" d="M1214.88,239.84c-0.03-0.9,0.57-1.52,1.45-1.52c1.26,0,2.55,0.91,2.61,1.84c0.07,1.03-0.88,2.14-1.84,2.16
		C1216.18,242.34,1214.91,240.92,1214.88,239.84z"/>
	<path class="st24" d="M901.67,313.83c0,1.37-0.67,2.22-1.77,2.24c-0.97,0.02-1.82-0.82-1.82-1.79c0-1.16,1.06-2.3,2.1-2.28
		C901.24,312.02,901.68,312.56,901.67,313.83z"/>
	<path class="st24" d="M1228.32,239.48c0.03,0.95-1.12,2.34-1.98,2.4c-0.9,0.06-1.82-1.13-1.85-2.4c-0.02-0.84,0.85-1.61,1.85-1.64
		C1227.37,237.81,1228.3,238.58,1228.32,239.48z"/>
	<path class="st24" d="M1209.36,228.16c-0.02-1.13,0.51-1.5,2.26-1.59c0.88-0.05,1.7,0.71,1.82,1.67c0.12,1.01-0.36,1.52-1.62,1.69
		C1210.15,230.15,1209.38,229.59,1209.36,228.16z"/>
	<path class="st8" d="M1206.65,237.12c1.11,0.01,1.99,0.7,1.99,1.58c0,0.87-1.2,2.22-1.99,2.25c-0.83,0.03-2.09-1.39-2.05-2.3
		C1204.64,237.79,1205.54,237.11,1206.65,237.12z"/>
	<path class="st24" d="M1170.95,500.53c0,0.68-1.57,2.27-2.22,2.26c-0.87-0.01-2.09-1-2.08-1.68c0.01-0.69,1.49-2.13,2.18-2.13
		C1169.89,498.98,1170.95,499.77,1170.95,500.53z"/>
	<path class="st24" d="M1182,507.24c0,0.98-0.73,1.78-1.66,1.8c-1.16,0.02-2.39-0.91-2.42-1.85c-0.04-1,0.91-1.68,2.41-1.74
		C1181.21,505.41,1182,506.26,1182,507.24z"/>
	<path class="st24" d="M905.52,322.62c-0.03,1.15-0.71,1.95-1.72,1.83c-1.44-0.17-2.2-0.62-2.12-1.88c0.05-0.75,1.33-1.9,2.15-1.91
		C904.73,320.64,905.54,321.58,905.52,322.62z"/>
	<path class="st8" d="M1188.97,501.39c0,1.13-0.69,2.13-1.47,2.11c-0.79-0.01-2.13-1.35-2.13-2.14c0-0.93,1.04-1.89,2.09-1.92
		C1188.51,499.42,1188.97,500.01,1188.97,501.39z"/>
	<path class="st8" d="M1172.87,512.06c-0.01,0.99-0.76,1.77-1.69,1.77c-1.05,0-2.16-0.97-2.14-1.86c0.03-0.96,1.23-2.02,2.23-1.96
		C1172.2,510.07,1172.89,510.95,1172.87,512.06z"/>
	<path class="st24" d="M909.14,302.88c0.82,0.01,1.7,1.27,1.66,2.37c-0.03,0.78-1.03,1.89-1.7,1.87c-0.68-0.01-1.92-1.62-1.9-2.48
		C907.23,303.89,908.35,302.86,909.14,302.88z"/>
	<path class="st24" d="M899.53,304.26c0.05,0.96-0.31,1.74-1.34,1.7c-1.33-0.05-2.3-0.52-2.28-1.7c0.02-0.98,0.94-2.07,1.86-2.1
		C898.79,302.12,899.51,302.99,899.53,304.26z"/>
	<path class="st27" d="M1235.52,274.3c0.85-2.8,1.78-5.58,3.13-8.19c0.75,0.11,0.99,0.41,0.68,1.2c-0.85,2.14-1.62,4.3-2.41,6.46
		C1236.65,274.49,1236.27,274.87,1235.52,274.3z"/>
	<path class="st24" d="M1220.82,224.88c-1.09,0.02-2.05-1.01-2.07-2.31c-0.01-0.82,0.37-1.33,1.31-1.3
		c1.08,0.04,2.45,1.12,2.48,2.01C1222.58,224.08,1221.73,224.86,1220.82,224.88z"/>
	<path class="st24" d="M1219.92,230.9c-0.07-0.89,0.24-1.49,1.32-1.47c1.26,0.02,2.28,0.95,2.29,2.1c0.01,0.97-0.58,1.42-1.4,1.46
		C1220.72,233.04,1219.91,232.24,1219.92,230.9z"/>
	<path class="st24" d="M915.36,311.95c0.01-1.3,0.8-2.09,2.04-2.13c0.96-0.03,1.27,0.53,1.3,1.33c0.04,1.14-0.96,2.49-1.8,2.49
		C915.93,313.65,915.35,313.01,915.36,311.95z"/>
	<path class="st24" d="M1175.04,491.43c0,0.91-0.86,1.78-1.72,1.75c-0.78-0.02-2.13-1.23-2.12-1.91c0.01-1.04,0.73-1.37,1.57-1.4
		C1174.38,489.8,1175.05,490.3,1175.04,491.43z"/>
	<path class="st24" d="M1178.67,495.62c1.01,0.02,1.92,0.8,1.89,1.62c-0.04,1.01-1,1.77-2.2,1.72c-0.77-0.03-1.62-0.95-1.63-1.78
		C1176.71,496.38,1177.67,495.6,1178.67,495.62z"/>
	<path class="st24" d="M908.39,315.39c0-1.23,0.63-1.96,1.84-1.91c0.98,0.04,1.31,0.72,1.29,1.64c-0.02,1.28-0.7,2.17-1.7,2.17
		C908.85,317.28,908.4,316.68,908.39,315.39z"/>
	<path class="st28" d="M943.94,261.11c2.35,1.28,4.91,2.06,7.36,3.12c2.08,0.9,4.22,1.68,6.32,2.55c0.72,0.3,1.54,0.49,1.9,1.33
		c-0.86,0.91-1.24,0.9-2.21-0.01c-0.48-0.99-1.29-1.54-2.3-1.94c-3.6-1.41-7.17-2.86-10.75-4.31c-0.29-0.12-0.56-0.29-0.84-0.43
		C943.61,261.36,943.83,261.33,943.94,261.11z"/>
	<path class="st29" d="M942.76,281.14c0.23-0.41,0.45-0.82,0.68-1.23c0.59-0.34,1.04,0.12,1.52,0.29c0.78,0.28,1.55,0.55,2.33,0.81
		c0.11,0.03,0.21,0.08,0.31,0.12c0.56,0.32,1.19,0.46,1.79,0.67c0.1,0.05,0.18,0.12,0.24,0.21c-0.35,0.64-1.04,0.77-1.61,1.06
		C946.26,282.43,944.51,281.78,942.76,281.14z"/>
	<path class="st30" d="M969.84,328.32c-2.2-2.65-4.95-4.74-7.34-7.19c-0.89-0.91-1.99-1.6-2.72-2.67c0.14-0.24,0.29-0.47,0.43-0.71
		c-0.05,0.6,0.34,0.94,0.72,1.3c2.88,2.71,5.76,5.42,8.63,8.14c0.2,0.19,0.36,0.42,0.54,0.62
		C970.08,328.02,970.04,328.21,969.84,328.32z"/>
	<path class="st31" d="M1192.11,215.8c-3.32,2.71-6.65,5.43-9.98,8.14c-0.33,0.27-0.6,0.65-1.06,0.75c0.24-0.37-0.09-0.55-0.26-0.79
		c0.62,0.08,1.04-0.29,1.48-0.65c2.94-2.44,5.88-4.88,8.82-7.3c0.21-0.17,0.47-0.29,0.71-0.43
		C1191.99,215.54,1192.08,215.63,1192.11,215.8z"/>
	<path class="st32" d="M948.55,274.13c-0.31,0.85,0.22,1.11,0.88,1.36c3.84,1.42,7.68,2.86,11.52,4.3c0.18,0.07,0.35,0.18,0.52,0.28
		c-0.1,0.22-0.3,0.25-0.51,0.27c-3.78-1.44-7.57-2.88-11.35-4.32c-0.55-0.21-1.08-0.47-1.62-0.7
		C948.46,275.05,947.94,274.32,948.55,274.13z"/>
	<path class="st33" d="M927.89,267.16c-0.19,0.78,0.4,1.05,0.91,1.35c2.81,1.69,5.62,3.38,8.42,5.07c0.37,0.22,0.79,0.39,0.95,0.91
		c-3.67-2.02-7.3-4.11-10.8-6.43C927.77,267.9,927.41,267.29,927.89,267.16z"/>
	<path class="st34" d="M962.89,286.3c0.34,0.48,0.19,0.97,0,1.45c-1.5,0.41-2.83-0.15-4.15-0.74c0.23-0.38,0.46-0.76,0.69-1.15
		C960.6,285.89,961.72,286.26,962.89,286.3z"/>
	<path class="st35" d="M940.8,288.95c2.8-1.9,5.82-3.43,8.72-5.16c0.07-0.04,0.21,0.01,0.33,0.03c-0.05,0.43-0.42,0.48-0.67,0.63
		c-2.61,1.53-5.22,3.05-7.84,4.56c-0.16,0.09-0.37,0.1-0.55,0.15C940.78,289.09,940.78,289.02,940.8,288.95z"/>
	<path class="st6" d="M1025.28,186.63c-0.4-0.71-0.24-1.47-0.21-2.23C1025.32,185.13,1025.22,185.89,1025.28,186.63z"/>
	<path class="st9" d="M1019.99,228.47c0.3,1.69,0.07,3.42,0.46,5.1c0.66,1.03,0.51,2.23,0.6,3.36c0.32,4.22,0.59,8.44,0.93,12.66
		c0.3,3.7,0.49,7.41,0.79,11.11c0.41,5.17,0.72,10.35,1.13,15.53c0.11,1.35,0.23,2.71,0.31,4.06c0.22,3.65,1.36,6.87,4.27,9.29
		c0.48,0.4,0.47,0.42,1.09,1.82c-0.07-1.51,1.19-2.22,1.83-3.3c1.36-2.34,2.06-4.88,1.9-7.57c-0.23-3.78-0.58-7.56-0.83-11.35
		c-0.25-3.78-0.52-7.57-0.82-11.35c-0.31-3.9-0.53-7.81-0.85-11.71c-0.23-2.74-0.45-5.49-0.57-8.24c-0.06-1.4-0.33-2.78-0.29-4.18
		c0.01-0.39-0.15-0.8,0.19-1.14c-0.02-0.57-0.04-1.14-0.06-1.71c-0.33-2.7-0.28-2.77,2.32-2.77c33.44,0,66.88,0,100.32,0
		c0.16,0-0.04,0,0.12,0c2.39,0.01,2.54,0.15,2.54,2.49c0,64,0,127.99,0,191.99c0,0.32,0.01,0.64-0.02,0.96
		c-0.1,1.19-0.46,1.56-1.62,1.66c-0.44,0.04-0.88,0.02-1.32,0.02c-42.36,0-84.72,0-127.08,0c-2.85,0-3-0.14-3-2.96
		c0-63.76,0-127.52,0-191.27c0-2.83,0.05-2.88,2.88-2.88c4.32,0,8.64-0.01,12.96,0C1018.79,228.09,1019.45,228,1019.99,228.47z"/>
	<path class="st6" d="M1160.81,290.88c-0.11-1.04,0.18-2.04,0.39-3.02c0.26-1.18,1.38-1.02,2.22-0.96c1.09,0.07,2.93,2.35,2.91,3.44
		c-0.04,1.81-0.14,3.61-1.03,5.27c-0.2,0.37-0.3,0.85-0.28,1.28c0.07,1.44-1.15,2.17-1.75,3.22c-0.16,0.29-0.49,0.11-0.74-0.06
		c-0.88-0.6-1.95-0.86-2.77-1.61c-0.41-0.38-1.06-0.5-1.73-0.79c0,4.06,0,8.02,0,12.1c1.21-0.51,2.35-1.08,3.58-1.41
		c4.71-1.25,9.07-0.82,12.65,2.82c2.33,2.37,2.98,5.48,3.43,8.65c0.31,2.16-0.07,4.31,0,6.46c0.04,1.22,0.55,1.84,1.57,2.52
		c1.94,1.28,3.38,0.69,4.87-0.64c2.97-2.67,6.44-4.47,10.29-5.42c5.9-1.46,10.82,0.02,13.74,5.03c2.41,4.15,1.78,8.42-0.4,12.48
		c-2.04,3.8-5.2,6.66-8.44,9.41c-4.8,4.06-10.13,7.41-15.08,11.26c-1.89,1.47-3.8,2.93-5.26,4.87c-2.19,2.9-2.67,6.07-1.68,9.52
		c0.6,2.08,1.53,4.04,2.34,6.03c2.93,7.16,0.52,12.79-4.74,17.2c-4.42,3.71-9.62,5.97-14.99,7.88c-1.92,0.68-1.92,0.66-1.98,2.65
		c-0.01,0.27-0.09,0.54-0.13,0.81c-0.02-3.16-0.07-6.31-0.07-9.47c0-28.19,0-56.38,0-84.57c0-11.91,0-23.83,0-35.74
		c0-0.48,0.04-0.96,0.06-1.43c0.31,1.89,0.08,3.8,0.14,5.7c0.04,1.31,0.07,2.63-0.01,3.94c-0.07,1.03,0.3,1.68,1.22,2.07
		c0.24,0.33,0.74,0.7,0.15,1.07c-0.42,0.26-0.89,0.18-1.08-0.42c0.21,1.11,0.11,2.24,0.1,3.36c-0.01,0.7,0.24,1.17,0.77,1.64
		c0.94,0.84,2.05,1.37,3.14,1.94c0.47,0.25,0.76,0.14,0.89-0.37c0.6-2.42,1.46-4.8,1.21-7.38c-0.07-0.66-0.22-1.23-0.85-1.43
		c-0.7-0.22-0.89,0.5-1.26,0.88C1161.78,290.11,1161.94,291.25,1160.81,290.88z"/>
	<path class="st6" d="M1019.99,228.47c-5.44-0.01-10.88-0.01-16.32-0.04c-0.73,0-1.04,0.24-0.96,0.97c0.03,0.28,0,0.56,0,0.84
		c0,64.2,0,128.39,0,192.59c0,0.4,0,0.8,0.01,1.2c0,0.5,0.27,0.73,0.75,0.73c0.36,0,0.72,0.01,1.08,0.01c42.88,0,85.75,0,128.63,0
		c1.77,0,1.77,0,1.77-1.76c0-64.32,0-128.63,0-192.95c0-1.62,0-1.62-1.62-1.62c-33.8,0-67.6,0-101.39,0c-2.18,0-1.9-0.24-1.86,1.93
		c0,0.16-0.02,0.32-0.04,0.48c-0.06-0.14-0.17-0.28-0.18-0.43c-0.09-1.75,0.04-3.52-0.26-5.26c-0.12-0.7,0.14-1.08,0.91-0.98
		c0.24,0.03,0.48,0,0.72,0c35.24,0,70.47,0,105.71,0c1.82,0,1.82,0,1.82,1.83c0,67.19,0,134.39,0,201.58c0,1.75,0,1.75-1.77,1.75
		c-45.52,0-91.03,0-136.55,0c-1.57,0-1.57,0-1.57-1.53c0-67.31,0-134.63,0-201.94c0-1.68,0-1.69,1.73-1.69
		c5.88,0,11.76,0.02,17.64-0.02c1.1-0.01,1.62,0.24,1.56,1.45C1019.75,226.56,1019.92,227.52,1019.99,228.47z"/>
	<path class="st1" d="M1030.11,232.56c0.39,5.06,0.79,10.12,1.16,15.18c0.78,10.6,1.53,21.21,2.33,31.81
		c0.22,2.87-0.28,5.58-1.56,8.14c-0.28,0.57-0.6,1.19-1.08,1.56c-0.77,0.58-1.03,1.23-0.87,2.15c0.07,0.41,0,0.87-0.56,0.86
		c-0.5-0.01-0.65-0.44-0.61-0.87c0.1-0.93-0.47-1.34-1.11-1.9c-2.42-2.09-3.61-4.92-3.9-8c-0.57-6.08-0.91-12.19-1.36-18.28
		c-0.68-9.24-1.38-18.48-2.06-27.72c-0.05-0.64-0.04-1.28-0.05-1.92c-0.12-1.21,0.17-1.75,1.65-1.8c2.37-0.09,4.75-0.3,7.13-0.49
		c0.42-0.04,0.59,0,0.62,0.43C1029.85,232,1029.77,232.35,1030.11,232.56z"/>
	<path class="st31" d="M979.65,271.14c-2.79-2.3-5.58-4.6-8.37-6.9c0.03-0.15,0.12-0.25,0.28-0.27c2.7,2.18,5.41,4.36,8.11,6.54
		C979.67,270.72,979.66,270.93,979.65,271.14z"/>
	<path class="st9" d="M1069,483.65c-9.57,0.01-17.12-7.54-17.13-17.12c-0.01-9.47,7.6-17.05,17.1-17.04
		c9.48,0.01,17.08,7.61,17.08,17.07C1086.05,476.05,1078.47,483.64,1069,483.65z"/>
	<path class="st36" d="M1132.22,466.66c0,1.12-0.02,2.24,0.01,3.36c0.02,0.61-0.19,0.85-0.83,0.84c-2.28-0.03-4.56-0.03-6.83,0
		c-0.62,0.01-0.85-0.2-0.85-0.83c0.02-2.32,0.02-4.64,0-6.95c0-0.56,0.21-0.79,0.77-0.79c2.32,0.01,4.64,0.02,6.95,0
		c0.69-0.01,0.78,0.35,0.78,0.9C1132.21,464.34,1132.22,465.5,1132.22,466.66z"/>
	<path class="st36" d="M1010.04,462.29c1.08,0,2.16,0.02,3.23-0.01c0.65-0.02,0.94,0.19,0.93,0.88c-0.03,2.27-0.03,4.55,0,6.82
		c0.01,0.7-0.28,0.88-0.93,0.87c-2.23-0.03-4.47-0.04-6.7,0c-0.78,0.02-0.94-0.31-0.93-0.99c0.03-2.19,0.04-4.39,0-6.58
		c-0.02-0.81,0.3-1.04,1.05-1.01C1007.8,462.32,1008.92,462.29,1010.04,462.29z"/>
	<path class="st36" d="M1106.54,466.55c0,1.16-0.02,2.32,0.01,3.48c0.02,0.62-0.22,0.83-0.84,0.82c-2.28-0.03-4.56-0.03-6.83,0
		c-0.64,0.01-0.84-0.24-0.83-0.84c0.02-2.28,0.02-4.56,0-6.83c-0.01-0.68,0.25-0.91,0.92-0.9c2.24,0.03,4.48,0.03,6.71,0
		c0.7-0.01,0.9,0.27,0.88,0.92C1106.52,464.32,1106.54,465.44,1106.54,466.55z"/>
	<path class="st36" d="M1039.87,466.49c0,1.16-0.03,2.32,0.01,3.48c0.02,0.68-0.23,0.9-0.91,0.89c-2.24-0.03-4.48-0.04-6.71,0
		c-0.69,0.01-0.9-0.24-0.89-0.9c0.03-2.28,0.02-4.56,0-6.83c-0.01-0.61,0.21-0.85,0.84-0.85c2.28,0.02,4.56,0.02,6.83,0
		c0.62-0.01,0.86,0.23,0.84,0.85C1039.85,464.25,1039.87,465.37,1039.87,466.49z"/>
	<path class="st36" d="M1027.01,466.58c0,1.08-0.04,2.16,0.01,3.23c0.03,0.75-0.15,1.07-0.98,1.05c-2.19-0.05-4.39-0.04-6.58-0.01
		c-0.65,0.01-0.93-0.17-0.92-0.87c0.03-2.27,0.03-4.55,0-6.82c-0.01-0.7,0.29-0.89,0.93-0.88c2.23,0.02,4.47,0.02,6.7,0
		c0.61-0.01,0.86,0.2,0.84,0.83C1026.99,464.27,1027.01,465.42,1027.01,466.58z"/>
	<path class="st37" d="M1110.93,462.46c0.69-0.47,1.47-0.2,2.21-0.22c1.72-0.05,3.44,0.01,5.16-0.03c0.79-0.02,1.16,0.17,1.14,1.06
		c-0.05,2.2-0.01,4.4-0.02,6.6c0,0.46,0.12,1.02-0.65,1.02c-2.56-0.02-5.12-0.04-7.67-0.06c-0.06,0-0.12-0.1-0.18-0.15
		c0.05-0.05,0.1-0.11,0.14-0.17c0.63-0.35,1.32-0.24,1.99-0.24c1.51-0.02,3.03-0.01,4.54,0c0.79,0.01,1.17-0.29,1.16-1.12
		c-0.02-1.71-0.02-3.42,0-5.14c0.01-0.8-0.33-1.16-1.13-1.15c-1.63,0.01-3.26,0.01-4.9,0c-0.55,0-1.12,0.06-1.63-0.23
		C1111.03,462.56,1110.98,462.51,1110.93,462.46z"/>
	<path class="st37" d="M1110.92,470.68c-0.22-2.74-0.26-5.48,0.02-8.22c0.04,0.03,0.07,0.07,0.11,0.1c0.22,0.26,0.28,0.58,0.28,0.9
		c0.04,2.08,0.04,4.15,0,6.23c-0.01,0.32-0.06,0.64-0.29,0.89C1110.99,470.61,1110.95,470.64,1110.92,470.68z"/>
	<path class="st38" d="M1160.81,290.88c0.41,0,0.73-0.17,0.76-0.6c0.04-0.61,0.5-0.97,0.81-1.42c0.3-0.45,0.8-0.93,1.25-0.51
		c0.44,0.4,1.16,0.66,1.1,1.55c-0.12,1.74-0.1,3.49-0.63,5.19c-0.31,1.01-0.52,2.06-0.8,3.08c-0.14,0.53-0.49,0.56-0.91,0.32
		c-1.41-0.79-2.86-1.49-4.07-2.6c-0.28-0.26-0.38-0.49-0.38-0.8c-0.01-1.47-0.01-2.93,0.07-4.43c0.31,0.49,0.67,0.94,1.22,0.65
		c0.48-0.25-0.15-0.6-0.11-0.93C1159.7,290.55,1160.25,290.71,1160.81,290.88z"/>
	<path class="st39" d="M1177.22,287.26c0.61,0.13,1.07-0.19,1.55-0.48c3.62-2.09,7.26-4.17,10.88-6.25c0.37,0.26,1.1-0.37,1.22,0.49
		c-1.09-0.09-2,0.36-2.91,0.9c-3.23,1.9-6.47,3.77-9.71,5.64c-0.17,0.1-0.37,0.14-0.55,0.2
		C1177.55,287.61,1177.38,287.43,1177.22,287.26z"/>
	<path class="st40" d="M932.67,325.68c1.08,0,2.16,0.03,3.24-0.01c1.29-0.04,2.49,0.2,3.74,0.57c1.64,0.49,3.43,0.62,4.96,1.41
		c1.06,0.55,2.26,0.75,3.21,1.6c0.74,0.66,1.77,0.95,2.59,1.59c1.4,1.09,2.97,1.97,4.21,3.26c1.51,1.57,2.8,3.33,4.14,5.05
		c2.68,3.44,4.13,7.4,4.82,11.62c0.66,4.01,0.7,8.05,0.08,12.12c-0.6,3.98-1.67,7.77-3.86,11.12c-1.66,2.54-3.34,5.18-5.84,7
		c-2.11,1.54-3.9,3.62-6.43,4.48c-2.24,0.75-4.34,1.83-6.74,2.3c-1.7,0.33-3.68,0.38-5.24,1.58c-0.94,0.73-2.25,0.49-3.35,1.1
		c-1.82,0.99-3.51,2.14-5.14,3.38c-0.66,0.51-1.4,0.88-2.04,1.45c-1.02,0.92-4.98,1.19-5.98,0.32c-1.7-1.48-3.36-3-3.7-5.49
		c-0.42-3.12-1.44-6.14-3.55-8.47c-1.74-1.92-3.32-3.94-4.88-5.98c-1.99-2.62-3.37-5.52-4.34-8.68c-1.15-3.76-1.48-7.57-1.35-11.44
		c0.14-4.01,0.89-7.89,2.7-11.52c1.45-2.92,3.25-5.58,5.32-8.13c2-2.45,4.47-4.25,7.05-5.88c2.23-1.4,4.64-2.62,7.22-3.31
		C926.5,325.91,929.52,325.22,932.67,325.68z"/>
	<path class="st9" d="M1235.5,267.83c-0.37,0.98-0.8,2.14-1.27,3.27c-0.16,0.39-0.51,0.25-0.83,0.13
		c-4.22-1.57-8.44-3.13-12.67-4.69c-0.51-0.19-0.68-0.49-0.49-1.01c0.35-0.93,0.69-1.87,1.04-2.81c0.18-0.5,0.43-0.66,1-0.45
		c4.18,1.57,8.37,3.1,12.56,4.65C1235.16,267.05,1235.56,267.14,1235.5,267.83z"/>
	<path class="st41" d="M904.2,429.25c-3.02,0.87-5.68,0.87-8.34-0.26c-3.62-1.55-6.27-4.18-8.39-7.4c-1.21-1.83-2.67-3.25-5.06-2.98
		c-1.14,0.13-2.22,0.58-3.3,1.02c-1.88,0.77-3.54,1.98-5.51,2.59c-4.5,1.38-7.23-0.34-9.73-3.03c-2.26-2.43-3.99-5.26-5.8-8.03
		c-1.3-1.99-1.34-4.1-0.81-6.21c0.86-3.44,2.91-6.26,5.16-8.93c3.49-4.14,7.53-7.68,11.98-10.75c3.38-2.34,6.93-4.41,10.82-5.81
		c4.26-1.53,8.3-0.63,12.04,1.55c4.44,2.57,7.85,6.14,9.4,11.18c0.63,2.05,0.4,3.86-1.27,5.58c-3.28,3.4-7.25,6.02-10.48,9.45
		c-1.15,1.22-2.22,2.51-3.26,3.81c-1.95,2.43-1.53,5.47-0.17,7.75c2.36,3.94,5.85,6.69,9.78,8.94
		C902.14,428.2,903.03,428.63,904.2,429.25z"/>
	<path class="st41" d="M1253.8,398.83c-0.37,3.16-1.59,6.65-4.62,9.29c-0.5,0.44-1.14,0.73-1.76,1.01
		c-1.51,0.67-2.53,1.77-3.03,3.34c-0.32,0.99-1.02,1.59-1.92,2.02c-0.32,0.15-0.69,0.4-0.97,0.02c-0.24-0.31,0.07-0.59,0.25-0.84
		c1.42-1.97,2.9-3.9,4.1-6.02c1.26-2.22,2.65-4.36,3.45-6.81c0.17-0.51,0.32-1.05-0.06-1.48c-0.37-0.42-0.88-0.24-1.34-0.07
		c-0.92,0.34-1.84,0.42-2.81,0.13c-0.44-0.13-0.98-0.12-1.42,0c-0.85,0.23-1.08-0.2-1.18-0.88c-0.06-0.39-0.12-0.79-0.22-1.17
		c-0.35-1.4-1.06-1.63-2.21-0.74c-0.21,0.16-0.34,0.52-0.67,0.38c-0.3-0.13-0.24-0.47-0.26-0.75c-0.01-0.32,0.04-0.66-0.06-0.95
		c-0.15-0.46-0.47-0.88-0.99-0.94c-0.53-0.07-0.58,0.42-0.72,0.79c-1.74,4.58-3.08,9.29-4.19,14.06c-0.1,0.42-0.04,0.88-0.06,1.31
		c-0.01,0.2,0,0.44-0.26,0.46c-0.23,0.02-0.35-0.17-0.41-0.36c-0.33-0.93-0.46-1.86-0.06-2.8c0.53-1.26,0.75-2.54,0.09-3.81
		c-1.73-3.34-0.85-6.56,0.35-9.81c2.76-7.52,12.24-8.32,17.17-3.86C1252.33,392.48,1253.8,394.88,1253.8,398.83z"/>
	<path class="st41" d="M1247.51,400.53c-1.48,3.21-3.3,5.91-5.25,8.54c-0.95,1.28-1.81,2.62-2.64,3.97
		c-0.35,0.57-0.72,0.63-1.28,0.44c-2.16-0.73-2.37-0.88-2.06-3.52c0.37-3.11,0.37-6.28,1.39-9.29c0.14-0.41,0.25-0.84,0.36-1.26
		c0.15-0.58,0.17-1.21,1.12-0.83c0.52,0.21,0.78-0.44,1.14-0.73c0.27-0.21,0.44-0.66,0.86-0.54c0.42,0.13,0.34,0.57,0.39,0.92
		c0.07,0.47,0.12,0.96,0.3,1.4c0.17,0.42,0.39,0.99,0.97,0.92C1244.3,400.35,1245.78,401.05,1247.51,400.53z"/>
	<path class="st41" d="M954.41,285.42c0.06,0.84-0.56,1.16-1.15,1.51c-3.37,1.96-6.74,3.91-10.11,5.87c-0.69,0.4-1.3,0.81-0.19,1.45
		c0.14,0.16,0.14,0.31-0.01,0.47c-1.67,1-3.33,2.03-5.02,3c-1.33,0.75-2.46,0.44-3.19-0.76c-0.7-1.17-0.39-2.37,0.92-3.15
		c2.98-1.77,5.99-3.5,8.99-5.23c2.38-1.37,4.77-2.73,7.16-4.1C952.81,284.43,953.7,284.69,954.41,285.42z"/>
	<path class="st42" d="M947.53,281.29c-1.44-0.22-2.72-0.94-4.09-1.39c0.7-2.5-0.23-4.31-2.39-5.58c2.1,0.46,4.05,1.38,6.05,2.12
		c2.71,1,5.47,1.9,8.1,3.1c-1.46,0.1-2.57,1.05-3.85,1.59c-0.84,0.16-1.52-0.3-2.26-0.54c-0.81-0.27-1.58-0.67-2.46-0.7
		C946.48,280.73,947.67,280.56,947.53,281.29z"/>
	<path class="st43" d="M962.89,286.3c-1.24,0.56-2.34,0.04-3.46-0.43c0.08-0.21,0.17-0.42,0.25-0.63c1.25-0.21,1.97-0.99,2.24-2.18
		c0.24-1.08-0.03-2.04-0.97-2.73c0.17-0.09,0.34-0.18,0.51-0.27c0.52,0.03,0.88,0.53,1.42,0.48
		C963.19,282.46,963.2,284.38,962.89,286.3z"/>
	<path class="st44" d="M955.75,285.98c-0.05-2.67-0.86-3.36-4.01-3.28c0.47-0.51,0.97-0.76,1.51-0.96c1.77,0.27,3.4,0.9,4.9,1.87
		c0.45,1.24-0.05,2.15-1.01,2.9C956.59,286.56,956.05,286.59,955.75,285.98z"/>
	<path class="st45" d="M955.75,285.98c0.47,0.18,0.93,0.36,1.4,0.54c-3.04,2.03-6.27,3.72-9.42,5.56c-1.56,0.91-3.05,1.99-4.77,2.62
		c0-0.16,0.01-0.31,0.01-0.47c2.3-1.02,4.36-2.46,6.56-3.66c1.4-0.77,2.74-1.63,4.14-2.39C954.6,287.67,955.33,286.99,955.75,285.98
		z"/>
	<path class="st46" d="M947.53,281.29c-0.24-0.37-0.69-0.35-1.03-0.53c-0.4-0.21-0.64-0.52-0.44-0.97c0.18-0.41,0.56-0.41,0.92-0.27
		c1.46,0.54,2.91,1.08,4.37,1.62c-0.5,0.44-1.05,0.79-1.73,0.88c0,0-0.05-0.01-0.05-0.01c-0.69-0.25-1.4-0.43-2.07-0.73
		L947.53,281.29z"/>
	<path class="st47" d="M958.15,283.62c-1.63-0.62-3.26-1.25-4.9-1.87C955.45,280.25,957.66,281.1,958.15,283.62z"/>
	<path class="st48" d="M957.96,280.56c0.49,0.15,0.98,0.29,1.46,0.45c0.62,0.21,1.19,0.53,1.25,1.26c0.05,0.73-0.24,1.3-0.96,1.6
		C959.39,282.63,958.86,281.5,957.96,280.56z"/>
	<path class="st49" d="M954.41,285.42c-0.86-0.32-1.72-0.63-2.59-0.95C953.28,283.52,954.12,283.83,954.41,285.42z"/>
	<path class="st41" d="M923.99,272.9c-1.67-1-3.36-1.98-5.02-3.02c-1.27-0.8-1.58-2.04-0.86-3.17c0.74-1.16,1.94-1.46,3.22-0.69
		c5.33,3.2,10.63,6.44,15.95,9.66c0.29,0.88,0.41,1.78,0.39,2.71c-0.7,0.55-1.27,0.08-1.84-0.26c-3.25-1.95-6.5-3.91-9.75-5.87
		c-0.51-0.31-1.02-0.74-1.59-0.1C924.18,272.31,924.63,272.98,923.99,272.9z"/>
	<path class="st50" d="M939.6,278.42c0.35-1.2,0.4-2.35-0.68-3.28c2.28-0.02,3.9,2.21,3.13,4.23
		C941.02,279.6,940.24,279.19,939.6,278.42z"/>
	<path class="st51" d="M923.99,272.9c0.37-0.11,0.15-0.61,0.5-0.73c0.01,0.61,0.43,0.89,0.89,1.16c3.35,2.01,6.7,4,10.02,6.04
		c0.81,0.5,1.65,0.51,2.53,0.47c-0.34,0.94-1.11,0.38-1.69,0.5C932.11,277.91,927.98,275.52,923.99,272.9z"/>
	<path class="st52" d="M936.22,280.34c0.45-0.55,1.25,0.08,1.69-0.5c0.25-0.12,0.51-0.23,0.76-0.35c1,0.07,1.95,0.27,2.65,1.08
		c-1.08,1.19-2.14,1.41-3.48,0.7C937.3,280.98,936.76,280.65,936.22,280.34z"/>
	<path class="st53" d="M941.33,280.57c-0.88-0.36-1.77-0.72-2.65-1.08c0.31-0.36,0.61-0.71,0.92-1.07c0.82,0.32,1.63,0.64,2.45,0.95
		C941.98,279.88,941.76,280.29,941.33,280.57z"/>
	<path class="st54" d="M937.67,278.39c-0.51-0.85-0.56-1.76-0.39-2.71C938.79,276.59,938.9,277.38,937.67,278.39z"/>
	<path class="st41" d="M940.77,266.67c-1.74-0.69-3.5-1.34-5.22-2.08c-1.31-0.56-1.8-1.73-1.33-2.92c0.48-1.23,1.74-1.79,3.05-1.26
		c5.18,2.08,10.35,4.2,15.52,6.3c0.97,0.74,1.54,1.81,2.32,2.71c0.18,0.21,0.32,0.47,0.14,0.76c-0.63,0.52-1.22,0.1-1.79-0.13
		c-3.48-1.39-6.94-2.8-10.42-4.19c-0.47-0.19-0.93-0.52-1.46-0.16C941.14,265.89,941.79,266.97,940.77,266.67z"/>
	<path class="st41" d="M954.27,263.96c-1.33-2.04-2.84-3.94-4.34-5.85c-0.26-0.34-0.55-0.74-1.09-0.48
		c-0.56,0.27-0.17,0.77-0.26,1.33c-1.48-1.98-2.91-3.83-4.27-5.73c-0.72-1.02-0.51-2.09,0.42-2.88c0.92-0.78,2.21-0.81,3.02,0.12
		c1.1,1.26,2.07,2.63,3.08,3.97c2.74,3.63,5.47,7.27,8.2,10.9c0.19,0.25,0.33,0.54,0.5,0.82
		C957.78,265.43,956.03,264.69,954.27,263.96z"/>
	<path class="st55" d="M940.77,266.67c0.69,0.02,0.32-0.82,0.8-0.97c-0.16,0.59,0.02,0.97,0.63,1.21c3.78,1.5,7.55,3.03,11.32,4.56
		c0.92,0.37,1.8,0.19,2.66-0.19c0.7,0.39,1.14,1.03,1.62,1.64c-0.56,0.38-1.15,0.25-1.71,0.03c-5.05-2.03-10.1-4.07-15.15-6.11
		C940.87,266.8,940.82,266.72,940.77,266.67z"/>
	<path class="st56" d="M960.95,265.36c0.64,0.44,1.01,1.11,1.45,1.71c1.41,1.89,0.77,3.95-1.47,4.84c0.44-1.34,0.59-2.68,0.12-4.04
		C961.51,267.01,961.09,266.19,960.95,265.36z"/>
	<path class="st57" d="M959.96,269.46c0.17,1.07-0.22,1.93-0.97,2.66c-1.15-0.06-1.65-0.8-1.91-1.81c0.09-0.21,0.18-0.43,0.27-0.64
		C958.2,269.33,959.07,269.27,959.96,269.46z"/>
	<path class="st58" d="M955.23,270.18c-0.82-1.16-1.64-2.31-2.45-3.47c0.73,0.28,1.48,0.52,2.18,0.86
		C956.3,268.21,956.39,269.18,955.23,270.18z"/>
	<path class="st59" d="M957.08,270.31c0.52,0.72,1.08,1.41,1.91,1.81c-0.28,0.44-0.69,0.68-1.19,0.79c-0.79-0.3-1.23-0.95-1.62-1.64
		C956.48,270.96,956.78,270.63,957.08,270.31z"/>
	<path class="st60" d="M959.96,269.46c-0.84,0.39-1.72,0.37-2.61,0.21c-0.02-0.53-0.03-1.06-0.05-1.59
		c0.73,0.45,1.47,0.56,2.21,0.01C959.81,268.51,960.04,268.93,959.96,269.46z"/>
	<path class="st2" d="M1180.34,293.06c-1.72,1.01-3.44,2.04-5.18,3.02c-1.36,0.77-2.61,0.43-3.27-0.8
		c-0.63-1.18-0.25-2.39,1.04-3.14c3.18-1.85,6.37-3.67,9.56-5.5c0.93,0.44,1.76,0.99,2.37,1.84c-1.53,0.92-3.06,1.84-4.59,2.75
		c-0.63,0.37-0.92,0.79-0.2,1.36C1180.25,292.7,1180.48,292.77,1180.34,293.06z"/>
	<path class="st61" d="M1184.86,288.48c-0.87-0.51-1.72-1.05-2.37-1.84c2.3-1.35,4.6-2.71,6.91-4.05c0.84-0.49,1.57-0.32,2.04,0.51
		c0.44,0.78,0.21,1.51-0.55,1.96C1188.89,286.23,1186.87,287.35,1184.86,288.48z"/>
	<path class="st42" d="M1190.88,281.03c-0.3-0.43-0.96,0.03-1.22-0.49c0.41-0.24,0.82-0.5,1.24-0.72c1.64-0.86,3.18-0.44,4.1,1.11
		c0.96,1.61,0.58,3.21-1.02,4.22c-0.53,0.34-1.1,0.63-1.65,0.94c-0.25,0.07-0.32-0.04-0.26-0.26
		C1193.64,283.91,1193.19,282.09,1190.88,281.03z"/>
	<path class="st62" d="M1192.07,285.84c0.09,0.09,0.17,0.18,0.26,0.26c-2.83,1.94-5.92,3.46-8.85,5.24
		c-1.02,0.62-2.09,1.15-3.14,1.72c-0.09-0.15-0.18-0.31-0.27-0.46c1.91-0.61,3.49-1.85,5.21-2.8
		C1187.58,288.52,1189.81,287.16,1192.07,285.84z"/>
	<path class="st41" d="M968.88,284.81c0,3.11-0.01,6.23,0.01,9.34c0.01,1.01-0.27,1.75-1.42,1.8c-0.97,0.04-1.48-0.54-1.48-1.74
		c0-3.47-0.01-6.95,0.06-10.42c0.03-1.42-0.13-2.7-1.28-3.67c-0.09-0.08-0.18-0.16-0.25-0.26c-0.44-0.67-0.24-5.5,0.29-6.07
		c0.67-0.72,1.51-1.01,2.49-0.69c1.03,0.34,1.58,1.02,1.58,2.13C968.87,278.42,968.87,281.61,968.88,284.81
		C968.88,284.81,968.88,284.81,968.88,284.81z"/>
	<path class="st41" d="M1184.84,229.15c-1.5,1.26-2.98,2.54-4.5,3.77c-1.29,1.06-2.4,0.98-3.35-0.16c-0.9-1.07-0.73-2.34,0.48-3.34
		c3.6-2.98,7.22-5.94,10.83-8.92c1.14-0.94,2.28-1.88,3.42-2.82c1.12-0.92,1.82-0.97,2.47-0.17c0.64,0.78,0.48,1.5-0.63,2.42
		c-2.92,2.42-5.86,4.83-8.8,7.24c-0.52,0.42-1.08,0.82-0.36,1.53C1184.45,228.94,1185,228.71,1184.84,229.15z"/>
	<path class="st63" d="M1192.11,215.8c-0.09-0.1-0.19-0.19-0.28-0.29c0.43-0.36,0.84-0.74,1.28-1.08c1.48-1.18,3.14-1.01,4.33,0.43
		c1.21,1.46,1.07,3.07-0.39,4.34c-0.36,0.31-0.75,0.59-1.13,0.89c-0.41,0-0.41-0.21-0.25-0.5
		C1196.42,216.97,1194.77,215.21,1192.11,215.8z"/>
	<path class="st64" d="M1195.67,219.59c0.03,0.19,0.05,0.39,0.25,0.5c-2.36,2.21-4.94,4.16-7.43,6.21c-1.19,0.99-2.29,2.1-3.66,2.85
		c-0.14-0.15-0.28-0.3-0.43-0.45c0.84,0.03,1.24-0.66,1.78-1.1c2.79-2.26,5.57-4.53,8.34-6.81
		C1194.95,220.45,1195.29,220,1195.67,219.59z"/>
	<path class="st41" d="M933.06,247.01c-1.14-0.66-1.57-1.54-1.28-2.64c0.29-1.12,1.12-1.71,2.55-1.72
		c5.19-0.03,10.38-0.03,15.57-0.05c1.08,0,2.16,0.01,3.23,0c0.95-0.01,1.57,0.37,1.58,1.37c0.01,1.04-0.6,1.51-1.6,1.51
		c-3.87,0.02-7.74,0.03-11.62,0.04c-0.47,0-0.97-0.09-1.37,0.27c0.09,1.34-0.74,1.36-1.75,1.3
		C936.61,247,934.83,247.16,933.06,247.01z"/>
	<path class="st65" d="M933.06,247.01c1.63-0.01,3.25-0.01,4.88-0.03c0.93-0.01,2.09,0.37,2.19-1.19c-0.18,1,0.48,0.99,1.17,0.99
		c4.24-0.02,8.47-0.03,12.71-0.04c0.85,0.55,1.79,0,2.67,0.25c-0.51,0.33-1.09,0.2-1.63,0.2c-6.87,0.03-13.74,0.04-20.62,0.05
		C933.97,247.25,933.47,247.39,933.06,247.01z"/>
	<path class="st41" d="M955.25,322.28c-1.37-1.29-2.75-2.56-4.1-3.86c-1.13-1.09-1.23-2.26-0.32-3.27c0.93-1.03,2.27-1.1,3.4-0.04
		c4.61,4.31,9.19,8.66,13.79,12.99c0.72,0.68,0.93,1.42,0.17,2.18c-0.75,0.76-1.49,0.55-2.2-0.13c-2.85-2.69-5.71-5.36-8.56-8.05
		c-0.45-0.43-0.88-0.89-1.51-0.26C955.7,321.99,955.85,322.7,955.25,322.28z"/>
	<path class="st66" d="M969.84,328.32c0.03-0.2,0.03-0.41,0.27-0.51c0.32,0.29,0.65,0.58,0.96,0.89c1.45,1.42,1.51,2.99,0.19,4.39
		c-1.41,1.49-2.91,1.51-4.47,0.06c-0.35-0.33-0.69-0.65-1.03-0.98c0-0.4,0.18-0.42,0.47-0.23
		C968.7,332.52,970.4,330.82,969.84,328.32z"/>
	<path class="st67" d="M966.23,331.93c-0.18,0.04-0.38,0.03-0.47,0.23c-3.62-3.17-7.11-6.48-10.51-9.88
		c0.38,0.09,0.42-0.33,0.67-0.44c0,0.42,0.16,0.75,0.48,1.05c2.96,2.78,5.91,5.57,8.87,8.35
		C965.56,331.5,965.91,331.7,966.23,331.93z"/>
	<path class="st68" d="M1205.75,422.87c0.58-1.06,1.52-1.41,2.63-1.12c1.16,0.3,1.68,1.17,1.68,2.33c0.01,6.31,0.01,12.62,0,18.93
		c0,0.96-0.36,1.65-1.44,1.68c-0.94,0.03-1.48-0.58-1.48-1.76c-0.02-3.91-0.01-7.83-0.01-11.74c0-0.76-0.04-1.45-1.11-1.07
		c-0.24,0.02-0.38-0.1-0.37-0.34C1205.69,427.47,1205.51,425.17,1205.75,422.87z"/>
	<path class="st69" d="M1205.75,422.87c-0.01,2.06-0.03,4.12-0.03,6.18c0,0.37-0.15,0.81,0.3,1.06c-0.18,4.72-0.05,9.44-0.06,14.15
		c-0.55,0.92-0.1,1.91-0.21,2.86c-0.43-0.42-0.31-0.97-0.31-1.47c-0.01-7.1-0.01-14.21,0-21.31
		C1205.44,423.84,1205.32,423.29,1205.75,422.87z"/>
	<path class="st68" d="M979.73,268.99c-2.44-2.01-4.62-3.79-6.78-5.6c-0.68-0.57-0.78-1.28-0.18-1.99c0.59-0.7,1.31-0.75,2-0.2
		c1.53,1.21,3.02,2.46,4.53,3.69c0.26,0.21,0.43,0.45,0.43,0.8C979.72,266.68,979.73,267.67,979.73,268.99z"/>
	<path class="st63" d="M971.56,263.97c-0.09,0.09-0.19,0.18-0.28,0.27c-0.51-0.44-1.03-0.87-1.52-1.33c-1.36-1.3-1.41-2.8-0.18-4.24
		c1.18-1.37,2.8-1.53,4.25-0.39c0.59,0.47,1.15,0.97,1.71,1.57c-1.87-0.83-3.32-0.32-4.35,1.3
		C970.59,262.13,970.78,263.12,971.56,263.97z"/>
	<path class="st42" d="M947.51,281.27c0.75,0.06,1.43,0.33,2.07,0.73C948.81,281.98,948.11,281.76,947.51,281.27z"/>
	<path class="st70" d="M1132.76,234.91c0,0.56-0.02,1.12,0,1.67c0.02,0.69,0.02,1.22-0.96,1.22c-0.94,0-0.99-0.45-1-1.18
		c-0.01-0.86,0.4-1.95-0.21-2.53c-0.55-0.52-1.61-0.17-2.44-0.15c-0.8,0.02-0.9-0.39-0.9-1.04c0-0.64,0.05-1.08,0.88-1.04
		c1.23,0.05,2.47,0.05,3.71,0c0.77-0.03,0.96,0.33,0.93,1.01C1132.73,233.55,1132.76,234.23,1132.76,234.91z"/>
	<path class="st71" d="M1004.87,234.81c0-2.93,0-2.93,2.95-2.93c0.48,0,0.96,0.03,1.44-0.01c0.75-0.05,1.18,0.1,1.18,1.02
		c0,0.89-0.37,1.05-1.15,1.05c-2.41,0-2.44,0.03-2.42,2.57c0.01,0.83-0.06,1.38-1.13,1.28c-0.68-0.06-0.91-0.3-0.88-0.95
		C1004.9,236.17,1004.87,235.49,1004.87,234.81z"/>
	<path class="st72" d="M1007.62,421.17c-2.75,0-2.75,0-2.75-2.72c0-0.64,0.02-1.28-0.01-1.91c-0.03-0.69-0.02-1.2,0.96-1.22
		c1.02-0.02,1.05,0.48,1.05,1.25c-0.01,2.56,0.01,2.59,2.5,2.61c0.74,0.01,1.07,0.16,1.07,0.99c0,0.79-0.24,1.09-1.03,1.02
		C1008.82,421.13,1008.22,421.17,1007.62,421.17z"/>
	<path class="st73" d="M1132.76,418.29c0,2.88,0,2.88-2.85,2.88c-0.48,0-0.96-0.01-1.44,0c-0.66,0.02-1.23,0.1-1.24-0.92
		c-0.01-0.99,0.44-1.08,1.23-1.07c2.35,0.02,2.32-0.01,2.38-2.41c0.01-0.49-0.44-1.28,0.57-1.41c0.87-0.11,1.51-0.01,1.36,1.14
		C1132.7,417.09,1132.76,417.7,1132.76,418.29z"/>
	<path class="st74" d="M1024.79,250.94c-0.05-1.55,0.35-2.24,1.48-2.34c1.2-0.11,1.99,0.53,2.08,1.77c0.35,4.69,0.67,9.38,1,14.08
		c0.08,1.07,0.19,2.15,0.22,3.22c0.03,1.19-0.6,1.85-1.68,1.89c-1.05,0.04-1.81-0.63-1.89-1.73
		C1025.6,262.27,1025.21,256.71,1024.79,250.94z"/>
	<path class="st12" d="M1068.25,473.35c-3.81-0.08-6.78-3.21-6.67-7.02c0.11-3.77,3.21-6.6,7.15-6.52c3.68,0.07,6.55,3.21,6.46,7.07
		C1075.11,470.53,1072,473.42,1068.25,473.35z"/>
	<path class="st9" d="M1111.03,470.57c0-2.67,0-5.35,0.01-8.02c2.43-0.02,4.86-0.03,7.29-0.08c0.65-0.01,0.82,0.27,0.81,0.86
		c-0.02,2.15-0.02,4.31,0,6.46c0.01,0.6-0.18,0.87-0.82,0.86C1115.89,470.61,1113.46,470.6,1111.03,470.57z"/>
	<path class="st12" d="M923.76,394.08c-0.98,1.7-1.08,1.74-2.98,1.1c-0.3-0.1-0.6-0.21-0.9-0.31c-2.1-0.7-2.18-0.83-1.8-2.91
		c0.02-0.11,0.03-0.21,0.05-0.32c0.08-0.48,0.08-0.99,0.38-1.41c0.56-0.84,0.47-1.88,0.89-2.76c0.68-1.2,0.86-2.57,1.25-3.86
		c0.18-0.61-0.1-1-0.63-1.26c-3.09-1.53-5.68-3.71-8.04-6.19c-4.6-5.09-7.05-11.02-7.29-17.91c-0.24-6.85,1.73-12.99,5.92-18.32
		c4.78-6.08,11.11-9.62,18.85-10.52c7.14-0.83,13.66,0.81,19.52,4.94c6.25,4.41,10.11,10.43,11.42,17.93
		c1.45,8.34-0.39,16.02-5.77,22.62c-5,6.13-11.5,9.66-19.45,10.39c-2.35-0.06-4.72,0.18-7.06-0.26c-0.77-0.15-1.21,0.16-1.42,0.9
		c-0.22,0.77-0.54,1.5-0.72,2.28c-0.35,1.24-0.97,2.39-1.23,3.65c-0.18,0.56-0.33,1.13-0.58,1.66
		C924.04,393.71,923.89,393.88,923.76,394.08z"/>
	<path class="st75" d="M923.94,393.58c0.06-0.59,0.28-1.13,0.53-1.66c1.12-0.97,2.42-1.66,3.65-2.46c0.97-0.63,1.98-1.19,3.02-1.7
		c0.47-0.23,0.93-0.46,1.46-0.47c0.12,0,0.28,0.03,0.35-0.03c1.82-1.48,4.36-0.31,6.2-1.71c0.22-0.17,0.53-0.17,0.81-0.17
		c0.93,0.02,1.74-0.2,2.58-0.72c0.78-0.47,1.76-0.6,2.63-1.03c3.04-1.48,5.83-3.34,8.26-5.64c1.9-1.81,3.39-4.02,4.64-6.37
		c1.11-2.08,2.09-4.21,2.67-6.51c0.22-0.86,0.39-1.72,0.47-2.58c0.4-4.11,0.49-8.23-0.22-12.29c-0.51-2.91-1.89-5.54-3.4-8.12
		c-2.36-4.03-5.55-7.24-9.45-9.67c-1.63-1.02-3.36-2.11-5.37-2.4c-0.16-0.02-0.36-0.03-0.45-0.15c-0.92-1.1-2.17-1.04-3.41-1.03
		c-0.24,0-0.51,0-0.7-0.14c-1.42-1.03-3.05-0.79-4.63-0.79c-1.88-0.01-3.76-0.01-5.64,0.01c-0.54-0.03-1.12,0.11-1.56-0.34
		c0.53-0.67,1.24-0.96,2.08-0.96c2.83,0,5.68-0.2,8.48,0.07c1.65,0.16,3.25,0.9,4.97,1.11c0.66,0.08,1.34,0.87,2.23,0.74
		c0.54,0.32,0.9,0.87,1.44,1.2c0.24,0,0.48,0,0.72,0c0.46,0.35,0.93,0.68,1.44,0.96c0.16,0,0.32,0,0.48,0
		c0.41,0.31,0.7,0.76,1.2,0.96c1.73,1.33,3.65,2.42,5.03,4.18c0.26,0.33,0.64,0.58,0.96,0.86c0.65,0.79,1.29,1.59,1.92,2.4
		c0.08,0.64,0.63,0.96,0.96,1.44c0.15,0.74,0.82,1.11,1.2,1.68c0.69,1.85,1.67,3.59,2.16,5.52c0.22,0.81,0.44,1.61,0.72,2.4
		c0.07,0.8-0.18,1.63,0.24,2.4c0.37,2.96,0.46,5.92,0,8.88c-0.04,0.96-0.38,1.9-0.24,2.88c-0.27,0.71-0.42,1.46-0.72,2.16
		c-0.23,0.37-0.27,0.78-0.24,1.2c-0.21,0.57-0.47,1.12-0.72,1.68c-1.59,3.94-4.14,7.22-6.96,10.32c-0.46,0.35-0.91,0.71-1.44,0.96
		c-1.38,1.13-2.79,2.21-4.32,3.12c-0.46,0.35-0.91,0.71-1.44,0.96c-0.24,0-0.48,0-0.72,0c-0.52,0.26-0.93,0.68-1.44,0.96
		c-0.32,0-0.64,0-0.96,0c-0.6,0.25-1.11,0.66-1.68,0.96c-0.64,0-1.28,0-1.92,0c-0.71,0.34-1.43,0.66-2.16,0.96
		c-0.48,0-0.96,0-1.44,0c-0.89,0.3-1.78,0.59-2.64,0.96c-0.32,0-0.64,0-0.96,0c-0.67,0.25-1.04,0.91-1.68,1.2
		c-0.89-0.18-1.13,0.95-1.92,0.96c-0.59,0.15-0.95,0.66-1.44,0.96c-0.55,0.22-0.76,0.95-1.44,0.96
		C925.47,393.07,924.92,393.83,923.94,393.58z"/>
	<path class="st75" d="M926.4,327.6c0.56,0,1.12,0,1.69,0c-0.04,1.01-0.77,1.23-1.56,1.25c-1.05,0.03-2.09-0.03-2.83,0.92
		c-0.12,0.15-0.35,0.19-0.54,0.23c-4.05,0.97-7.32,3.16-10.39,5.95c-3.77,3.43-5.96,7.76-7.73,12.35c-1.5,3.9-1.54,8.03-1.29,12.16
		c0.11,1.85,0.79,3.57,1.07,5.38c0.17,1.12,0.92,2.02,1.33,3.06c1.48,3.76,3.8,6.98,6.62,9.86c1.87,1.9,3.25,4.1,4.24,6.59
		c0.45,1.14,0.99,2.26,1.5,3.38c0.24,0.54,0.52,1.09,0.22,1.7c-0.41,0.4,0.06,1.08-0.47,1.43c-0.92-0.92-1.1-2.22-1.68-3.32v0
		c-0.28-0.97-0.59-1.94-0.96-2.88l0,0c-0.17-0.71-0.63-1.29-0.96-1.92c-0.09-0.89-0.7-1.5-1.2-2.16c-0.98-1.4-2.47-2.36-3.36-3.84
		c-0.68-0.63-1.02-1.52-1.68-2.16c-0.76-0.96-1.62-1.87-1.92-3.12c-0.47-0.56-0.84-1.18-0.96-1.92c-0.37-0.74-1.13-1.26-1.2-2.16h0
		c-0.23-0.64-0.47-1.29-0.72-1.92c-0.55-0.49-0.01-1.14-0.24-1.68c-0.31-0.86-0.48-1.76-0.72-2.64c0-0.16,0-0.32,0-0.48
		c-0.34-1.02,0.11-2.1-0.24-3.12c0-0.72,0-1.44,0-2.16c0.35-1.26-0.1-2.58,0.24-3.84c0-0.16,0-0.32,0-0.48
		c0.25-1.14,0.66-2.23,0.96-3.36c0-0.16,0-0.32,0-0.48c0.42-0.84,0.72-1.73,0.96-2.64c0.72-1.28,1.44-2.56,2.16-3.84
		c0.16-0.72,0.72-1.24,0.96-1.92c2.12-3.03,4.76-5.55,7.67-7.8c0.3-0.23,0.59-0.38,0.97-0.36c0.48-0.33,0.94-0.67,1.44-0.96l0,0
		c0.63-0.19,1.11-0.65,1.68-0.96c0.24,0,0.48,0,0.72,0c0.6-0.26,0.98-0.78,1.44-1.2c0.32,0,0.64,0,0.96,0
		c0.78-0.19,1.46-0.61,2.16-0.96C925.28,327.6,925.84,327.6,926.4,327.6z"/>
	<path class="st76" d="M962.64,361.44c0-2.96,0-5.92,0-8.88C963.35,355.52,963.49,358.48,962.64,361.44z"/>
	<path class="st75" d="M916.56,388.56c1.06,0.85,1.01,2.27,1.68,3.32c-0.03,0.07-0.09,0.09-0.16,0.08
		C917.21,390.99,916.51,389.94,916.56,388.56z"/>
	<path class="st76" d="M933.6,388.56c0.72-0.75,1.59-1.1,2.64-0.96C935.51,388.33,934.62,388.62,933.6,388.56z"/>
	<path class="st76" d="M937.68,387.6c0.61-0.57,1.22-1.14,2.16-0.96C939.36,387.5,938.57,387.66,937.68,387.6z"/>
	<path class="st75" d="M903.6,348.72c-0.1,1.18-0.36,2.32-0.96,3.36C902.52,350.83,903.09,349.78,903.6,348.72z"/>
	<path class="st75" d="M915.6,385.68c0.73,0.82,0.87,1.84,0.96,2.88C916.07,387.66,915.59,386.75,915.6,385.68z"/>
	<path class="st75" d="M902.64,362.16c0.49,0.81,0.76,1.68,0.72,2.64C902.68,364.04,902.61,363.11,902.64,362.16z"/>
	<path class="st76" d="M957.36,339.12c-0.85-0.63-1.47-1.45-1.92-2.4C956.31,337.33,956.96,338.13,957.36,339.12z"/>
	<path class="st75" d="M924.72,327.6c-0.54,0.73-1.26,1.05-2.16,0.96C923.22,328.11,923.81,327.5,924.72,327.6z"/>
	<path class="st76" d="M923.94,393.58c0.87,0,1.41-0.78,2.22-0.94c-0.47,1.02-1.56,1.02-2.4,1.44
		C923.82,393.91,923.88,393.75,923.94,393.58z"/>
	<path class="st76" d="M930.96,389.76c0.46-0.54,0.72-1.36,1.68-1.2C932.2,389.12,931.84,389.8,930.96,389.76z"/>
	<path class="st75" d="M902.64,352.56c-0.13,1.28,0.27,2.59-0.24,3.84C902.53,355.12,902.13,353.81,902.64,352.56z"/>
	<path class="st75" d="M908.4,375.6c0.91,0.45,1.18,1.4,1.68,2.16C909.2,377.29,908.76,376.47,908.4,375.6z"/>
	<path class="st75" d="M904.32,368.4c0.23,0.82,1.24,1.19,1.2,2.16C904.72,370.06,904.24,369.38,904.32,368.4z"/>
	<path class="st75" d="M904.56,345.6c-0.04,0.98-0.21,1.92-0.96,2.64C903.68,347.27,904.09,346.42,904.56,345.6z"/>
	<path class="st75" d="M921.6,328.56c-0.19,0.75-0.62,1.21-1.44,1.2C920.6,329.31,920.76,328.53,921.6,328.56z"/>
	<path class="st76" d="M962.4,350.16c-0.61-0.69-0.74-1.52-0.72-2.4C962.13,348.5,962.5,349.26,962.4,350.16z"/>
	<path class="st76" d="M945.6,329.76c-0.75-0.07-1.19-0.52-1.44-1.2C945.04,328.48,945.3,329.15,945.6,329.76z"/>
	<path class="st75" d="M913.44,381.6c0.8,0.5,1.28,1.17,1.2,2.16C914.38,382.96,913.59,382.46,913.44,381.6z"/>
	<path class="st76" d="M961.68,366.48c0-0.8,0.17-1.54,0.72-2.16C962.47,365.14,962.27,365.88,961.68,366.48z"/>
	<path class="st75" d="M902.4,358.56c0.53,1.01,0.1,2.08,0.24,3.12C902.12,360.67,902.53,359.6,902.4,358.56z"/>
	<path class="st76" d="M941.76,386.64c0.44-0.53,0.88-1.07,1.68-0.96C943,386.21,942.51,386.65,941.76,386.64z"/>
	<path class="st75" d="M914.64,383.76c0.63,0.49,1.03,1.09,0.96,1.92C915.2,385.08,914.65,384.56,914.64,383.76z"/>
	<path class="st75" d="M903.6,366.48c0.51,0.54,0.77,1.17,0.72,1.92C903.81,367.86,903.55,367.23,903.6,366.48z"/>
	<path class="st76" d="M959.52,342.24c-0.63-0.39-1.28-0.78-1.2-1.68C958.67,341.16,959.4,341.48,959.52,342.24z"/>
	<path class="st75" d="M907.68,339.84c-0.01,0.8-0.56,1.32-0.96,1.92C906.55,340.88,907.24,340.42,907.68,339.84z"/>
	<path class="st75" d="M919.44,329.76c-0.37,0.65-0.94,0.96-1.68,0.96C918.29,330.35,918.65,329.69,919.44,329.76z"/>
	<path class="st76" d="M944.4,385.68c0.34-0.52,0.7-1.02,1.44-0.96C945.5,385.24,945.14,385.74,944.4,385.68z"/>
	<path class="st75" d="M917.76,330.72c-0.31,0.58-0.81,0.86-1.44,0.96C916.66,331.16,917.02,330.66,917.76,330.72z"/>
	<path class="st75" d="M905.52,370.56c0.32,0.64,0.64,1.28,0.96,1.92C905.73,372.05,905.47,371.38,905.52,370.56z"/>
	<path class="st76" d="M947.76,330.72c-0.74,0.06-1.1-0.43-1.44-0.96C946.95,329.86,947.45,330.14,947.76,330.72z"/>
	<path class="st76" d="M927.6,391.68c0.34-0.52,0.7-1.02,1.44-0.96C928.62,391.13,928.27,391.65,927.6,391.68z"/>
	<path class="st76" d="M960.72,369.36c0-0.66,0.28-1.2,0.72-1.68C961.54,368.39,961.18,368.9,960.72,369.36z"/>
	<path class="st76" d="M952.32,380.64c0.35-0.51,0.85-0.81,1.44-0.96C953.42,380.2,953.06,380.7,952.32,380.64z"/>
	<path class="st76" d="M949.44,331.68c-0.74,0.11-0.96-0.43-1.2-0.96C948.85,330.78,949.14,331.23,949.44,331.68z"/>
	<path class="st76" d="M946.56,384.72c0.36-0.51,0.85-0.81,1.44-0.96C947.66,384.28,947.3,384.78,946.56,384.72z"/>
	<path class="st77" d="M863.42,408.2c-0.17-0.01-0.3-0.09-0.35-0.27c-0.07-0.3-0.01-0.56,0.21-0.77c0.68-0.68,1.34-1.38,2.04-2.03
		c1.38-1.26,2.81-2.47,4.19-3.75c4.65-4.31,9.29-8.64,13.94-12.95c1.55-1.44,3.14-2.83,4.7-4.25c0.34-0.3,0.73-0.69,1.13-0.28
		c0.39,0.4-0.11,0.72-0.38,0.97c-3.89,3.6-7.8,7.19-11.7,10.78c-1.17,1.08-2.31,2.2-3.5,3.27c-3.24,2.89-6.4,5.88-9.6,8.83
		C863.91,407.95,863.74,408.2,863.42,408.2z"/>
	<path class="st77" d="M892.07,392.26c-0.03,0.36-0.28,0.57-0.51,0.78c-2.64,2.36-5.29,4.72-7.94,7.07
		c-1.55,1.37-3.11,2.73-4.66,4.1c-3.43,3.03-6.86,6.06-10.3,9.09c-0.26,0.23-0.51,0.62-0.88,0.19c-0.31-0.36-0.09-0.68,0.19-0.93
		c1.71-1.55,3.42-3.11,5.15-4.64c1.67-1.48,3.38-2.9,5.05-4.38c4.33-3.83,8.64-7.67,12.96-11.5c0.21-0.18,0.41-0.41,0.73-0.29
		C892.07,391.85,892.07,392.06,892.07,392.26z"/>
	<path class="st77" d="M874.18,417.76c-0.27,0-0.42-0.12-0.51-0.31c-0.13-0.31,0.01-0.55,0.22-0.75c1.06-0.96,2.11-1.94,3.19-2.88
		c2.47-2.12,4.97-4.22,7.45-6.33c2.93-2.51,5.84-5.04,8.8-7.51c0.29-0.24,0.72-0.93,1.19-0.37c0.53,0.64-0.21,0.98-0.59,1.31
		c-3.08,2.64-6.18,5.25-9.26,7.89c-3.39,2.89-6.76,5.79-10.14,8.69C874.41,417.6,874.28,417.69,874.18,417.76z"/>
	<path class="st1" d="M932.76,334.56c12.74-0.26,22.83,10.11,22.87,22.67c0.05,12.74-10.39,23.22-23.44,22.95
		c-12.08-0.25-22.5-10.29-22.32-23.22C910.04,344.53,920.1,334.32,932.76,334.56z"/>
	<path class="st78" d="M918.71,390.45c-0.39-1.49-0.98-2.9-1.74-4.24c-0.47-0.83-0.77-1.74-1.15-2.6c-0.84-1.94-2.26-3.37-3.61-4.9
		c-2.25-2.56-4.46-5.12-5.77-8.37c-0.44-1.1-0.76-2.32-1.58-3.27c-0.17-0.2-0.23-0.5-0.31-0.77c-1.1-3.86-1.46-7.81-1.18-11.8
		c0.18-2.57,0.87-5.03,1.84-7.44c0.91-2.25,1.97-4.4,3.18-6.48c0.65-1.12,1.43-2.16,2.4-3.05c1.64-1.52,3.23-3.11,4.87-4.64
		c0.45-0.42,1.12-0.6,1.67-0.82c1.01-0.4,2.11-0.93,2.84-1.48c1.27-0.96,3.12-0.23,4.07-1.79c0.35-0.56,1.29-0.24,1.94-0.21
		c0.85,0.03,1.48-0.22,1.89-0.98c2.2,0,4.4,0,6.6,0c1.22,0,2.43-0.13,3.52,0.77c0.58,0.48,1.48,0.18,2.22,0.17
		c0.7-0.01,1.25,0.15,1.66,0.73c0.11,0.16,0.27,0.41,0.41,0.41c1.02-0.01,1.79,0.53,2.67,0.92c1.64,0.72,3.21,1.5,4.67,2.55
		c2.4,1.73,4.51,3.77,6.31,6.11c0.71,0.92,1.36,1.91,1.88,2.95c1.01,2,2.09,3.92,2.8,6.12c0.95,2.94,0.81,5.89,1.02,8.83
		c0.16,2.32,0.03,4.75-0.51,6.99c-0.54,2.26-1.16,4.55-2.49,6.62c-0.86,1.33-1.49,2.86-2.45,4.16c-1.3,1.77-2.66,3.47-4.47,4.81
		c-1.12,0.83-2.19,1.77-3.41,2.41c-0.98,0.52-1.95,1.1-2.86,1.69c-1.13,0.74-2.61,0.51-3.54,1.57c-0.08,0.09-0.21,0.2-0.29,0.19
		c-2.15-0.42-3.88,1.54-6.05,1.06c-0.64-0.14-1.27,0-1.72,0.59c-0.11,0.15-0.32,0.3-0.49,0.31c-3.15,0.18-5.3,2.35-7.78,3.87
		c-0.4,0.24-0.88,0.34-1.32,0.5c0.2-1.27,0.78-2.41,1.18-3.61c0.72-1.25,2.06-1.49,3.24-1.93c0.62-0.23,1.25-0.39,1.86-0.71
		c1.03-0.54,2.24-0.34,3.36-0.59c0.38-0.08,0.79,0.08,1.17-0.1c18.8-1.72,30.56-21.48,22.96-38.75c-4.05-9.21-11.24-14.7-21.13-16.4
		c-15-2.58-29.55,8.01-31.79,23.04c-1.28,8.6,0.94,16.23,6.63,22.83c0.1,0.12,0.19,0.26,0.28,0.39c1.67,1.85,3.33,3.7,4.86,5.68
		c1.14,1.46,1.7,3.22,2.65,4.77c0.18,0.29,0.14,0.69-0.07,1.01C919.3,388.51,919.39,389.61,918.71,390.45z"/>
	<path class="st79" d="M919.67,387.57c0.19-1.04-0.71-1.62-1.04-2.45c-0.83-2.1-2.31-3.78-3.72-5.52c-0.92-1.14-2.06-2.12-2.68-3.49
		c2.07,1.92,4.13,3.84,6.6,5.28c2.38,1.38,2.36,1.43,1.62,4.09C920.25,386.19,920.14,386.94,919.67,387.57z"/>
	<path class="st80" d="M935.28,384.99c-0.63,0.53-1.51,0.4-2.14,0.42c-1.59,0.05-2.8,1.05-4.29,1.33c-1.09,0.21-2.27,0.76-3.2,1.57
		c0.02-0.16,0.01-0.33,0.06-0.47c0.35-1.02,0.44-2.3,1.13-2.99c0.75-0.75,2,0.06,3.04,0.08
		C931.69,384.96,933.48,384.97,935.28,384.99z"/>
	<path class="st3" d="M932.75,376.13c-10.49-0.01-18.85-8.43-18.83-18.97c0.02-10.32,8.48-18.75,18.84-18.75
		c10.39,0,18.86,8.48,18.84,18.88C951.58,367.73,943.17,376.14,932.75,376.13z"/>
	<path class="st81" d="M947.48,358.19c-0.73-6.93-4.9-10.72-10.79-12.65c-5.82-1.91-11.43-1.43-16.17,3.44
		c2.39-5.08,10.18-9.26,17.95-6.29C945.19,345.25,948.68,352.54,947.48,358.19z"/>
	<path class="st81" d="M917.71,357.9c1.31,6.59,5.37,10.25,11.17,12.06c5.81,1.82,11.25,1.2,15.96-3.72
		c-2.9,5.43-9.37,8.75-16.22,7.09C920.86,371.44,916.82,363.86,917.71,357.9z"/>
</g>
<g>
	<path class="st1" d="M290,516c3.34-4.81,7.34-9.13,11.53-13.23c4.21-4.08,8.72-7.85,13.41-11.38c9.46-6.95,19.67-12.9,30.43-17.64
		c21.51-9.53,44.8-14.87,68.26-16.6c5.86-0.59,11.75-0.6,17.64-0.81l8.83,0.11l4.41,0.07l4.4,0.26l8.81,0.52l8.78,0.89l4.39,0.45
		c1.47,0.13,2.91,0.4,4.37,0.59l8.73,1.26c2.92,0.36,5.79,1,8.69,1.51l8.67,1.62c5.74,1.28,11.47,2.58,17.2,3.93l17.02,4.57
		c2.81,0.76,5.6,1.56,8.42,2.3l8.47,2.11c45.33,10.7,92.25,14.01,138.75,11.86c46.53-2.15,92.83-9.71,137.6-22.54
		c22.39-6.4,44.4-14.13,65.73-23.4c21.33-9.28,41.99-20.1,61.42-32.81c19.37-12.75,37.61-27.38,52.98-44.67
		c7.73-8.59,14.56-17.94,20.46-27.84c3.02-5.08,6.2-10.08,9.61-14.93c3.45-4.83,7.13-9.51,11.17-13.91
		c4.04-4.4,8.44-8.51,13.35-12.07c2.49-1.73,5.03-3.39,7.79-4.73c1.34-0.73,2.79-1.28,4.19-1.89c1.46-0.51,2.9-1.05,4.42-1.4
		c3-0.78,6.11-1.21,9.25-1.18c3.13,0.05,6.26,0.56,9.24,1.52c5.98,1.9,11.21,5.58,15.4,10.01c4.22,4.44,7.45,9.68,9.87,15.2
		c2.43,5.53,4,11.41,4.69,17.4c0.69,5.98,0.46,12.13-1.11,18.03c-1.55,5.87-4.58,11.55-9.26,15.64c-2.3,2.04-5.02,3.69-7.8,4.83
		c-2.74,1.21-5.59,2.2-8.51,2.92c-5.84,1.44-12,1.69-17.92,0.58c-5.94-1.06-11.52-3.59-16.46-6.89c-4.96-3.31-9.33-7.4-13.16-11.89
		c-7.66-9.03-13.27-19.57-17.38-30.56c-4.04-11.02-6.6-22.6-7.29-34.29c0.98,11.67,3.84,23.12,8.13,33.96
		c4.29,10.82,10.06,21.14,17.73,29.84c3.84,4.33,8.17,8.23,13.02,11.32c4.83,3.09,10.19,5.38,15.81,6.27
		c5.61,0.94,11.38,0.6,16.87-0.87c2.75-0.73,5.43-1.72,8.01-2.93c2.6-1.13,4.92-2.62,6.97-4.49c4.09-3.73,6.78-8.83,8.13-14.26
		c1.37-5.44,1.52-11.2,0.79-16.82c-0.73-5.62-2.29-11.16-4.64-16.31c-2.35-5.15-5.43-9.98-9.34-13.98c-3.88-4-8.6-7.16-13.81-8.77
		c-2.6-0.81-5.31-1.22-8.03-1.24c-2.72,0-5.45,0.41-8.1,1.13c-1.34,0.33-2.63,0.83-3.93,1.29c-1.27,0.57-2.56,1.07-3.79,1.75
		c-2.5,1.24-4.85,2.81-7.15,4.44c-4.55,3.36-8.7,7.31-12.53,11.57c-3.83,4.26-7.35,8.83-10.66,13.55
		c-3.27,4.75-6.33,9.67-9.24,14.67c-6,10.26-13,19.93-20.87,28.79c-15.66,17.83-34.18,32.85-53.79,45.93
		c-19.69,13.03-40.65,23.99-62.21,33.44c-21.58,9.43-43.81,17.3-66.42,23.79c-45.26,12.85-92,20.46-139,22.44
		c-23.5,0.96-47.06,0.51-70.5-1.54c-23.44-2.04-46.75-5.76-69.59-11.44l-8.54-2.22c-2.84-0.77-5.66-1.61-8.49-2.41l-16.84-4.7
		c-5.65-1.39-11.32-2.73-16.99-4.06l-8.56-1.7c-2.86-0.54-5.7-1.21-8.58-1.61l-8.62-1.36c-1.44-0.21-2.87-0.49-4.32-0.65l-4.33-0.5
		l-8.67-1l-8.7-0.63l-4.35-0.32l-4.36-0.13l-8.72-0.23c-5.81,0.12-11.64,0.08-17.44,0.54c-23.22,1.27-46.34,6.1-67.83,15.14
		c-10.76,4.49-20.99,10.2-30.53,16.92c-4.75,3.39-9.33,7.02-13.63,10.98C297.56,507.07,293.46,511.28,290,516z"/>
</g>
</svg>
