<svg id="Dev" xmlns="http://www.w3.org/2000/svg" xmlns:xlink="http://www.w3.org/1999/xlink" viewBox="0 0 505.75 441.04"><defs><style>.cls-1{fill:none;}.cls-2{fill:url(#Áåçûìÿííûé_ãðàäèåíò_20);}.cls-3{fill:url(#Áåçûìÿííûé_ãðàäèåíò_28);}.cls-4{fill:url(#Áåçûìÿííûé_ãðàäèåíò_29);}.cls-5{fill:#242993;}.cls-6{opacity:0.51;}.cls-7{fill:#4553c7;}.cls-8{fill:url(#Áåçûìÿííûé_ãðàäèåíò_29-2);}.cls-9{fill:url(#Áåçûìÿííûé_ãðàäèåíò_28-2);}.cls-10{fill:#2859cb;}.cls-11{fill:#adc8ff;}.cls-12{fill:#91afff;}.cls-13{fill:url(#Áåçûìÿííûé_ãðàäèåíò_28-3);}.cls-14{opacity:0.11;}.cls-15{clip-path:url(#clip-path);}.cls-16{fill:url(#Áåçûìÿííûé_ãðàäèåíò_28-4);}.cls-17{fill:url(#Áåçûìÿííûé_ãðàäèåíò_28-5);}.cls-18,.cls-19{fill:#42ffff;}.cls-19{opacity:0.5;}</style><linearGradient id="Áåçûìÿííûé_ãðàäèåíò_20" x1="-1115.01" y1="480.15" x2="-773.36" y2="480.15" gradientTransform="translate(1395.21)" gradientUnits="userSpaceOnUse"><stop offset="0" stop-color="#42ffff"/><stop offset="0.15" stop-color="#43faff"/><stop offset="0.33" stop-color="#45ecff"/><stop offset="0.52" stop-color="#49d4ff"/><stop offset="0.72" stop-color="#4eb3ff"/><stop offset="0.93" stop-color="#5489ff"/><stop offset="1" stop-color="#5778ff"/></linearGradient><linearGradient id="Áåçûìÿííûé_ãðàäèåíò_28" x1="-1160.45" y1="316.16" x2="-901.48" y2="316.16" gradientTransform="translate(1395.21)" gradientUnits="userSpaceOnUse"><stop offset="0" stop-color="#c0d6ff"/><stop offset="0.3" stop-color="#c5dbff"/><stop offset="0.65" stop-color="#d3e9ff"/><stop offset="1" stop-color="#e9ffff"/></linearGradient><linearGradient id="Áåçûìÿííûé_ãðàäèåíò_29" x1="-1160.45" y1="382.58" x2="-1115.98" y2="382.58" gradientTransform="translate(1395.21)" gradientUnits="userSpaceOnUse"><stop offset="0" stop-color="#5778ff"/><stop offset="0.18" stop-color="#5c7dff"/><stop offset="0.39" stop-color="#6a8aff"/><stop offset="0.61" stop-color="#82a0ff"/><stop offset="0.85" stop-color="#a3beff"/><stop offset="1" stop-color="#bcd5ff"/></linearGradient><linearGradient id="Áåçûìÿííûé_ãðàäèåíò_29-2" x1="-1125.75" y1="457.23" x2="-760.01" y2="457.23" xlink:href="#Áåçûìÿííûé_ãðàäèåíò_29"/><linearGradient id="Áåçûìÿííûé_ãðàäèåíò_28-2" x1="-1002.86" y1="445.04" x2="-636.92" y2="445.04" xlink:href="#Áåçûìÿííûé_ãðàäèåíò_28"/><linearGradient id="Áåçûìÿííûé_ãðàäèåíò_28-3" x1="-940.89" y1="465.81" x2="-847.22" y2="465.81" xlink:href="#Áåçûìÿííûé_ãðàäèåíò_28"/><clipPath id="clip-path" transform="translate(-129.57 -138.96)"><polygon id="SVGID" class="cls-1" points="462.48 175.89 246.39 300.64 273.19 458.62 489.13 333.94 462.48 175.89"/></clipPath><linearGradient id="Áåçûìÿííûé_ãðàäèåíò_28-4" x1="-1142.67" y1="363.93" x2="-776.73" y2="363.93" xlink:href="#Áåçûìÿííûé_ãðàäèåíò_28"/><linearGradient id="Áåçûìÿííûé_ãðàäèåíò_28-5" x1="-1166.76" y1="337.06" x2="-1073.09" y2="337.06" xlink:href="#Áåçûìÿííûé_ãðàäèåíò_28"/></defs><title>Laptop+</title><g id="under"><path class="cls-2" d="M399.09,577.45,282.55,510.16a4.67,4.67,0,0,1,0-8.11L492.44,380.87l1-.57L619.5,453.09a4.69,4.69,0,0,1,0,8.12L418.16,577.45a19.1,19.1,0,0,1-19.07,0Zm-114.59-72a.75.75,0,0,0-.38.67.77.77,0,0,0,.38.67l116.55,67.28a15.2,15.2,0,0,0,15.16,0L617.54,457.82a.74.74,0,0,0,.39-.67.76.76,0,0,0-.39-.67L493.42,384.82Z" transform="translate(-129.57 -138.96)"/></g><g id="Laptop"><path class="cls-3" d="M493.68,332.27,465.63,165.85l2.25-.95L464.49,163v0a2.43,2.43,0,0,0-2.61.18L237.72,292.59a6.31,6.31,0,0,0-2.91,5.69L263.08,466a2.13,2.13,0,0,0,1.18,1.71h0l3.31,1.91.57-3.09-.19.05L490.77,338A6.33,6.33,0,0,0,493.68,332.27Z" transform="translate(-129.57 -138.96)"/><path class="cls-4" d="M239,297.14l-3.68-1.63a5,5,0,0,0-.47,2.77L263.08,466a2.13,2.13,0,0,0,1.18,1.71h0l3.31,1.91.57-3.09-.19.05,11.28-6.5Z" transform="translate(-129.57 -138.96)"/><path class="cls-5" d="M494.28,340,270.11,469.41c-1.73,1-3.21.42-3.52-1.37L238.32,300.3a6.32,6.32,0,0,1,2.91-5.69L465.41,165.18c1.73-1,3.21-.42,3.51,1.37l28.27,167.74A6.31,6.31,0,0,1,494.28,340Z" transform="translate(-129.57 -138.96)"/><g class="cls-6"><polygon class="cls-7" points="332.91 36.93 116.82 161.68 143.62 319.66 359.56 194.98 332.91 36.93"/></g><path class="cls-8" d="M635.2,419.39,623,425.78,500.29,355c-2.05-1.19-5.63-1-8,.33L280.71,477.44c-2-1.13-11.26-5.57-11.26-5.57l4.48,11.67,0,0a2.65,2.65,0,0,0,1.25,1.39l129.2,74.6c2.05,1.18,5.64,1,8-.34l216.51-125a3.83,3.83,0,0,0,1.81-1.93h0Z" transform="translate(-129.57 -138.96)"/><path class="cls-9" d="M633.31,421.4,411.41,549.51c-2.42,1.41-6.1,1.56-8.2.34L270.8,473.41c-2.11-1.22-1.84-3.34.59-4.74L493.28,340.56c2.43-1.4,6.1-1.56,8.2-.34L633.9,416.67C636,417.88,635.74,420,633.31,421.4Z" transform="translate(-129.57 -138.96)"/><path class="cls-10" d="M344.49,521.8v-2.43c0-.23.14-.34.31-.24l8.58,5a.74.74,0,0,1,.31.6v2.43c0,.23-.14.34-.31.24l-8.58-5A.76.76,0,0,1,344.49,521.8Z" transform="translate(-129.57 -138.96)"/><path class="cls-10" d="M357.32,529.21v-2.43c0-.23.14-.34.31-.24l8.59,5a.74.74,0,0,1,.31.6v2.43c0,.23-.14.34-.31.24l-8.59-5A.76.76,0,0,1,357.32,529.21Z" transform="translate(-129.57 -138.96)"/><path class="cls-11" d="M305.32,466.25,489.71,359.79a4,4,0,0,1,4,0l65.67,38a1.41,1.41,0,0,1,0,2.45L375,506.64a4,4,0,0,1-4,0L305.32,468.7A1.41,1.41,0,0,1,305.32,466.25Z" transform="translate(-129.57 -138.96)"/><path class="cls-12" d="M305.32,468.7l.66.38L489.71,363a4,4,0,0,1,4,0l65,37.61.66-.38a1.41,1.41,0,0,0,0-2.45l-65.67-38a4,4,0,0,0-4,0L305.32,466.25A1.41,1.41,0,0,0,305.32,468.7Z" transform="translate(-129.57 -138.96)"/><polygon class="cls-5" points="369.07 230.45 208.9 322.93 201.78 318.81 361.95 226.34 369.07 230.45"/><polygon class="cls-5" points="386.53 240.53 236.3 327.27 229.18 323.16 379.41 236.42 386.53 240.53"/><polygon class="cls-5" points="397.9 247.1 221.02 349.22 213.9 345.11 390.78 242.99 397.9 247.1"/><polygon class="cls-5" points="409.28 253.66 232.39 355.79 225.27 351.68 402.15 249.55 409.28 253.66"/><polygon class="cls-5" points="420.65 260.23 243.76 362.35 236.64 358.24 413.53 256.12 420.65 260.23"/><polygon class="cls-5" points="199.22 328.51 192.1 332.63 184.98 328.51 192.1 324.4 199.22 328.51"/><polygon class="cls-5" points="224.34 334.17 209.56 342.71 202.44 338.59 217.22 330.06 224.34 334.17"/><path class="cls-13" d="M496.81,492l49.72-28.71c1.94-1.12,1.94-2.94,0-4.06l-34-19.63a7.8,7.8,0,0,0-7,0l-49.72,28.71c-1.94,1.12-1.94,2.94,0,4.06l34,19.63A7.8,7.8,0,0,0,496.81,492Z" transform="translate(-129.57 -138.96)"/><path class="cls-12" d="M455.77,470l49.72-28.71a7.8,7.8,0,0,1,7,0l34,19.63a3.12,3.12,0,0,1,1.22,1.2c.52-1,.12-2.08-1.22-2.86l-34-19.63a7.8,7.8,0,0,0-7,0l-49.72,28.71c-1.34.77-1.73,1.88-1.22,2.86A3.05,3.05,0,0,1,455.77,470Z" transform="translate(-129.57 -138.96)"/><g class="cls-14"><g class="cls-15"><path class="cls-16" d="M493.5,340.29,271.6,468.4c-2.42,1.41-6.1,1.56-8.2.34L131,392.3c-2.11-1.22-1.84-3.34.59-4.74L353.47,259.45c2.43-1.4,6.1-1.56,8.2-.34l132.42,76.45C496.19,336.77,495.93,338.89,493.5,340.29Z" transform="translate(-129.57 -138.96)"/><path class="cls-17" d="M270.94,363.26l49.72-28.7c1.95-1.12,1.95-2.94,0-4.07l-34-19.62a7.71,7.71,0,0,0-7,0l-49.72,28.7c-1.95,1.12-1.95,2.94,0,4.06l34,19.63A7.71,7.71,0,0,0,270.94,363.26Z" transform="translate(-129.57 -138.96)"/><path class="cls-12" d="M229.91,341.23l49.72-28.7a7.77,7.77,0,0,1,7,0l34,19.63a2.93,2.93,0,0,1,1.22,1.2c.52-1,.13-2.09-1.22-2.87l-34-19.62a7.71,7.71,0,0,0-7,0l-49.72,28.7c-1.35.78-1.74,1.88-1.22,2.86A3.12,3.12,0,0,1,229.91,341.23Z" transform="translate(-129.57 -138.96)"/><path class="cls-11" d="M208.05,408.12,392.44,301.66a4,4,0,0,1,4,0l65.66,38a1.42,1.42,0,0,1,0,2.45L277.77,448.52a4,4,0,0,1-4,0l-65.75-37.94A1.43,1.43,0,0,1,208.05,408.12Z" transform="translate(-129.57 -138.96)"/><path class="cls-12" d="M208.05,410.58l.66.38L392.44,304.88a4,4,0,0,1,4,0l65,37.61.66-.38a1.42,1.42,0,0,0,0-2.45l-65.66-38a4,4,0,0,0-4,0L208.05,408.12A1.43,1.43,0,0,0,208.05,410.58Z" transform="translate(-129.57 -138.96)"/><polygon class="cls-5" points="315.33 198.11 154.69 290.85 161.05 294.52 321.69 201.78 315.33 198.11"/><polygon class="cls-5" points="298.4 188.33 145.72 276.49 152.08 280.16 304.77 192.01 298.4 188.33"/><polygon class="cls-5" points="134.32 283.07 120.06 291.3 126.42 294.98 140.68 286.74 134.32 283.07"/><polygon class="cls-5" points="146.91 295.34 136.98 301.07 143.35 304.75 153.28 299.01 146.91 295.34"/><polygon class="cls-5" points="287.8 182.21 109.45 285.18 115.81 288.85 294.16 185.88 287.8 182.21"/><polygon class="cls-5" points="277.19 176.09 98.85 279.06 105.21 282.73 283.56 179.76 277.19 176.09"/><polygon class="cls-5" points="266.59 169.96 88.24 272.93 94.6 276.61 272.95 173.64 266.59 169.96"/></g></g><path class="cls-18" d="M266.37,310l-4.27,2.73-.51-3.16,4.26-2.73Zm.47,2.89-4.26,2.72,3,18.51,4.26-2.73Zm3.49,21.39L266.07,337l1.2,7.35,4.26-2.73Zm1.73,10.6-4.26,2.72,1.2,7.35,4.26-2.72Zm-1.93-26,4.26-2.73-1.2-7.35-4.26,2.73Zm2.29,14,4.26-2.73-1.76-10.78-4.26,2.72Zm2.11,12.93,4.27-2.73-1.52-9.25L273,336.6Zm-.74,9.61-4.26,2.73,1.2,7.34,4.26-2.72Zm-1.07-49.54-.52-3.16-4.26,2.72.52,3.17ZM279.35,368l-7.44,4.75.5,3.07,7.44-4.75Z" transform="translate(-129.57 -138.96)"/></g><g id="data"><polygon class="cls-19" points="294.01 14.83 312.62 4.08 312.62 0 294.01 10.74 294.01 14.83"/><polygon class="cls-19" points="284.48 20.33 291.17 16.47 291.17 12.38 284.48 16.25 284.48 20.33"/><polygon class="cls-19" points="277.08 24.6 281.63 21.98 281.63 17.89 277.08 20.52 277.08 24.6"/><polygon class="cls-19" points="302.48 19.27 312.62 13.42 312.62 9.33 302.48 15.18 302.48 19.27"/><polygon class="cls-19" points="287.22 28.08 299.64 20.91 299.64 16.82 287.22 24 287.22 28.08"/><polygon class="cls-19" points="279.82 32.35 284.38 29.72 284.38 25.64 279.82 28.27 279.82 32.35"/><polygon class="cls-19" points="272.79 36.41 277.34 33.78 277.34 29.7 272.79 32.33 272.79 36.41"/><polygon class="cls-18" points="305.29 26.98 312.62 22.75 312.62 18.66 305.29 22.9 305.29 26.98"/><polygon class="cls-18" points="299.94 30.07 302.44 28.63 302.44 24.54 299.94 25.99 299.94 30.07"/><polygon class="cls-19" points="292.54 34.34 297.09 31.71 297.09 27.63 292.54 30.26 292.54 34.34"/><polygon class="cls-19" points="285.55 47.71 312.62 32.08 312.62 28 285.55 43.63 285.55 47.71"/><polygon class="cls-19" points="276.01 53.22 282.71 49.35 282.71 45.27 276.01 49.13 276.01 53.22"/><polygon class="cls-19" points="305.29 45.65 312.62 41.41 312.62 37.33 305.29 41.56 305.29 45.65"/><polygon class="cls-19" points="288.07 55.59 302.44 47.29 302.44 43.2 288.07 51.5 288.07 55.59"/><polygon class="cls-19" points="280.68 59.85 285.23 57.23 285.23 53.14 280.68 55.77 280.68 59.85"/><polygon class="cls-19" points="297.61 59.41 312.62 50.75 312.62 46.66 297.61 55.33 297.61 59.41"/><polygon class="cls-18" points="283.92 67.32 294.77 61.05 294.77 56.97 283.92 63.23 283.92 67.32"/><polygon class="cls-19" points="273.74 73.19 281.08 68.96 281.08 64.87 273.74 69.11 273.74 73.19"/><polygon class="cls-19" points="307.55 63.01 312.62 60.08 312.62 55.99 307.55 58.92 307.55 63.01"/><polygon class="cls-19" points="298.01 68.51 304.71 64.65 304.71 60.56 298.01 64.43 298.01 68.51"/><polygon class="cls-19" points="284.38 76.39 295.17 70.15 295.17 66.07 284.38 72.3 284.38 76.39"/><polygon class="cls-19" points="297.09 78.38 312.62 69.41 312.62 65.33 297.09 74.29 297.09 78.38"/><polygon class="cls-19" points="279.7 88.41 294.25 80.02 294.25 75.93 279.7 84.33 279.7 88.41"/><polygon class="cls-18" points="272.31 92.68 276.86 90.06 276.86 85.97 272.31 88.6 272.31 92.68"/><polygon class="cls-19" points="265.22 96.78 269.77 94.15 269.77 90.07 265.22 92.69 265.22 96.78"/><polygon class="cls-19" points="303.32 84.11 312.62 78.74 312.62 74.66 303.32 80.03 303.32 84.11"/><polygon class="cls-18" points="264.42 31.91 251.52 39.36 251.52 35.28 264.42 27.83 264.42 31.91"/><polygon class="cls-19" points="261.65 42.84 251.52 48.69 251.52 44.61 261.65 38.76 261.65 42.84"/><polygon class="cls-19" points="258.85 53.79 251.52 58.03 251.52 53.94 258.85 49.71 258.85 53.79"/><polygon class="cls-19" points="262.19 61.2 251.52 67.36 251.52 63.27 262.19 57.12 262.19 61.2"/><polygon class="cls-19" points="258.85 72.46 251.52 76.69 251.52 72.61 258.85 68.37 258.85 72.46"/><polygon class="cls-19" points="260.82 80.65 251.52 86.02 251.52 81.94 260.82 76.57 260.82 80.65"/><polygon class="cls-19" points="256.58 92.43 251.52 95.36 251.52 91.27 256.58 88.34 256.58 92.43"/><polygon class="cls-19" points="261.34 99.02 251.52 104.69 251.52 100.6 261.34 94.93 261.34 99.02"/><polygon class="cls-19" points="260.82 108.65 251.52 114.02 251.52 109.94 260.82 104.57 260.82 108.65"/><polygon class="cls-19" points="296.52 88.04 300.48 85.75 300.48 81.67 296.52 83.95 296.52 88.04"/><polygon class="cls-19" points="284.77 94.82 293.68 89.68 293.68 85.59 284.77 90.73 284.77 94.82"/><polygon class="cls-19" points="221.88 56.31 240.48 45.58 240.48 41.49 221.88 52.23 221.88 56.31"/><polygon class="cls-19" points="212.34 61.82 219.03 57.96 219.03 53.87 212.34 57.74 212.34 61.82"/><polygon class="cls-18" points="204.94 66.09 209.49 63.46 209.49 59.38 204.94 62.01 204.94 66.09"/><polygon class="cls-19" points="230.34 60.76 240.48 54.91 240.48 50.82 230.34 56.67 230.34 60.76"/><polygon class="cls-19" points="215.08 69.57 227.5 62.4 227.5 58.31 215.08 65.49 215.08 69.57"/><polygon class="cls-18" points="207.69 73.84 212.24 71.21 212.24 67.13 207.69 69.75 207.69 73.84"/><polygon class="cls-19" points="200.65 77.9 205.2 75.28 205.2 71.19 200.65 73.82 200.65 77.9"/><polygon class="cls-19" points="233.15 68.47 240.48 64.24 240.48 60.15 233.15 64.39 233.15 68.47"/><polygon class="cls-19" points="227.8 71.56 230.3 70.11 230.3 66.03 227.8 67.48 227.8 71.56"/><polygon class="cls-19" points="220.4 75.83 224.96 73.2 224.96 69.12 220.4 71.75 220.4 75.83"/><polygon class="cls-19" points="213.41 89.2 240.48 73.57 240.48 69.49 213.41 85.11 213.41 89.2"/><polygon class="cls-19" points="203.87 94.71 210.57 90.84 210.57 86.76 203.87 90.62 203.87 94.71"/><polygon class="cls-19" points="233.15 87.14 240.48 82.9 240.48 78.82 233.15 83.05 233.15 87.14"/><polygon class="cls-19" points="215.93 97.08 230.3 88.78 230.3 84.69 215.93 92.99 215.93 97.08"/><polygon class="cls-19" points="208.54 101.34 213.09 98.72 213.09 94.63 208.54 97.26 208.54 101.34"/><polygon class="cls-18" points="225.47 100.9 240.48 92.24 240.48 88.15 225.47 96.81 225.47 100.9"/><polygon class="cls-19" points="211.78 108.81 222.63 102.54 222.63 98.46 211.78 104.72 211.78 108.81"/><polygon class="cls-19" points="201.6 114.68 208.94 110.45 208.94 106.36 201.6 110.6 201.6 114.68"/><polygon class="cls-19" points="235.41 104.5 240.48 101.57 240.48 97.48 235.41 100.41 235.41 104.5"/><polygon class="cls-19" points="225.87 110 232.57 106.14 232.57 102.05 225.87 105.92 225.87 110"/><polygon class="cls-18" points="212.24 117.88 223.03 111.64 223.03 107.56 212.24 113.79 212.24 117.88"/><polygon class="cls-19" points="224.96 119.86 240.48 110.9 240.48 106.82 224.96 115.78 224.96 119.86"/><polygon class="cls-19" points="207.57 129.9 222.11 121.5 222.11 117.42 207.57 125.82 207.57 129.9"/><polygon class="cls-19" points="200.17 134.17 204.72 131.54 204.72 127.46 200.17 130.09 200.17 134.17"/><polygon class="cls-19" points="193.08 138.27 197.63 135.64 197.63 131.56 193.08 134.18 193.08 138.27"/><polygon class="cls-19" points="231.18 125.6 240.48 120.23 240.48 116.15 231.18 121.52 231.18 125.6"/><polygon class="cls-18" points="192.28 73.4 179.38 80.85 179.38 76.77 192.28 69.32 192.28 73.4"/><polygon class="cls-19" points="189.51 84.33 179.38 90.18 179.38 86.1 189.51 80.25 189.51 84.33"/><polygon class="cls-19" points="186.71 95.28 179.38 99.52 179.38 95.43 186.71 91.2 186.71 95.28"/><polygon class="cls-19" points="190.05 102.69 179.38 108.85 179.38 104.76 190.05 98.6 190.05 102.69"/><polygon class="cls-19" points="186.71 113.95 179.38 118.18 179.38 114.1 186.71 109.86 186.71 113.95"/><polygon class="cls-19" points="188.68 122.14 179.38 127.51 179.38 123.43 188.68 118.06 188.68 122.14"/><polygon class="cls-19" points="184.45 133.92 179.38 136.85 179.38 132.76 184.45 129.83 184.45 133.92"/><polygon class="cls-19" points="189.2 140.51 179.38 146.18 179.38 142.09 189.2 136.42 189.2 140.51"/><polygon class="cls-19" points="188.68 150.14 179.38 155.51 179.38 151.43 188.68 146.06 188.68 150.14"/><polygon class="cls-18" points="224.38 129.53 228.34 127.25 228.34 123.16 224.38 125.44 224.38 129.53"/><polygon class="cls-19" points="212.63 136.31 221.54 131.17 221.54 127.08 212.63 132.22 212.63 136.31"/><polygon class="cls-19" points="294.01 98.87 312.62 88.13 312.62 84.05 294.01 94.79 294.01 98.87"/><polygon class="cls-19" points="284.48 104.38 291.17 100.51 291.17 96.43 284.48 100.29 284.48 104.38"/><polygon class="cls-19" points="277.08 108.65 281.63 106.02 281.63 101.94 277.08 104.56 277.08 108.65"/><polygon class="cls-19" points="302.48 103.31 312.62 97.46 312.62 93.38 302.48 99.23 302.48 103.31"/><polygon class="cls-19" points="287.22 112.13 299.64 104.96 299.64 100.87 287.22 108.04 287.22 112.13"/><polygon class="cls-19" points="279.82 116.4 284.38 113.77 284.38 109.68 279.82 112.31 279.82 116.4"/><polygon class="cls-19" points="272.79 120.46 277.34 117.83 277.34 113.75 272.79 116.37 272.79 120.46"/><polygon class="cls-19" points="305.29 111.03 312.62 106.8 312.62 102.71 305.29 106.94 305.29 111.03"/><polygon class="cls-19" points="299.94 114.12 302.44 112.67 302.44 108.58 299.94 110.03 299.94 114.12"/><polygon class="cls-19" points="292.54 118.39 297.09 115.76 297.09 111.67 292.54 114.3 292.54 118.39"/><polygon class="cls-19" points="285.55 131.76 312.62 116.13 312.62 112.04 285.55 127.67 285.55 131.76"/><polygon class="cls-19" points="276.01 137.26 282.71 133.4 282.71 129.31 276.01 133.18 276.01 137.26"/><polygon class="cls-19" points="305.29 129.69 312.62 125.46 312.62 121.38 305.29 125.61 305.29 129.69"/><polygon class="cls-19" points="288.07 139.63 302.44 131.34 302.44 127.25 288.07 135.55 288.07 139.63"/><polygon class="cls-19" points="280.68 143.9 285.23 141.27 285.23 137.19 280.68 139.81 280.68 143.9"/><polygon class="cls-19" points="297.61 143.46 312.62 134.79 312.62 130.71 297.61 139.37 297.61 143.46"/><polygon class="cls-19" points="283.92 151.36 294.77 145.1 294.77 141.01 283.92 147.28 283.92 151.36"/><polygon class="cls-19" points="273.74 157.24 281.08 153 281.08 148.92 273.74 153.15 273.74 157.24"/><polygon class="cls-19" points="307.55 147.05 312.62 144.13 312.62 140.04 307.55 142.97 307.55 147.05"/><polygon class="cls-19" points="298.01 152.56 304.71 148.69 304.71 144.61 298.01 148.47 298.01 152.56"/><polygon class="cls-19" points="284.38 160.43 295.17 154.2 295.17 150.12 284.38 156.35 284.38 160.43"/><polygon class="cls-19" points="297.09 162.42 312.62 153.46 312.62 149.37 297.09 158.34 297.09 162.42"/><polygon class="cls-19" points="279.7 172.46 294.25 164.06 294.25 159.98 279.7 168.38 279.7 172.46"/><polygon class="cls-19" points="272.31 176.73 276.86 174.1 276.86 170.02 272.31 172.64 272.31 176.73"/><polygon class="cls-19" points="265.22 180.82 269.77 178.2 269.77 174.11 265.22 176.74 265.22 180.82"/><polygon class="cls-19" points="303.32 168.16 312.62 162.79 312.62 158.71 303.32 164.07 303.32 168.16"/><polygon class="cls-19" points="264.42 115.96 251.52 123.41 251.52 119.32 264.42 111.88 264.42 115.96"/><polygon class="cls-19" points="261.65 126.89 251.52 132.74 251.52 128.66 261.65 122.8 261.65 126.89"/><polygon class="cls-19" points="258.85 137.84 251.52 142.07 251.52 137.99 258.85 133.75 258.85 137.84"/><polygon class="cls-19" points="262.19 145.25 251.52 151.41 251.52 147.32 262.19 141.16 262.19 145.25"/><polygon class="cls-19" points="258.85 156.5 251.52 160.74 251.52 156.65 258.85 152.42 258.85 156.5"/><polygon class="cls-19" points="260.82 164.7 251.52 170.07 251.52 165.98 260.82 160.61 260.82 164.7"/><polygon class="cls-19" points="256.58 176.48 251.52 179.4 251.52 175.32 256.58 172.39 256.58 176.48"/><polygon class="cls-19" points="261.34 183.06 251.52 188.73 251.52 184.65 261.34 178.98 261.34 183.06"/><polygon class="cls-19" points="260.82 192.7 251.52 198.07 251.52 193.98 260.82 188.61 260.82 192.7"/><polygon class="cls-19" points="296.52 172.09 300.48 169.8 300.48 165.72 296.52 168 296.52 172.09"/><polygon class="cls-19" points="284.77 178.87 293.68 173.73 293.68 169.64 284.77 174.78 284.77 178.87"/><polygon class="cls-19" points="277.41 210.26 292.43 201.58 292.43 197.5 277.41 206.17 277.41 210.26"/><polygon class="cls-19" points="267.12 216.2 273.04 212.78 273.04 208.7 267.12 212.12 267.12 216.2"/><polygon class="cls-19" points="221.88 140.36 240.48 129.62 240.48 125.53 221.88 136.28 221.88 140.36"/><polygon class="cls-19" points="212.34 145.87 219.03 142 219.03 137.92 212.34 141.78 212.34 145.87"/><polygon class="cls-19" points="204.94 150.14 209.49 147.51 209.49 143.42 204.94 146.05 204.94 150.14"/><polygon class="cls-19" points="230.34 144.81 240.48 138.95 240.48 134.87 230.34 140.72 230.34 144.81"/><polygon class="cls-19" points="215.08 153.62 227.5 146.45 227.5 142.36 215.08 149.53 215.08 153.62"/><polygon class="cls-19" points="207.69 157.89 212.24 155.26 212.24 151.17 207.69 153.8 207.69 157.89"/><polygon class="cls-19" points="200.65 161.95 205.2 159.32 205.2 155.24 200.65 157.86 200.65 161.95"/><polygon class="cls-19" points="233.15 152.52 240.48 148.28 240.48 144.2 233.15 148.43 233.15 152.52"/><polygon class="cls-19" points="227.8 155.61 230.3 154.16 230.3 150.07 227.8 151.52 227.8 155.61"/><polygon class="cls-19" points="220.4 159.88 224.96 157.25 224.96 153.16 220.4 155.79 220.4 159.88"/><polygon class="cls-19" points="213.41 173.25 240.48 157.62 240.48 153.53 213.41 169.16 213.41 173.25"/><polygon class="cls-19" points="203.87 178.75 210.57 174.89 210.57 170.8 203.87 174.67 203.87 178.75"/><polygon class="cls-19" points="233.15 171.18 240.48 166.95 240.48 162.86 233.15 167.1 233.15 171.18"/><polygon class="cls-19" points="215.93 181.12 230.3 172.82 230.3 168.74 215.93 177.04 215.93 181.12"/><polygon class="cls-19" points="208.54 185.39 213.09 182.76 213.09 178.68 208.54 181.3 208.54 185.39"/><polygon class="cls-19" points="225.47 184.95 240.48 176.28 240.48 172.2 225.47 180.86 225.47 184.95"/><polygon class="cls-19" points="211.78 192.85 222.63 186.59 222.63 182.5 211.78 188.77 211.78 192.85"/><polygon class="cls-19" points="201.6 198.73 208.94 194.49 208.94 190.41 201.6 194.64 201.6 198.73"/><polygon class="cls-19" points="235.41 188.54 240.48 185.62 240.48 181.53 235.41 184.46 235.41 188.54"/><polygon class="cls-19" points="225.87 194.05 232.57 190.18 232.57 186.1 225.87 189.96 225.87 194.05"/><polygon class="cls-19" points="212.24 201.92 223.03 195.69 223.03 191.6 212.24 197.84 212.24 201.92"/><polygon class="cls-19" points="224.96 203.91 240.48 194.95 240.48 190.86 224.96 199.82 224.96 203.91"/><polygon class="cls-19" points="207.57 213.95 222.11 205.55 222.11 201.47 207.57 209.86 207.57 213.95"/><polygon class="cls-19" points="200.17 218.22 204.72 215.59 204.72 211.5 200.17 214.13 200.17 218.22"/><polygon class="cls-19" points="193.08 222.31 197.63 219.69 197.63 215.6 193.08 218.23 193.08 222.31"/><polygon class="cls-19" points="231.18 209.65 240.48 204.28 240.48 200.19 231.18 205.56 231.18 209.65"/><polygon class="cls-19" points="192.28 157.45 179.38 164.9 179.38 160.81 192.28 153.37 192.28 157.45"/><polygon class="cls-19" points="189.51 168.38 179.38 174.23 179.38 170.14 189.51 164.29 189.51 168.38"/><polygon class="cls-19" points="186.71 179.33 179.38 183.56 179.38 179.48 186.71 175.24 186.71 179.33"/><polygon class="cls-19" points="190.05 186.74 179.38 192.89 179.38 188.81 190.05 182.65 190.05 186.74"/><polygon class="cls-19" points="186.71 197.99 179.38 202.23 179.38 198.14 186.71 193.91 186.71 197.99"/><polygon class="cls-19" points="188.68 206.19 179.38 211.56 179.38 207.47 188.68 202.1 188.68 206.19"/><polygon class="cls-19" points="184.45 217.97 179.38 220.89 179.38 216.81 184.45 213.88 184.45 217.97"/><polygon class="cls-19" points="189.2 224.55 179.38 230.22 179.38 226.14 189.2 220.47 189.2 224.55"/><polygon class="cls-19" points="188.68 234.19 179.38 239.56 179.38 235.47 188.68 230.1 188.68 234.19"/><polygon class="cls-19" points="224.38 213.57 228.34 211.29 228.34 207.21 224.38 209.49 224.38 213.57"/><polygon class="cls-19" points="212.63 220.36 221.54 215.22 221.54 211.13 212.63 216.27 212.63 220.36"/><polygon class="cls-19" points="205.27 251.75 220.29 243.07 220.29 238.99 205.27 247.66 205.27 251.75"/><polygon class="cls-19" points="194.98 257.69 200.9 254.27 200.9 250.19 194.98 253.6 194.98 257.69"/></g></svg>